<svg width="228" height="232" viewBox="0 0 228 232" fill="none" xmlns="http://www.w3.org/2000/svg">
<path d="M206.206 97.9883C205.982 96.2176 205.824 94.4702 205.666 92.7188C205.105 86.5067 204.539 80.2424 201.005 72.6976C198.017 66.321 194.805 62.6393 191.244 58.5585C190.588 57.8073 189.921 57.0425 189.241 56.2449C182.202 47.9885 177.509 42.667 167.615 36.3687C156.845 29.5126 149.398 27.1206 137.409 24.5756C122.132 21.3325 112.071 20.8198 96.4578 24.4616C85.6943 26.9723 79.4649 29.594 70.0804 35.3007C59.4221 41.7819 53.8615 46.9767 46.0912 56.4224C37.0237 67.4451 33.4075 75.2679 28.5536 88.0324C23.9191 100.22 21.7983 107.93 20.8281 121.264C20.7438 122.423 20.6541 123.558 20.5658 124.675C19.7536 134.952 19.0615 143.71 23.7928 155.505C28.5793 167.438 36.266 173.696 43.9067 179.916C46.0084 181.627 48.1066 183.336 50.14 185.158C51.778 186.627 53.3206 188.095 54.8437 189.544C60.7815 195.195 66.4231 200.563 76.2683 204.568C86.239 208.624 94.4349 208.591 102.676 208.557C105.205 208.547 107.738 208.536 110.328 208.644C112.648 208.741 114.919 208.939 117.197 209.139C124.455 209.775 131.785 210.417 141.012 207.777C152.404 204.518 158.969 198.901 165.958 192.921C167.525 191.58 169.114 190.22 170.783 188.865C171.585 188.214 172.365 187.585 173.126 186.972C180.558 180.979 186.216 176.416 192.652 167.183C201.626 154.309 205.101 144.903 207.318 129.519C208.911 118.469 207.946 111.185 206.725 101.971C206.555 100.686 206.38 99.3636 206.206 97.9883Z" fill="#B27E59" stroke="white" stroke-width="13.6183"/>
<path d="M195.197 95.4376C194.035 86.2518 194.513 80.566 190.585 72.1814C187.535 65.6709 184.469 62.7288 179.805 57.2575C172.876 49.1287 168.715 44.444 159.705 38.708C149.82 32.4159 143.203 30.2647 131.742 27.8316C117.229 24.7508 108.199 24.3178 93.7508 27.688C83.7231 30.027 78.1624 32.3639 69.3644 37.7139C59.4592 43.7371 54.4607 48.3907 47.0959 57.3435C38.674 67.5814 35.3763 74.6567 30.6644 87.0478C26.2024 98.7816 24.2765 105.833 23.3655 118.353C22.4782 130.549 21.3065 138.216 25.8587 149.565C31.1789 162.829 39.7893 167.144 50.4311 176.683C59.22 184.561 63.6474 190.409 74.5803 194.856C86.1478 199.562 93.8796 197.917 106.357 198.436C117.491 198.899 124.171 200.891 134.885 197.826C147.108 194.329 152.368 188.186 162.238 180.174C170.999 173.062 176.359 169.142 182.812 159.885C191.136 147.942 194.248 139.552 196.325 125.143C197.981 113.653 196.653 106.955 195.197 95.4376Z" fill="#D99C71"/>
<path fill-rule="evenodd" clip-rule="evenodd" d="M159.705 38.708C161.677 39.9629 163.416 41.1676 165.003 42.3689C157.274 40.825 150.014 41.1155 144.134 47.4342C139.539 52.3729 137.427 55.7983 134.985 62.0869C125.549 86.3809 159.9 81.8625 192.584 77.3301C193.83 81.3978 194.168 85.0685 194.56 89.3294C194.734 91.2204 194.918 93.2277 195.198 95.4376C195.377 96.8541 195.554 98.1977 195.724 99.4863C196.935 108.675 197.778 115.066 196.326 125.143C194.249 139.552 191.137 147.942 182.812 159.885C180.201 163.632 177.768 166.504 175.216 169.068C170.454 164.615 164.775 160.585 158.678 156.667C154.407 153.923 150.363 153.006 146.379 152.104C142.006 151.113 137.706 150.139 133.258 146.78C123.622 139.504 124.788 127.793 125.938 116.235C127.116 104.404 128.278 92.7327 117.82 86.1441C112.112 82.5481 108.354 81.1111 101.72 79.8819C75.8148 75.0813 87.1693 108.766 97.8107 140.335C101.353 150.843 104.815 161.116 106.799 169.657C108.66 177.671 109.374 186.19 110.067 194.444L110.067 194.446L110.067 194.448C110.186 195.866 110.304 197.276 110.427 198.675C109.132 198.579 107.781 198.495 106.357 198.436C103.175 198.304 100.302 198.312 97.5948 198.32L97.5943 198.32L97.5942 198.32C89.6867 198.343 83.1981 198.362 74.5809 194.856C66.9536 191.753 62.4926 187.969 57.5079 183.289C64.8764 181.283 70.8603 176.881 74.6202 168.166C84.9575 144.204 72.4741 114.127 47.3215 107.171C38.9029 104.843 31.4314 105.464 24.5361 108.075C25.6986 101.062 27.5728 95.1795 30.665 87.0478C35.3769 74.6567 38.6746 67.5814 47.0966 57.3435C54.4613 48.3907 59.4599 43.7371 69.365 37.7139C78.163 32.3639 83.7237 30.027 93.7514 27.688C108.2 24.3178 117.229 24.7508 131.742 27.8316C143.204 30.2647 149.821 32.4159 159.705 38.708Z" fill="#E6B48E"/>
<circle cx="171.797" cy="97.3374" r="4.54601" transform="rotate(111.254 171.797 97.3374)" fill="#C08A56"/>
<circle cx="159.083" cy="145.073" r="2.72761" transform="rotate(111.254 159.083 145.073)" fill="#C08A56"/>
<circle cx="65.1204" cy="100.72" r="2.72761" transform="rotate(111.254 65.1204 100.72)" fill="#C08A56"/>
<circle cx="124.063" cy="49.5055" r="2.72761" transform="rotate(111.254 124.063 49.5055)" fill="#C08A56"/>
<circle cx="53.8194" cy="154.857" r="2.72761" transform="rotate(111.254 53.8194 154.857)" fill="#C08A56"/>
<circle cx="69.5474" cy="69.2729" r="4.54601" transform="rotate(111.254 69.5474 69.2729)" fill="#C08A56"/>
<circle cx="98.6359" cy="144.975" r="4.54601" transform="rotate(111.254 98.6359 144.975)" fill="#C08A56"/>
<path d="M130.685 116.375C132.911 92.6361 118.816 75.5739 121.041 74.832C126.976 74.832 138.829 88.0226 141.071 108.215C141.895 115.633 130.685 119.342 130.685 116.375Z" fill="#778935"/>
</svg>
