<svg width="787" height="657" viewBox="0 0 787 657" fill="none" xmlns="http://www.w3.org/2000/svg">
<mask id="path-1-outside-1_108_7684" maskUnits="userSpaceOnUse" x="-0.16864" y="-0.440918" width="788" height="657" fill="black">
<rect fill="white" x="-0.16864" y="-0.440918" width="788" height="657"/>
<path fill-rule="evenodd" clip-rule="evenodd" d="M138.826 170.979C150.793 153.871 163.03 137.13 175.107 121.449L175.919 121.878C177.89 119.321 179.857 116.793 181.817 114.296L181.001 113.864C201.709 87.4614 221.737 64.5386 238.895 48.6327C239.202 48.785 239.509 48.9373 239.816 49.0895C242.44 46.668 244.997 44.4125 247.478 42.3356C247.162 42.1781 246.847 42.0206 246.531 41.863C250.522 38.4978 254.32 35.5895 257.891 33.1906C262.769 29.9143 268.411 28.6357 274.057 30.2656C331.187 46.761 569.889 188.001 663.127 250.936C668.161 254.334 671.93 258.74 674.538 263.75C682.419 277.933 680.664 297.293 671.704 312.26C656.308 337.98 642.285 371.161 640.047 392.921C639.661 396.674 640.201 400.445 641.752 403.884C642.604 405.773 643.594 407.657 644.71 409.533L644.814 409.607C661.948 437.352 706.146 463.376 736.975 478.633C744.609 482.411 750.696 488.259 754.173 494.972C759.061 503.733 759.48 514.092 752.981 523.271C739.369 542.499 719.475 563.884 703.076 575.555C692.625 582.994 680.182 577.993 672.297 567.874C659.566 551.537 639.073 528.201 611.269 512.629C599.964 506.298 586.102 508.518 575.935 516.549C544.821 541.125 520.532 564.734 505.393 597.891C495.432 619.707 471.248 633.656 449.692 623.144C324.706 562.187 83.766 416.779 38.804 374.219C37.1867 372.688 35.8753 370.957 34.9389 369.085C33.0676 365.839 32.3469 362.116 33.1656 358.243C33.2113 358.027 33.2589 357.809 33.3083 357.588L33.9055 357.905C34.549 355.157 35.4735 352.062 36.6581 348.654L36.0061 348.308C42.1483 330.398 55.6442 303.629 73.381 273.027L74.1439 273.395C75.7116 270.694 77.3122 267.963 78.9434 265.205L78.1762 264.835C89.4783 245.71 102.267 225.314 115.828 204.801L116.61 205.202C118.357 202.561 120.117 199.918 121.888 197.276L121.103 196.873C125.142 190.843 129.24 184.815 133.379 178.819L133.724 178.996L134.171 179.225C135.981 176.605 137.798 173.992 139.622 171.387C139.356 171.251 139.091 171.115 138.826 170.979Z"/>
</mask>
<path fill-rule="evenodd" clip-rule="evenodd" d="M138.826 170.979C150.793 153.871 163.03 137.13 175.107 121.449L175.919 121.878C177.89 119.321 179.857 116.793 181.817 114.296L181.001 113.864C201.709 87.4614 221.737 64.5386 238.895 48.6327C239.202 48.785 239.509 48.9373 239.816 49.0895C242.44 46.668 244.997 44.4125 247.478 42.3356C247.162 42.1781 246.847 42.0206 246.531 41.863C250.522 38.4978 254.32 35.5895 257.891 33.1906C262.769 29.9143 268.411 28.6357 274.057 30.2656C331.187 46.761 569.889 188.001 663.127 250.936C668.161 254.334 671.93 258.74 674.538 263.75C682.419 277.933 680.664 297.293 671.704 312.26C656.308 337.98 642.285 371.161 640.047 392.921C639.661 396.674 640.201 400.445 641.752 403.884C642.604 405.773 643.594 407.657 644.71 409.533L644.814 409.607C661.948 437.352 706.146 463.376 736.975 478.633C744.609 482.411 750.696 488.259 754.173 494.972C759.061 503.733 759.48 514.092 752.981 523.271C739.369 542.499 719.475 563.884 703.076 575.555C692.625 582.994 680.182 577.993 672.297 567.874C659.566 551.537 639.073 528.201 611.269 512.629C599.964 506.298 586.102 508.518 575.935 516.549C544.821 541.125 520.532 564.734 505.393 597.891C495.432 619.707 471.248 633.656 449.692 623.144C324.706 562.187 83.766 416.779 38.804 374.219C37.1867 372.688 35.8753 370.957 34.9389 369.085C33.0676 365.839 32.3469 362.116 33.1656 358.243C33.2113 358.027 33.2589 357.809 33.3083 357.588L33.9055 357.905C34.549 355.157 35.4735 352.062 36.6581 348.654L36.0061 348.308C42.1483 330.398 55.6442 303.629 73.381 273.027L74.1439 273.395C75.7116 270.694 77.3122 267.963 78.9434 265.205L78.1762 264.835C89.4783 245.71 102.267 225.314 115.828 204.801L116.61 205.202C118.357 202.561 120.117 199.918 121.888 197.276L121.103 196.873C125.142 190.843 129.24 184.815 133.379 178.819L133.724 178.996L134.171 179.225C135.981 176.605 137.798 173.992 139.622 171.387C139.356 171.251 139.091 171.115 138.826 170.979Z" fill="#F5DBBD"/>
<path d="M175.107 121.449L188.693 95.7693L167.038 84.313L152.09 103.722L175.107 121.449ZM138.826 170.979L115.021 154.327L95.9286 181.621L125.564 196.827L138.826 170.979ZM175.919 121.878L162.333 147.558L183.977 159.008L198.927 139.616L175.919 121.878ZM181.817 114.296L204.667 132.237L226.126 104.907L195.426 88.6291L181.817 114.296ZM181.001 113.864L158.142 95.9348L136.709 123.262L167.392 139.531L181.001 113.864ZM238.895 48.6327L251.804 22.6064L233.846 13.6991L219.145 27.3274L238.895 48.6327ZM239.816 49.0895L226.892 75.1082L244.81 84.0085L259.515 70.4423L239.816 49.0895ZM247.478 42.3356L266.127 64.6113L300.119 36.1534L260.459 16.3452L247.478 42.3356ZM246.531 41.863L227.804 19.652L194.017 48.1385L233.566 67.8612L246.531 41.863ZM257.891 33.1906L241.692 9.0743L241.692 9.07432L257.891 33.1906ZM274.057 30.2656L265.998 58.1772L265.998 58.1772L274.057 30.2656ZM663.127 250.936L646.873 275.015L646.873 275.015L663.127 250.936ZM674.538 263.75L648.767 277.162L648.95 277.514L649.143 277.861L674.538 263.75ZM671.704 312.26L696.631 327.182L696.631 327.182L671.704 312.26ZM640.047 392.921L611.148 389.948L611.148 389.948L640.047 392.921ZM641.752 403.884L668.235 391.94L668.235 391.94L641.752 403.884ZM644.71 409.533L619.736 424.377L622.898 429.697L627.954 433.267L644.71 409.533ZM644.814 409.607L669.532 394.342L666.415 389.295L661.569 385.874L644.814 409.607ZM736.975 478.633L724.089 504.67L724.089 504.67L736.975 478.633ZM754.173 494.972L728.375 508.333L728.583 508.734L728.803 509.128L754.173 494.972ZM752.981 523.271L729.27 506.484L729.27 506.484L752.981 523.271ZM703.076 575.555L686.23 551.886L686.23 551.886L703.076 575.555ZM672.297 567.874L695.213 550.017L695.213 550.017L672.297 567.874ZM611.269 512.629L625.464 487.282L625.464 487.282L611.269 512.629ZM575.935 516.549L557.927 493.751L557.927 493.751L575.935 516.549ZM505.393 597.891L531.82 609.958L531.82 609.958L505.393 597.891ZM449.692 623.144L436.958 649.255L436.958 649.255L449.692 623.144ZM38.804 374.219L58.7754 353.121L58.7753 353.12L38.804 374.219ZM34.9389 369.085L60.9225 356.091L60.5379 355.322L60.1085 354.577L34.9389 369.085ZM33.1656 358.243L61.5892 364.252L61.5893 364.251L33.1656 358.243ZM33.3083 357.588L46.9502 331.938L13.2937 314.038L4.9594 351.236L33.3083 357.588ZM33.9055 357.905L20.2635 383.555L53.5877 401.279L62.1922 364.528L33.9055 357.905ZM36.6581 348.654L64.0993 358.192L72.2775 334.664L50.2738 322.99L36.6581 348.654ZM36.0061 348.308L8.52547 338.884L0.479123 362.346L22.3904 373.971L36.0061 348.308ZM73.381 273.027L86.0033 246.861L61.7493 235.161L48.2459 258.459L73.381 273.027ZM74.1439 273.395L61.5217 299.562L85.7625 311.255L99.2711 287.977L74.1439 273.395ZM78.9434 265.205L103.947 279.998L120.045 252.789L91.575 239.044L78.9434 265.205ZM78.1762 264.835L53.1653 250.055L37.0893 277.258L65.5446 290.997L78.1762 264.835ZM115.828 204.801L129.079 178.947L105.935 167.084L91.5927 188.78L115.828 204.801ZM116.61 205.202L103.358 231.055L126.494 242.914L140.839 221.231L116.61 205.202ZM121.888 197.276L146.02 213.452L164.193 186.341L135.158 171.432L121.888 197.276ZM121.103 196.873L96.9658 180.705L78.8083 207.813L107.833 222.717L121.103 196.873ZM133.379 178.819L146.611 152.956L123.937 141.355L109.47 162.316L133.379 178.819ZM133.724 178.996L146.969 153.139L146.963 153.136L146.956 153.132L133.724 178.996ZM134.171 179.225L120.926 205.081L143.597 216.695L158.075 195.737L134.171 179.225ZM139.622 171.387L163.421 188.048L182.513 160.776L152.907 145.551L139.622 171.387ZM152.09 103.722C139.71 119.797 127.211 136.9 115.021 154.327L162.632 187.631C174.376 170.842 186.349 154.464 198.124 139.175L152.09 103.722ZM189.504 96.1988L188.693 95.7693L161.521 147.128L162.333 147.558L189.504 96.1988ZM158.967 96.355C156.952 98.9215 154.933 101.518 152.911 104.14L198.927 139.616C200.847 137.125 202.761 134.665 204.667 132.237L158.967 96.355ZM167.392 139.531L168.208 139.963L195.426 88.6291L194.61 88.1966L167.392 139.531ZM219.145 27.3274C200.359 44.7427 179.246 69.027 158.142 95.9348L203.861 131.793C224.172 105.896 243.116 84.3346 258.646 69.9379L219.145 27.3274ZM252.74 23.0708C252.428 22.9159 252.116 22.7611 251.804 22.6064L225.986 74.6589C226.289 74.8089 226.59 74.9586 226.892 75.1082L252.74 23.0708ZM228.828 20.0599C225.947 22.4722 223.039 25.0401 220.116 27.7367L259.515 70.4423C261.841 68.296 264.047 66.3527 266.127 64.6113L228.828 20.0599ZM233.566 67.8612C233.876 68.0161 234.187 68.1711 234.497 68.326L260.459 16.3452C260.138 16.1852 259.817 16.025 259.496 15.8648L233.566 67.8612ZM241.692 9.07432C237.05 12.1926 232.402 15.7762 227.804 19.652L265.257 64.074C268.643 61.2194 271.59 58.9864 274.09 57.3068L241.692 9.07432ZM282.115 2.35404C266.829 -2.05948 252.401 1.88102 241.692 9.0743L274.09 57.3068C273.692 57.5746 272.729 58.1172 271.185 58.4149C269.556 58.7289 267.726 58.6763 265.998 58.1772L282.115 2.35404ZM679.38 226.856C631.978 194.86 548.349 143.438 469.561 98.0172C430.118 75.2783 391.61 53.8819 359.225 37.0698C327.745 20.7278 299.612 7.4057 282.115 2.35404L265.998 58.1772C277.067 61.3733 300.195 71.8919 332.454 88.6385C363.807 104.915 401.513 125.855 440.542 148.355C518.698 193.412 601.038 244.077 646.873 275.015L679.38 226.856ZM700.308 250.338C695.577 241.247 688.62 233.093 679.38 226.856L646.873 275.015C647.333 275.326 647.675 275.639 647.949 275.95C648.228 276.266 648.505 276.657 648.767 277.162L700.308 250.338ZM696.631 327.182C709.687 305.373 713.917 274.807 699.932 249.639L649.143 277.861C650.92 281.058 651.642 289.213 646.778 297.338L696.631 327.182ZM668.946 395.894C670.538 380.424 682.013 351.602 696.631 327.182L646.778 297.338C630.603 324.358 614.033 361.898 611.148 389.948L668.946 395.894ZM668.235 391.94C668.943 393.508 669.046 394.928 668.946 395.894L611.148 389.948C610.276 398.421 611.46 407.381 615.27 415.828L668.235 391.94ZM669.683 394.69C669.071 393.661 668.598 392.743 668.235 391.94L615.27 415.828C616.611 418.802 618.117 421.653 619.736 424.377L669.683 394.69ZM661.569 385.874L661.465 385.8L627.954 433.267L628.058 433.34L661.569 385.874ZM749.861 452.595C735.241 445.36 717.847 435.757 702.372 424.97C686.309 413.773 674.928 403.08 669.532 394.342L620.095 424.872C631.833 443.878 651.119 460.07 669.146 472.636C687.761 485.611 707.881 496.649 724.089 504.67L749.861 452.595ZM779.97 481.611C773.375 468.878 762.48 458.84 749.861 452.595L724.089 504.67C726.738 505.981 728.017 507.641 728.375 508.333L779.97 481.611ZM776.692 540.058C790.521 520.524 789.116 497.972 779.542 480.815L728.803 509.128C729.056 509.582 728.782 509.321 728.801 508.384C728.81 507.924 728.892 507.454 729.031 507.036C729.17 506.618 729.306 506.434 729.27 506.484L776.692 540.058ZM719.922 599.224C739.74 585.119 761.822 561.061 776.692 540.058L729.27 506.484C716.915 523.936 699.209 542.648 686.23 551.886L719.922 599.224ZM649.381 585.731C656.219 594.506 666.107 602.526 678.545 606.175C691.828 610.073 706.894 608.496 719.922 599.224L686.23 551.886C687.19 551.203 688.702 550.483 690.604 550.194C692.444 549.914 693.951 550.143 694.903 550.422C696.536 550.901 696.26 551.361 695.213 550.017L649.381 585.731ZM597.073 537.977C619.805 550.707 637.439 570.406 649.382 585.732L695.213 550.017C681.694 532.669 658.341 505.694 625.464 487.282L597.073 537.977ZM593.942 539.346C595.071 538.454 596.144 538.11 596.772 538.032C597.289 537.967 597.266 538.085 597.073 537.977L625.464 487.282C602.127 474.212 575.618 479.778 557.927 493.751L593.942 539.346ZM531.82 609.958C544.06 583.15 563.963 563.026 593.942 539.346L557.927 493.751C525.679 519.223 497.004 546.318 478.965 585.825L531.82 609.958ZM436.958 649.255C478.458 669.495 517.787 640.691 531.82 609.958L478.966 585.825C476.578 591.053 472.645 594.816 469.092 596.56C465.961 598.097 464.019 597.808 462.427 597.032L436.958 649.255ZM18.8325 395.317C32.1346 407.909 57.649 426.253 88.2858 446.671C119.605 467.544 158.223 491.849 199.201 516.64C281.008 566.13 373.334 618.226 436.958 649.255L462.427 597.032C401.064 567.105 310.427 516.019 229.277 466.926C188.777 442.425 150.917 418.588 120.509 398.322C89.4182 377.601 67.9543 361.809 58.7754 353.121L18.8325 395.317ZM8.95529 382.08C11.5423 387.253 14.9824 391.673 18.8326 395.318L58.7753 353.12C59.391 353.703 60.2082 354.662 60.9225 356.091L8.95529 382.08ZM4.74207 352.234C2.33845 363.604 4.58045 374.592 9.76926 383.593L60.1085 354.577C61.5547 357.086 62.3554 360.627 61.5892 364.252L4.74207 352.234ZM4.9594 351.236C4.88515 351.568 4.81263 351.9 4.74202 352.234L61.5893 364.251C61.61 364.153 61.6326 364.049 61.6572 363.939L4.9594 351.236ZM47.5474 332.256L46.9502 331.938L19.6664 383.237L20.2635 383.555L47.5474 332.256ZM9.21686 339.115C7.79772 343.198 6.55232 347.295 5.6187 351.283L62.1922 364.528C62.5457 363.019 63.1492 360.926 64.0993 358.192L9.21686 339.115ZM22.3904 373.971L23.0423 374.317L50.2738 322.99L49.6219 322.644L22.3904 373.971ZM48.2459 258.459C30.3569 289.324 15.6399 318.138 8.52547 338.884L63.4868 357.732C68.6566 342.657 80.9315 317.935 98.5161 287.595L48.2459 258.459ZM86.7662 247.229L86.0033 246.861L60.7588 299.194L61.5217 299.562L86.7662 247.229ZM53.9398 250.413C52.2683 253.238 50.6265 256.039 49.0167 258.813L99.2711 287.977C100.797 285.348 102.356 282.687 103.947 279.998L53.9398 250.413ZM65.5446 290.997L66.3118 291.367L91.575 239.044L90.8078 238.673L65.5446 290.997ZM91.5927 188.78C77.7891 209.66 64.7387 230.471 53.1653 250.055L103.187 279.615C114.218 260.949 126.745 240.968 140.063 220.822L91.5927 188.78ZM129.862 179.348L129.079 178.947L102.576 230.654L103.358 231.055L129.862 179.348ZM97.7565 181.1C95.9528 183.79 94.1603 186.482 92.3807 189.172L140.839 221.231C142.554 218.639 144.281 216.045 146.02 213.452L97.7565 181.1ZM107.833 222.717L108.618 223.12L135.158 171.432L134.373 171.029L107.833 222.717ZM109.47 162.316C105.253 168.424 101.079 174.564 96.9658 180.705L145.24 213.04C149.205 207.121 153.227 201.206 157.288 195.322L109.47 162.316ZM146.956 153.132L146.611 152.956L120.146 204.682L120.491 204.859L146.956 153.132ZM147.417 153.369L146.969 153.139L120.478 204.852L120.926 205.081L147.417 153.369ZM115.822 154.727C113.964 157.381 112.112 160.044 110.268 162.713L158.075 195.737C159.85 193.167 161.633 190.603 163.421 188.048L115.822 154.727ZM125.564 196.827C125.821 196.959 126.078 197.091 126.336 197.223L152.907 145.551C152.635 145.411 152.362 145.271 152.089 145.131L125.564 196.827Z" fill="white" mask="url(#path-1-outside-1_108_7684)"/>
<path d="M659.876 295.703C644.479 321.422 630.457 354.604 628.219 376.363C627.833 380.117 628.373 383.887 629.924 387.326C643.53 417.494 692.355 446.487 725.617 462.949C742.998 471.55 752.358 490.885 741.153 506.714C727.54 525.941 707.646 547.326 691.248 558.997C680.796 566.436 668.354 561.436 660.469 551.317C647.738 534.98 627.245 511.643 599.44 496.072C588.136 489.741 574.273 491.96 564.106 499.991C532.993 524.567 508.704 548.176 493.564 581.334C483.603 603.15 459.42 617.099 437.864 606.586C312.877 545.63 71.9377 400.222 26.9756 357.661C22.7381 353.65 20.6003 348.267 21.8071 342.559C33.9336 285.195 179.775 62.3478 246.533 17.5065C251.41 14.2302 257.053 12.9516 262.698 14.5815C319.829 31.0769 558.531 172.317 651.768 235.252C670.966 248.21 671.773 275.83 659.876 295.703Z" fill="#EBA252"/>
<path fill-rule="evenodd" clip-rule="evenodd" d="M163.276 104.89C151.199 120.572 138.963 137.312 126.996 154.421C241.913 213.385 387.901 317.008 485.912 393.988C487.967 395.602 488.324 398.576 486.71 400.631C485.097 402.685 482.122 403.043 480.068 401.429C381.814 324.259 235.745 220.662 121.548 162.261C117.41 168.256 113.312 174.284 109.273 180.314C185.637 219.497 242.403 256.922 325.056 321.839C327.111 323.453 327.469 326.427 325.855 328.482C324.241 330.537 321.267 330.894 319.212 329.28C236.713 264.484 180.313 227.33 103.997 188.242C90.4361 208.756 77.6473 229.152 66.3449 248.277C164.155 295.479 225.292 333.793 321.509 409.364C323.564 410.978 323.921 413.952 322.307 416.007C320.693 418.062 317.719 418.419 315.664 416.805C219.786 341.501 159.157 303.531 61.5498 256.469C43.813 287.071 30.3171 313.84 24.1749 331.75C86.7863 364.951 174.04 415.804 260.317 468.694C337.249 515.856 413.608 564.763 471.217 604.369C476.582 601.453 481.481 597.364 485.569 592.442C400.131 514.147 341.603 472.934 238.192 413.147C235.93 411.839 235.156 408.945 236.464 406.683C237.772 404.421 240.666 403.647 242.928 404.955C346.516 464.845 405.536 506.363 490.992 584.578C491.748 583.241 492.449 581.867 493.092 580.46C500.695 563.808 510.606 549.564 522.531 536.396C458.043 506.164 405.257 474.273 333.665 425.515C331.505 424.044 330.947 421.101 332.418 418.941C333.888 416.781 336.831 416.223 338.991 417.694C411.225 466.889 464.078 498.75 529.387 529.156C536.964 521.489 545.242 514.118 554.158 506.759C503.487 474.121 453.584 448.059 385.189 416.19C382.82 415.086 381.795 412.272 382.899 409.903C384.002 407.535 386.817 406.51 389.185 407.613C459.137 440.207 509.949 466.821 561.897 500.494C562.473 500.036 563.052 499.577 563.634 499.118C573.801 491.087 587.663 488.867 598.967 495.198C626.772 510.77 647.265 534.106 659.996 550.443C667.881 560.562 680.323 565.563 690.775 558.124C696.665 553.932 703.006 548.487 709.345 542.338C647.214 501.543 584.935 464.579 531.852 439.845C529.483 438.742 528.458 435.927 529.562 433.559C530.665 431.19 533.48 430.165 535.848 431.268C578.364 451.078 626.633 478.608 675.968 509.629C682.191 501.005 697.598 485.503 699.438 486.417C708.179 492.599 710.082 511.255 702.986 514.804C699.87 517.296 695.428 518.618 690.026 518.543C698.72 524.102 707.433 529.755 716.139 535.481C722.98 528.311 729.625 520.541 735.489 512.882C631.672 434.369 494.823 340.96 392.285 293.182C389.917 292.079 388.892 289.264 389.995 286.896C391.099 284.527 393.913 283.502 396.282 284.605C499.662 332.775 637.065 426.59 741.086 505.251C751.653 489.535 742.31 470.571 725.144 462.075C694.314 446.818 650.114 420.793 632.981 393.047C574.07 351.454 487.96 295.974 400.851 242.573C313.624 189.1 225.657 137.873 163.276 104.89ZM460.422 608.439C403.756 569.698 329.93 522.468 255.372 476.761C169.847 424.332 83.6097 374.061 21.477 341.03C21.4276 341.251 21.38 341.469 21.3343 341.685C20.1275 347.394 22.2653 352.777 26.5028 356.788C71.4649 399.348 312.404 544.756 437.391 605.713C444.988 609.417 452.91 610.084 460.422 608.439ZM169.171 97.3054C231.816 130.501 319.297 181.479 405.797 234.506C487.701 284.716 568.956 336.904 627.626 377.74C627.628 376.991 627.669 376.24 627.746 375.49C628.276 370.34 629.465 364.551 631.177 358.372C545.67 280.001 487.135 238.777 383.673 178.96C381.411 177.652 380.637 174.758 381.945 172.496C383.253 170.234 386.147 169.46 388.409 170.768C491.106 230.143 549.999 271.461 634.275 348.382C639.965 331.681 648.609 313.283 657.883 297.4C597.893 268.559 546.954 237.509 479.144 191.326C476.985 189.856 476.426 186.913 477.897 184.753C479.368 182.593 482.311 182.035 484.471 183.506C552.055 229.534 602.673 260.388 662.401 289.073C670.989 269.922 668.699 246.126 651.295 234.378C558.058 171.443 319.356 30.2034 262.225 13.708C256.58 12.0781 250.937 13.3566 246.06 16.633C242.489 19.0317 238.691 21.9398 234.7 25.3048C319.673 67.6803 378.492 105.67 466.988 175.176C469.043 176.79 469.401 179.764 467.787 181.819C466.173 183.874 463.199 184.231 461.144 182.617C371.996 112.599 313.323 74.8582 227.065 32.0744C209.907 47.9802 189.878 70.903 169.171 97.3054ZM302.518 121.206C303.684 118.868 306.524 117.917 308.863 119.082C312.699 120.994 331.033 132.425 346.699 142.38C354.616 147.412 361.997 152.16 366.743 155.287C369.073 156.823 370.884 158.044 371.782 158.71C371.973 158.851 372.306 159.101 372.597 159.373C372.68 159.45 372.829 159.594 372.994 159.784L373.002 159.794C373.097 159.903 373.554 160.429 373.857 161.231C374.016 161.652 374.339 162.674 374.048 163.959C373.695 165.52 372.643 166.613 371.514 167.167C370.591 167.621 369.766 167.653 369.423 167.653C369.017 167.654 368.694 167.602 368.515 167.568C367.953 167.461 367.503 167.264 367.408 167.223L367.397 167.218C367.22 167.142 367.053 167.061 366.919 166.993C366.644 166.855 366.319 166.681 365.965 166.484C365.331 166.133 364.81 165.658 364.415 165.106C363.652 164.59 362.688 163.947 361.536 163.188C356.856 160.103 349.527 155.388 341.624 150.366C325.65 140.215 307.908 129.178 304.643 127.551C302.304 126.385 301.353 123.545 302.518 121.206ZM163.383 353.269C161.045 352.103 158.204 353.054 157.039 355.393C155.873 357.732 156.824 360.572 159.163 361.738C162.429 363.365 180.171 374.402 196.145 384.553C204.047 389.575 211.377 394.29 216.056 397.374C217.208 398.134 218.173 398.777 218.935 399.292C219.331 399.844 219.852 400.319 220.485 400.671C220.84 400.867 221.164 401.042 221.439 401.18C221.574 401.248 221.741 401.329 221.918 401.405L221.929 401.41C222.023 401.451 222.474 401.647 223.035 401.755C223.214 401.789 223.537 401.841 223.943 401.84C224.286 401.84 225.111 401.807 226.035 401.354C227.163 400.8 228.215 399.706 228.568 398.146C228.859 396.861 228.537 395.838 228.378 395.417C228.074 394.616 227.618 394.09 227.522 393.981L227.514 393.971C227.35 393.78 227.2 393.637 227.117 393.56C226.826 393.287 226.494 393.038 226.303 392.897C225.404 392.23 223.594 391.01 221.263 389.474C216.518 386.346 209.137 381.598 201.22 376.567C185.554 366.611 167.219 355.18 163.383 353.269Z" fill="#FFB96C"/>
<path d="M515.291 273.202C609.912 334.706 465.615 564.163 343.79 458.897C331.96 410.405 419.487 249.548 515.291 273.202Z" fill="#F4CA9E" stroke="#F5DBBD" stroke-width="9.46213" stroke-linecap="round"/>
<path d="M511.85 345.358C516.286 339.286 510.447 332.092 515.398 326.433C522.421 318.408 526.558 347.605 517.764 353.637C512.05 357.556 499.956 360.565 500.022 353.637C500.076 347.999 508.524 349.91 511.85 345.358Z" stroke="#E5BA8F" stroke-width="9.46213" stroke-linecap="round"/>
<path d="M425.508 362.119C429.944 356.048 424.105 348.854 429.056 343.195C436.079 335.17 440.216 364.367 431.422 370.399C425.708 374.318 413.614 377.327 413.68 370.399C413.734 364.761 422.182 366.672 425.508 362.119Z" stroke="#E5BA8F" stroke-width="9.46213" stroke-linecap="round"/>
<path d="M389.082 406.784C391.39 403.625 388.351 399.882 390.928 396.937C394.582 392.761 396.735 407.954 392.159 411.092C389.186 413.131 382.893 414.697 382.927 411.092C382.955 408.159 387.351 409.153 389.082 406.784Z" stroke="#E5BA8F" stroke-width="4.92349" stroke-linecap="round"/>
<path d="M444.432 433.085C448.868 427.013 443.029 419.819 447.98 414.16C455.003 406.135 459.14 435.332 450.346 441.364C444.632 445.283 432.539 448.292 432.605 441.364C432.658 435.726 441.106 437.637 444.432 433.085Z" stroke="#E5BA8F" stroke-width="9.46213" stroke-linecap="round"/>
<path d="M464.236 316.544C468.741 322.564 477.331 319.089 481.29 325.482C486.905 334.548 457.777 329.948 454.587 319.772C452.515 313.161 453.181 300.716 459.786 302.809C465.161 304.513 460.858 312.03 464.236 316.544Z" stroke="#E5BA8F" stroke-width="9.46213" stroke-linecap="round"/>
<path d="M441.96 232.988C536.581 294.492 392.283 523.949 270.458 418.683C258.629 370.191 346.155 209.334 441.96 232.988Z" fill="#F4CA9E" stroke="#F5DBBD" stroke-width="9.46213" stroke-linecap="round"/>
<path d="M438.518 305.144C442.954 299.072 437.115 291.878 442.067 286.219C449.089 278.194 453.226 307.391 444.432 313.423C438.719 317.342 426.625 320.351 426.691 313.423C426.744 307.785 435.192 309.696 438.518 305.144Z" stroke="#E5BA8F" stroke-width="9.46213" stroke-linecap="round"/>
<path d="M352.177 321.905C356.612 315.834 350.773 308.64 355.725 302.981C362.747 294.956 366.884 324.153 358.09 330.185C352.377 334.104 340.283 337.113 340.349 330.185C340.403 324.547 348.85 326.458 352.177 321.905Z" stroke="#E5BA8F" stroke-width="9.46213" stroke-linecap="round"/>
<path d="M315.75 366.57C318.058 363.411 315.02 359.668 317.596 356.723C321.25 352.548 323.403 367.74 318.827 370.878C315.854 372.918 309.561 374.483 309.596 370.878C309.624 367.945 314.019 368.939 315.75 366.57Z" stroke="#E5BA8F" stroke-width="4.92349" stroke-linecap="round"/>
<path d="M371.101 392.871C375.536 386.799 369.697 379.605 374.649 373.946C381.671 365.921 385.808 395.118 377.014 401.15C371.301 405.069 359.207 408.078 359.273 401.15C359.327 395.512 367.775 397.423 371.101 392.871Z" stroke="#E5BA8F" stroke-width="9.46213" stroke-linecap="round"/>
<path d="M390.905 276.33C395.41 282.35 403.999 278.876 407.958 285.268C413.574 294.334 384.446 289.734 381.256 279.558C379.183 272.947 379.85 260.502 386.454 262.596C391.829 264.299 387.526 271.816 390.905 276.33Z" stroke="#E5BA8F" stroke-width="9.46213" stroke-linecap="round"/>
<path d="M413.574 176.215C508.195 237.719 363.898 467.176 242.073 361.909C230.243 313.417 317.77 152.561 413.574 176.215Z" fill="#F4CA9E" stroke="#F5DBBD" stroke-width="9.46213" stroke-linecap="round"/>
<path d="M410.133 248.37C414.569 242.299 408.73 235.105 413.681 229.446C420.704 221.421 424.841 250.618 416.047 256.65C410.333 260.569 398.239 263.578 398.305 256.65C398.359 251.012 406.807 252.923 410.133 248.37Z" stroke="#E5BA8F" stroke-width="9.46213" stroke-linecap="round"/>
<path d="M323.791 265.132C328.227 259.061 322.388 251.866 327.339 246.208C334.362 238.183 338.499 267.38 329.705 273.411C323.991 277.33 311.897 280.339 311.963 273.411C312.017 267.773 320.465 269.685 323.791 265.132Z" stroke="#E5BA8F" stroke-width="9.46213" stroke-linecap="round"/>
<path d="M287.365 309.797C289.673 306.638 286.634 302.894 289.211 299.95C292.865 295.774 295.018 310.966 290.442 314.105C287.469 316.144 281.176 317.71 281.21 314.105C281.238 311.171 285.634 312.166 287.365 309.797Z" stroke="#E5BA8F" stroke-width="4.92349" stroke-linecap="round"/>
<path d="M342.715 336.097C347.151 330.026 341.312 322.832 346.263 317.173C353.286 309.148 357.423 338.345 348.629 344.377C342.915 348.296 330.822 351.305 330.888 344.377C330.941 338.739 339.389 340.65 342.715 336.097Z" stroke="#E5BA8F" stroke-width="9.46213" stroke-linecap="round"/>
<path d="M362.519 219.557C367.024 225.577 375.614 222.102 379.573 228.495C385.188 237.56 356.06 232.96 352.87 222.785C350.798 216.174 351.464 203.729 358.069 205.822C363.444 207.526 359.141 215.043 362.519 219.557Z" stroke="#E5BA8F" stroke-width="9.46213" stroke-linecap="round"/>
<path d="M417.694 158.293C346.978 258.459 304.407 307.099 211.892 396.029C-2.18667 276.567 197.7 -36.8648 417.694 158.293Z" fill="#D99C71"/>
<path fill-rule="evenodd" clip-rule="evenodd" d="M227.533 103.489C175.012 121.058 136.636 166.653 124.455 218.78C125.475 218.252 126.538 217.715 127.646 217.168C196.01 181.491 233.893 187.688 300.691 243.889C285.004 185.344 268.008 153.049 227.533 103.489ZM120.355 255.714C120.899 306.809 147.39 359.304 210.038 394.988C191.809 302.26 203.034 268.909 300.691 278.243C229.752 221.569 189.985 217.216 120.355 255.714ZM306.137 297.302C279.874 326.105 254.341 353.233 236.408 371.777C225.134 328.442 241.198 309.352 306.137 297.302ZM337.186 262.803C380.2 214.312 417.686 168.762 417.686 158.293C364.118 110.773 311.743 93.4074 266.245 96.0535C312.856 153.759 329.162 196.192 337.186 262.803Z" fill="#F5DBBD"/>
</svg>
