<svg width="482" height="694" viewBox="0 0 482 694" fill="none" xmlns="http://www.w3.org/2000/svg">
<mask id="path-1-outside-1_108_7948" maskUnits="userSpaceOnUse" x="-0.522461" y="-0.384277" width="482" height="695" fill="black">
<rect fill="white" x="-0.522461" y="-0.384277" width="482" height="695"/>
<path fill-rule="evenodd" clip-rule="evenodd" d="M209.078 77.2429C213.512 77.5116 217.605 77.923 221.363 78.4531C242.312 53.8689 274.934 24.018 303.144 29.5871C318.559 33.9655 314.419 129.806 298.336 172.771C303.952 194.446 306.07 220.918 304.351 251.364C324.067 230.013 335.566 253.01 310.922 269.433C328.209 278.863 324.453 294.301 306.841 288.438C305.819 291.61 303.881 295.257 301.604 298.451C290.546 333.442 261.749 348.99 227.214 351.965V357.825C234.423 358.138 238.934 365.107 237.11 372.674C254.149 378.553 293.926 397.795 350.951 428.072C356.711 408.613 364.512 389.178 373.012 368.001L373.012 368C377.95 355.697 383.124 342.805 388.271 328.98C372.562 288.359 407.195 238.121 442.423 268.195C469.641 297.68 468.477 323.525 436.242 354.752C434.075 367.9 432.292 380.411 430.59 392.35C423.79 440.045 418.292 478.611 394.889 512.197C385.943 529.176 373.5 542.818 359.356 540.048C359.157 540 358.958 539.95 358.76 539.901C355.859 539.599 351.545 538.297 346.162 536.077C318.879 526.31 294.583 507.79 262.644 480.841C269.94 521.613 273.439 565.193 275.343 624.915L274.405 624.997L274.415 625.524H268.338C202.097 631.211 161.496 632.427 93.4075 626.436C93.2372 614.978 93.1222 604.073 93.0694 593.6C93.0027 593.789 92.9346 593.982 92.8651 594.179C91.3067 598.591 89.0429 605 86.3719 621.593C102.712 647.322 85.8169 686.539 57.5255 670.719C34.8117 654.208 32.0736 636.311 49.9239 610.47C49.3608 593.664 47.5455 581.582 46.1723 572.442L46.1722 572.441L46.1717 572.438L46.1713 572.435C45.8512 570.305 45.5551 568.334 45.3046 566.501C43.2476 564.77 41.8673 562.999 41.3824 561.329C36.5516 512.417 60.5277 409.594 106.685 370.864C105.743 365.711 110.576 358.178 113.636 357.807V327.838C89.4027 316.352 68.7658 302.032 56.3113 287.502C31.6748 299.004 20.1763 280.935 38.2421 257.934C8.67774 244.797 16.8872 223.442 43.1701 230.009C39.8902 220.157 44.8181 205.373 53.026 185.658C13.6078 65.7394 23.4637 -57.451 154.87 80.5282C194.299 14.8165 263.291 44.3842 209.078 77.2429Z"/>
</mask>
<path fill-rule="evenodd" clip-rule="evenodd" d="M209.078 77.2429C213.512 77.5116 217.605 77.923 221.363 78.4531C242.312 53.8689 274.934 24.018 303.144 29.5871C318.559 33.9655 314.419 129.806 298.336 172.771C303.952 194.446 306.07 220.918 304.351 251.364C324.067 230.013 335.566 253.01 310.922 269.433C328.209 278.863 324.453 294.301 306.841 288.438C305.819 291.61 303.881 295.257 301.604 298.451C290.546 333.442 261.749 348.99 227.214 351.965V357.825C234.423 358.138 238.934 365.107 237.11 372.674C254.149 378.553 293.926 397.795 350.951 428.072C356.711 408.613 364.512 389.178 373.012 368.001L373.012 368C377.95 355.697 383.124 342.805 388.271 328.98C372.562 288.359 407.195 238.121 442.423 268.195C469.641 297.68 468.477 323.525 436.242 354.752C434.075 367.9 432.292 380.411 430.59 392.35C423.79 440.045 418.292 478.611 394.889 512.197C385.943 529.176 373.5 542.818 359.356 540.048C359.157 540 358.958 539.95 358.76 539.901C355.859 539.599 351.545 538.297 346.162 536.077C318.879 526.31 294.583 507.79 262.644 480.841C269.94 521.613 273.439 565.193 275.343 624.915L274.405 624.997L274.415 625.524H268.338C202.097 631.211 161.496 632.427 93.4075 626.436C93.2372 614.978 93.1222 604.073 93.0694 593.6C93.0027 593.789 92.9346 593.982 92.8651 594.179C91.3067 598.591 89.0429 605 86.3719 621.593C102.712 647.322 85.8169 686.539 57.5255 670.719C34.8117 654.208 32.0736 636.311 49.9239 610.47C49.3608 593.664 47.5455 581.582 46.1723 572.442L46.1722 572.441L46.1717 572.438L46.1713 572.435C45.8512 570.305 45.5551 568.334 45.3046 566.501C43.2476 564.77 41.8673 562.999 41.3824 561.329C36.5516 512.417 60.5277 409.594 106.685 370.864C105.743 365.711 110.576 358.178 113.636 357.807V327.838C89.4027 316.352 68.7658 302.032 56.3113 287.502C31.6748 299.004 20.1763 280.935 38.2421 257.934C8.67774 244.797 16.8872 223.442 43.1701 230.009C39.8902 220.157 44.8181 205.373 53.026 185.658C13.6078 65.7394 23.4637 -57.451 154.87 80.5282C194.299 14.8165 263.291 44.3842 209.078 77.2429Z" fill="#CD9434"/>
<path d="M221.363 78.4531L218.643 97.7336L229.241 99.2284L236.183 91.0822L221.363 78.4531ZM209.078 77.2429L198.985 60.5913L145.668 92.9073L207.9 96.6786L209.078 77.2429ZM303.144 29.5871L308.463 10.8566L307.697 10.6388L306.915 10.4844L303.144 29.5871ZM298.336 172.771L280.1 165.945L277.944 171.704L279.487 177.656L298.336 172.771ZM304.351 251.364L284.911 250.266L281.853 304.429L318.657 264.574L304.351 251.364ZM310.922 269.433L300.124 253.23L273.314 271.097L301.597 286.526L310.922 269.433ZM306.841 288.438L312.992 269.963L294.341 263.753L288.309 282.463L306.841 288.438ZM301.604 298.451L285.747 287.152L283.964 289.654L283.038 292.584L301.604 298.451ZM227.214 351.965L225.543 332.566L207.743 334.099V351.965H227.214ZM227.214 357.825H207.743V376.471L226.37 377.278L227.214 357.825ZM237.11 372.674L218.181 368.112L214.036 385.311L230.759 391.081L237.11 372.674ZM350.951 428.072L341.82 445.269L362.859 456.44L369.621 433.599L350.951 428.072ZM373.012 368.001L391.082 375.254L391.165 375.047L391.243 374.838L373.012 368.001ZM373.012 368L354.942 360.748L354.859 360.955L354.78 361.163L373.012 368ZM388.271 328.98L406.519 335.773L409.097 328.848L406.432 321.956L388.271 328.98ZM442.423 268.195L456.73 254.988L455.945 254.138L455.065 253.386L442.423 268.195ZM436.242 354.752L422.694 340.767L418.075 345.241L417.029 351.586L436.242 354.752ZM430.59 392.35L449.866 395.098L449.866 395.098L430.59 392.35ZM394.889 512.197L378.913 501.066L378.224 502.055L377.662 503.121L394.889 512.197ZM359.356 540.048L354.715 558.959L355.162 559.068L355.614 559.157L359.356 540.048ZM358.76 539.901L363.487 521.012L362.149 520.677L360.777 520.534L358.76 539.901ZM346.162 536.077L353.587 518.076L353.16 517.9L352.725 517.745L346.162 536.077ZM262.644 480.841L275.201 465.959L233.976 431.176L243.477 484.271L262.644 480.841ZM275.343 624.915L277.048 644.312L295.392 642.699L294.805 624.294L275.343 624.915ZM274.405 624.997L272.7 605.601L254.591 607.192L254.937 625.368L274.405 624.997ZM274.415 625.524V644.996H294.261L293.883 625.153L274.415 625.524ZM268.338 625.524V606.053H267.504L266.673 606.124L268.338 625.524ZM93.4075 626.436L73.9383 626.726L74.1995 644.293L91.7008 645.833L93.4075 626.436ZM93.0694 593.6L112.54 593.501L74.7009 587.139L93.0694 593.6ZM92.8651 594.179L74.5055 587.693L74.5052 587.694L92.8651 594.179ZM86.3719 621.593L67.148 618.499L65.9737 625.794L69.9352 632.032L86.3719 621.593ZM57.5255 670.719L46.0768 686.469L47.0127 687.149L48.0225 687.714L57.5255 670.719ZM49.9239 610.47L65.9446 621.537L69.5997 616.245L69.3843 609.818L49.9239 610.47ZM46.1723 572.442L26.912 575.301L26.9145 575.318L26.9171 575.335L46.1723 572.442ZM46.1722 572.441L65.4325 569.583L65.4289 569.558L65.4252 569.533L46.1722 572.441ZM46.1717 572.438L65.4247 569.53L65.4203 569.501L65.4157 569.471L46.1717 572.438ZM46.1713 572.435L26.916 575.328L26.9216 575.365L26.9273 575.402L46.1713 572.435ZM45.3046 566.501L64.5966 563.864L63.5808 556.431L57.8397 551.601L45.3046 566.501ZM41.3824 561.329L22.0053 563.243L22.182 565.032L22.6832 566.758L41.3824 561.329ZM106.685 370.864L119.201 385.78L127.875 378.502L125.839 367.364L106.685 370.864ZM113.636 357.807L115.982 377.136L133.107 375.058V357.807H113.636ZM113.636 327.838H133.107V315.518L121.975 310.242L113.636 327.838ZM56.3113 287.502L71.0949 274.83L61.4721 263.604L48.0741 269.859L56.3113 287.502ZM38.2421 257.934L53.5548 269.962L69.0014 250.296L46.1491 240.141L38.2421 257.934ZM43.1701 230.009L38.4501 248.9L72.8415 257.493L61.6446 223.859L43.1701 230.009ZM53.026 185.658L71.0018 193.142L73.7849 186.457L71.5237 179.577L53.026 185.658ZM154.87 80.5282L140.77 93.9566L158.408 112.477L171.567 90.5465L154.87 80.5282ZM224.082 59.1725C219.771 58.5646 215.162 58.1045 210.256 57.8072L207.9 96.6786C211.861 96.9186 215.438 97.2815 218.643 97.7336L224.082 59.1725ZM306.915 10.4844C284.993 6.15677 264.189 15.8717 248.493 26.6717C232.221 37.8683 217.564 52.8905 206.542 65.824L236.183 91.0822C246.111 79.4315 258.24 67.2362 270.568 58.7536C283.472 49.8743 293.084 47.4483 299.372 48.6898L306.915 10.4844ZM316.571 179.597C325.664 155.306 330.856 118.234 332.009 87.4377C332.591 71.894 332.193 56.8334 330.417 44.8993C329.546 39.0446 328.201 32.9196 325.936 27.6029C324.139 23.3831 319.39 13.96 308.463 10.8566L297.824 48.3176C290.751 46.3088 289.245 40.8385 290.109 42.8659C290.506 43.7964 291.241 46.2129 291.898 50.6304C293.179 59.2405 293.631 71.6463 293.094 85.9808C292.01 114.94 287.09 147.271 280.1 165.945L316.571 179.597ZM323.792 252.461C325.591 220.6 323.438 192.018 317.184 167.887L279.487 177.656C284.467 196.874 286.55 221.235 284.911 250.266L323.792 252.461ZM321.72 285.636C330.127 280.034 336.585 273.126 340.457 265.432C344.077 258.24 346.379 248.13 342.094 238.391C339.838 233.264 335.841 228.686 330.208 225.906C324.674 223.176 318.891 222.824 313.894 223.675C304.41 225.289 296.37 231.306 290.046 238.154L318.657 264.574C322.191 260.747 322.982 261.631 320.429 262.066C318.897 262.326 316.105 262.373 312.977 260.83C309.75 259.238 307.576 256.635 306.449 254.075C304.423 249.469 306.211 246.854 305.672 247.925C305.385 248.496 304.039 250.621 300.124 253.23L321.72 285.636ZM300.69 306.912C307.386 309.141 315.258 310.229 322.951 307.913C331.359 305.383 338.72 298.813 340.955 288.99C342.986 280.063 339.999 271.971 336.211 266.339C332.3 260.524 326.679 255.849 320.247 252.34L301.597 286.526C303.808 287.732 304.2 288.523 303.897 288.072C303.716 287.803 301.931 284.973 302.982 280.351C303.525 277.966 304.75 275.65 306.592 273.789C308.394 271.969 310.319 271.047 311.728 270.623C314.304 269.847 315.103 270.666 312.992 269.963L300.69 306.912ZM317.462 309.751C320.605 305.34 323.6 299.913 325.374 294.412L288.309 282.463C288.037 283.307 287.156 285.174 285.747 287.152L317.462 309.751ZM228.885 371.365C268.444 367.957 305.986 349.203 320.171 304.319L283.038 292.584C275.107 317.68 255.054 330.024 225.543 332.566L228.885 371.365ZM246.685 357.825V351.965H207.743V357.825H246.685ZM256.039 377.236C260.127 360.276 249.969 339.322 228.057 338.372L226.37 377.278C223.459 377.152 220.783 375.503 219.301 373.258C217.928 371.18 217.915 369.216 218.181 368.112L256.039 377.236ZM360.082 410.874C303.393 380.776 262.214 360.738 243.461 354.268L230.759 391.081C246.085 396.369 284.459 414.814 341.82 445.269L360.082 410.874ZM354.941 360.748C346.514 381.744 338.348 402.05 332.28 422.544L369.621 433.599C375.075 415.176 382.51 396.611 391.082 375.254L354.941 360.748ZM354.78 361.163L354.78 361.164L391.243 374.838L391.244 374.837L354.78 361.163ZM370.024 322.186C364.975 335.747 359.89 348.419 354.942 360.748L391.082 375.253C396.01 362.974 401.274 349.863 406.519 335.773L370.024 322.186ZM455.065 253.386C442.858 242.965 428.668 237.98 414.187 240.01C400.143 241.979 388.871 250.122 381.039 259.916C365.715 279.078 359.697 309.076 370.111 336.003L406.432 321.956C401.136 308.263 404.58 292.831 411.452 284.238C414.718 280.154 417.729 278.837 419.594 278.576C421.024 278.375 424.374 278.388 429.78 283.004L455.065 253.386ZM449.789 368.737C467.321 351.754 479.677 333.209 481.057 312.09C482.467 290.507 472.116 271.655 456.73 254.988L428.116 281.403C439.948 294.22 442.623 303.033 442.197 309.551C441.741 316.532 437.398 326.523 422.694 340.767L449.789 368.737ZM449.866 395.098C451.572 383.135 453.327 370.826 455.454 357.918L417.029 351.586C414.824 364.974 413.012 377.687 411.313 389.602L449.866 395.098ZM410.864 523.329C437.378 485.278 443.205 441.82 449.866 395.098L411.313 389.602C404.375 438.27 399.205 471.943 378.913 501.066L410.864 523.329ZM355.614 559.157C370.573 562.086 383.103 555.786 391.809 548.256C400.366 540.855 407.066 530.858 412.115 521.274L377.662 503.121C373.766 510.516 369.771 515.829 366.334 518.802C364.701 520.215 363.625 520.72 363.178 520.877C362.978 520.947 362.921 520.943 362.977 520.938C363.042 520.932 363.099 520.94 363.098 520.94L355.614 559.157ZM354.032 558.789C354.259 558.846 354.487 558.903 354.715 558.959L363.997 521.138C363.827 521.097 363.657 521.054 363.487 521.012L354.032 558.789ZM338.738 554.077C344.53 556.466 350.96 558.665 356.743 559.267L360.777 520.534C361.014 520.559 360.509 520.519 359.039 520.074C357.671 519.659 355.853 519.011 353.587 518.076L338.738 554.077ZM250.088 495.723C281.902 522.566 308.617 543.318 339.6 554.409L352.725 517.745C329.142 509.302 307.265 493.013 275.201 465.959L250.088 495.723ZM294.805 624.294C292.887 564.168 289.347 519.523 281.811 477.411L243.477 484.271C250.534 523.704 253.99 566.218 255.882 625.536L294.805 624.294ZM276.11 644.394L277.048 644.312L273.639 605.518L272.7 605.601L276.11 644.394ZM293.883 625.153L293.873 624.626L254.937 625.368L254.947 625.895L293.883 625.153ZM268.338 644.996H274.415V606.053H268.338V644.996ZM91.7008 645.833C161.177 651.946 202.942 650.681 270.004 644.924L266.673 606.124C201.252 611.741 161.815 612.909 95.1143 607.04L91.7008 645.833ZM73.5983 593.698C73.6515 604.245 73.7672 615.214 73.9383 626.726L112.877 626.147C112.707 614.741 112.593 603.901 112.54 593.501L73.5983 593.698ZM111.225 600.664C111.294 600.468 111.366 600.263 111.438 600.06L74.7009 587.139C74.6392 587.315 74.5752 587.496 74.5055 587.693L111.225 600.664ZM105.596 624.688C108.066 609.344 110.022 604.068 111.225 600.663L74.5052 587.694C72.5912 593.113 70.02 600.657 67.148 618.499L105.596 624.688ZM48.0225 687.714C58.9974 693.851 71.1596 695.744 82.6874 691.717C93.7997 687.835 101.437 679.457 105.976 670.69C114.805 653.638 114.782 630.008 102.809 611.155L69.9352 632.032C74.3017 638.908 74.0007 647.75 71.3943 652.784C70.2164 655.059 69.3463 655.127 69.8444 654.953C70.7582 654.634 70.1992 655.497 67.0284 653.724L48.0225 687.714ZM33.9031 599.403C23.8589 613.944 16.9883 629.856 19.21 646.648C21.4926 663.899 32.6009 676.673 46.0768 686.469L68.9741 654.969C59.7362 648.254 58.1186 643.824 57.8163 641.539C57.453 638.794 58.1385 632.837 65.9446 621.537L33.9031 599.403ZM26.9171 575.335C28.2658 584.312 29.9395 595.485 30.4634 611.122L69.3843 609.818C68.7821 591.843 66.8251 578.851 65.4276 569.549L26.9171 575.335ZM26.9119 575.3L26.912 575.301L65.4326 569.583L65.4325 569.583L26.9119 575.3ZM26.9187 575.346L26.9192 575.349L65.4252 569.533L65.4247 569.53L26.9187 575.346ZM26.9273 575.402L26.9277 575.405L65.4157 569.471L65.4153 569.469L26.9273 575.402ZM26.0125 569.137C26.2839 571.123 26.6005 573.228 26.916 575.328L65.4266 569.543C65.1018 567.381 64.8263 565.545 64.5966 563.864L26.0125 569.137ZM22.6832 566.758C24.7396 573.841 29.5214 578.668 32.7694 581.401L57.8397 551.601C57.6286 551.423 57.8351 551.559 58.2285 552.074C58.5938 552.552 59.4797 553.827 60.0816 555.9L22.6832 566.758ZM94.1692 355.948C66.7082 378.99 47.7899 418.816 36.2857 456.608C24.6669 494.777 19.256 535.406 22.0053 563.243L60.7595 559.415C58.678 538.34 62.8397 503.102 73.5406 467.949C84.3561 432.419 100.504 401.468 119.201 385.78L94.1692 355.948ZM111.29 338.477C104.162 339.342 99.4574 343.479 97.5987 345.274C95.1592 347.63 93.2215 350.317 91.7596 352.872C89.248 357.261 85.8748 365.302 87.5308 374.365L125.839 367.364C126.257 369.648 125.898 371.174 125.805 371.539C125.684 372.009 125.573 372.19 125.56 372.213C125.537 372.253 125.483 372.343 125.374 372.487C125.274 372.62 125.046 372.905 124.654 373.284C124.292 373.633 123.545 374.302 122.371 374.999C121.274 375.652 119.084 376.76 115.982 377.136L111.29 338.477ZM94.1642 327.838V357.807H133.107V327.838H94.1642ZM41.5277 300.174C56.4 317.525 79.6697 333.287 105.296 345.433L121.975 310.242C99.1357 299.418 81.1316 286.539 71.0949 274.83L41.5277 300.174ZM22.9295 245.907C12.5085 259.175 4.25053 279.058 14.7197 295.925C20.2561 304.845 29.3352 309.394 38.5721 310.339C47.3826 311.241 56.318 308.988 64.5485 305.145L48.0741 269.859C46.1213 270.771 44.6489 271.223 43.6633 271.433C42.6682 271.645 42.3276 271.578 42.5359 271.599C42.7671 271.623 43.6216 271.757 44.75 272.409C45.9257 273.089 47.0182 274.118 47.807 275.388C49.3937 277.945 48.6718 279.49 48.968 278.184C49.252 276.933 50.3294 274.068 53.5548 269.962L22.9295 245.907ZM47.8901 211.119C38.9152 208.876 29.617 208.517 21.2093 211.213C12.6572 213.955 3.90574 220.476 0.949101 231.567C-1.94012 242.405 2.12253 252.326 7.59884 259.218C13.1025 266.145 21.0584 271.606 30.3351 275.728L46.1491 240.141C40.6436 237.694 38.5391 235.559 38.0884 234.992C37.6103 234.39 39.8247 236.921 38.5777 241.598C37.2632 246.529 33.6443 248.122 33.0997 248.296C32.6995 248.425 34.2835 247.859 38.4501 248.9L47.8901 211.119ZM35.0502 178.174C30.9109 188.117 27.1288 197.895 24.9001 206.81C22.7513 215.405 21.2977 225.953 24.6955 236.16L61.6446 223.859C61.7626 224.213 61.133 222.443 62.6801 216.255C64.1474 210.386 66.9332 202.914 71.0018 193.142L35.0502 178.174ZM168.97 67.0998C135.711 32.177 107.611 10.8804 83.8831 3.32721C71.5339 -0.603901 58.8295 -1.29002 47.1057 3.52693C35.2922 8.38073 27.3899 17.6218 22.3984 27.8246C12.946 47.1457 11.8032 74.0323 14.4515 101.131C17.1846 129.098 24.3271 160.704 34.5283 191.738L71.5237 179.577C62.0158 150.653 55.6084 121.89 53.2096 97.3436C50.7259 71.9291 52.8691 54.1571 57.3793 44.9382C59.3691 40.871 61.1172 39.8717 61.9055 39.5478C62.7836 39.187 65.6325 38.3858 72.0705 40.4352C85.9171 44.8429 108.326 59.8898 140.77 93.9566L168.97 67.0998ZM219.17 93.8944C233.926 84.9512 247.055 72.4673 248.425 56.298C249.183 47.3564 246.032 39.1314 240.213 33.0522C234.744 27.3395 227.73 24.2821 221.152 22.8788C195.264 17.356 160.786 32.8253 138.174 70.5099L171.567 90.5465C188.384 62.5193 208.115 59.9166 213.027 60.9645C214.149 61.2038 213.372 61.3292 212.08 59.9802C210.438 58.2646 209.404 55.584 209.622 53.0085C209.913 49.5712 211.336 53.1052 198.985 60.5913L219.17 93.8944Z" fill="white" mask="url(#path-1-outside-1_108_7948)"/>
<path d="M91.8474 616.117C98.0494 577.587 102.056 593.966 100.132 562.762C93.4041 539.68 74.2461 527.434 58.5559 535.723C42.3603 547.854 53.8181 557.797 55.3993 604.993C37.549 630.835 40.2871 648.732 63.0009 665.242C91.2923 681.062 108.187 641.845 91.8474 616.117Z" fill="#FFD387"/>
<path d="M232.688 319.136V354.537C238.958 358.472 241.353 361.401 241.539 369.288C280.126 386.861 301.159 397.468 337.418 417.961C331.518 500.564 363.969 507.939 394.945 503.514C394.046 522.352 384.62 533.015 365.444 534.49C353.644 534.49 308.344 511.361 267.339 474.013C275.539 519.042 278.79 561.98 279.89 620.045H99.9344C100.026 602.036 100.223 585.491 100.537 569.891C78.8751 574.703 67.4611 571.668 48.3079 558.091C45.3598 494.663 70.4335 404.686 113.21 369.288C112.885 361.649 114.451 358.575 119.11 354.537V319.136C164.414 307.996 189.222 308.414 232.688 319.136Z" fill="#FFD387"/>
<path d="M46.8567 555.85C41.9889 506.563 66.371 402.537 113.224 364.507C129.349 405.883 113.786 491.606 101.359 568.348C80.8792 577.925 49.595 565.282 46.8567 555.85Z" fill="#FD4B19"/>
<path d="M414.422 453.946C318.586 401.32 254.348 369.655 237.615 365.7C241.176 406.045 248.305 433.545 266.518 474.01C304.336 505.992 331.364 526.355 364.83 534.569C395.82 540.638 418.638 467.925 414.422 453.946Z" fill="#FD4B19"/>
<path d="M98.8821 620.957C97.4038 521.52 100.097 463.8 111.356 367.221C160.424 385.891 190.674 387.525 239.746 368.742C268.276 453.473 277.287 508.712 280.818 619.436C210.362 625.639 169.338 627.157 98.8821 620.957Z" fill="white"/>
<path d="M113.832 368.46C108.661 363.898 115.962 351.727 119.613 352.336C139.389 370.287 210.277 370.894 232.182 352.336C240.092 352.336 244.96 360.246 242.222 368.46C205.104 401.622 143.952 394.016 113.832 368.46Z" fill="#FD4B19"/>
<path d="M393.747 323.501C374.29 375.763 354.444 414.683 348.422 458.949C351.402 493.177 374.829 515.691 399.133 508.458C429.592 466.099 430.746 415.856 441.717 349.273C473.953 318.046 475.116 292.201 447.898 262.716C412.671 232.642 378.037 282.88 393.747 323.501Z" fill="#FFD387"/>
<ellipse cx="439.961" cy="293.594" rx="12.1696" ry="22.818" transform="rotate(-27.4665 439.961 293.594)" fill="#FFB7B7"/>
<ellipse cx="414.225" cy="277.293" rx="4.25936" ry="6.69328" transform="rotate(-45.4042 414.225 277.293)" fill="#FFB7B7"/>
<ellipse cx="422.137" cy="264.514" rx="4.25936" ry="6.69328" transform="rotate(-45.4042 422.137 264.514)" fill="#FFB7B7"/>
<ellipse cx="434.176" cy="262.274" rx="4.25936" ry="6.69328" transform="rotate(-29.7316 434.176 262.274)" fill="#FFB7B7"/>
<path d="M308.619 24.1109C325.557 28.9218 318.885 144.159 298.702 178.341C250.511 163.052 235.277 141.593 206.865 101.574L206.246 100.701C214.354 86.7012 266.422 15.7805 308.619 24.1109Z" fill="#FFD387"/>
<path d="M301.006 51.459C313.701 52.8193 308.465 149.634 292.617 177.69C255.203 165.391 243.449 147.901 221.526 115.283L221.048 114.571C227.416 103.082 266.584 49.1234 301.006 51.459Z" fill="#FFB7B7"/>
<path d="M214.553 71.7668C268.766 75.0521 272.051 99.6862 234.265 101.335C286.83 101.335 314.875 156.474 309.827 245.888C329.542 224.537 341.041 247.534 316.397 263.957C334.47 273.816 329.542 290.243 309.827 282.026C288.476 393.73 111.07 339.522 61.7864 282.026C37.1499 293.528 25.6514 275.459 43.7172 252.458C14.1528 239.321 22.3623 217.966 48.6452 224.533C45.3653 214.681 50.2932 199.897 58.5011 180.182C19.0829 60.2633 28.9388 -62.9271 160.345 75.0521C199.774 9.34039 268.766 38.9081 214.553 71.7668Z" fill="#FFD387"/>
<path d="M60.38 35.0328C47.6845 36.393 52.9211 133.208 68.7684 161.264C93.9434 127.481 108.727 107.769 140.338 98.1452C133.97 86.6554 94.8013 32.6972 60.38 35.0328Z" fill="#FFB7B7"/>
<path d="M244.006 232.749C252.829 261.956 298.465 265.911 307.288 282.34" stroke="#E6A432" stroke-width="2.43392" stroke-linecap="round"/>
<path d="M100.516 230.412C123.513 181.132 200.718 182.774 215.502 236.983C210.574 278.048 105.444 276.406 100.516 230.412Z" fill="black"/>
<path d="M305.847 230.417C305.847 176.207 243.426 190.991 241.784 233.702C256.568 264.911 305.847 255.055 305.847 230.417Z" fill="black"/>
<path fill-rule="evenodd" clip-rule="evenodd" d="M215.502 236.982C200.718 182.774 123.514 181.131 100.517 230.412C102.411 248.094 119.116 259.221 139.244 263.886C138.626 260.534 138.297 257.023 138.297 253.408C138.297 229.821 152.271 210.699 169.508 210.699C186.745 210.699 200.718 229.821 200.718 253.408C200.718 254.767 200.672 256.11 200.581 257.436C208.825 252.578 214.449 245.754 215.502 236.982Z" fill="#FFF2D4"/>
<path fill-rule="evenodd" clip-rule="evenodd" d="M241.773 233.664C243.416 190.953 305.836 176.169 305.836 230.379C305.836 240.338 297.784 247.882 287.213 251.274C288.935 247.03 289.915 242.145 289.915 236.947C289.915 220.617 280.241 207.379 268.308 207.379C256.374 207.379 246.701 220.617 246.701 236.947C246.701 238.532 246.792 240.087 246.967 241.605C244.963 239.328 243.206 236.689 241.773 233.664Z" fill="#FFF2D4"/>
<path d="M312.575 276.454C306.004 264.955 263.295 273.169 261.653 281.382C261.653 283.024 289.578 294.522 296.148 301.093C302.719 302.736 315.86 282.203 312.575 276.454Z" fill="#FFB7B7"/>
<ellipse cx="184.246" cy="230.506" rx="11.4546" ry="6.54549" fill="white" fill-opacity="0.75"/>
<ellipse cx="279.154" cy="227.232" rx="11.4546" ry="6.54549" fill="white" fill-opacity="0.75"/>
</svg>
