<svg width="1080" height="1080" viewBox="0 0 1080 1080" fill="none" xmlns="http://www.w3.org/2000/svg">
<mask id="path-1-outside-1_223_571" maskUnits="userSpaceOnUse" x="298" y="163" width="510" height="689" fill="black">
<rect fill="white" x="298" y="163" width="510" height="689"/>
<path d="M715.493 769.736C710.379 779.477 684.931 785.321 639.15 787.269C593.369 788.974 560.981 785.808 541.986 777.772C532.732 773.876 527.253 741.244 525.549 679.878C523.844 618.268 521.774 554.953 519.339 489.933C503.51 496.508 487.438 502.596 471.122 508.197C455.05 513.798 444.944 516.233 440.804 515.503C429.846 515.746 414.504 498.335 394.779 463.268C375.298 428.201 364.705 400.197 363 379.254C362.269 369.757 376.272 353.441 405.007 330.307C433.986 306.929 474.775 278.925 527.375 246.293C536.872 240.205 552.823 235.456 575.226 232.047C597.874 228.638 620.886 227.299 644.264 228.029C667.642 228.76 688.463 232.047 706.726 237.892C725.234 243.736 735.218 252.868 736.679 265.287C740.332 300.354 742.402 345.04 742.889 399.344C743.376 453.406 742.524 506.736 740.332 559.336C738.14 611.693 734.853 658.083 730.469 698.507C726.086 738.687 721.094 762.431 715.493 769.736Z"/>
</mask>
<path d="M715.493 769.736C710.379 779.477 684.931 785.321 639.15 787.269C593.369 788.974 560.981 785.808 541.986 777.772C532.732 773.876 527.253 741.244 525.549 679.878C523.844 618.268 521.774 554.953 519.339 489.933C503.51 496.508 487.438 502.596 471.122 508.197C455.05 513.798 444.944 516.233 440.804 515.503C429.846 515.746 414.504 498.335 394.779 463.268C375.298 428.201 364.705 400.197 363 379.254C362.269 369.757 376.272 353.441 405.007 330.307C433.986 306.929 474.775 278.925 527.375 246.293C536.872 240.205 552.823 235.456 575.226 232.047C597.874 228.638 620.886 227.299 644.264 228.029C667.642 228.76 688.463 232.047 706.726 237.892C725.234 243.736 735.218 252.868 736.679 265.287C740.332 300.354 742.402 345.04 742.889 399.344C743.376 453.406 742.524 506.736 740.332 559.336C738.14 611.693 734.853 658.083 730.469 698.507C726.086 738.687 721.094 762.431 715.493 769.736Z" fill="#C6A50D"/>
<path d="M715.493 769.736L664.702 730.796L661.372 735.14L658.828 739.987L715.493 769.736ZM639.15 787.269L641.531 851.225L641.701 851.219L641.871 851.212L639.15 787.269ZM541.986 777.772L566.923 718.83L566.872 718.809L566.822 718.788L541.986 777.772ZM525.549 679.878L461.573 681.648L461.573 681.655L525.549 679.878ZM519.339 489.933L583.294 487.538L579.847 395.497L494.788 430.83L519.339 489.933ZM471.122 508.197L450.342 447.665L450.202 447.713L450.061 447.762L471.122 508.197ZM440.804 515.503L451.926 452.477L445.702 451.378L439.382 451.519L440.804 515.503ZM394.779 463.268L338.833 494.349L338.915 494.497L338.998 494.645L394.779 463.268ZM363 379.254L299.189 384.163L299.199 384.305L299.211 384.446L363 379.254ZM405.007 330.307L445.142 380.159L445.167 380.139L445.191 380.119L405.007 330.307ZM527.375 246.293L561.114 300.678L561.516 300.428L561.914 300.173L527.375 246.293ZM575.226 232.047L565.699 168.76L565.649 168.768L565.598 168.776L575.226 232.047ZM706.726 237.892L687.221 298.847L687.337 298.884L687.454 298.921L706.726 237.892ZM736.679 265.287L800.335 258.657L800.291 258.233L800.241 257.81L736.679 265.287ZM742.889 399.344L678.891 399.918L678.892 399.921L742.889 399.344ZM740.332 559.336L804.276 562.013L804.276 562L740.332 559.336ZM730.469 698.507L794.092 705.448L794.094 705.427L794.096 705.406L730.469 698.507ZM658.828 739.987C662.673 732.662 667.375 727.706 670.9 724.675C674.377 721.686 677.32 720.036 678.77 719.297C681.384 717.964 681.855 718.22 678.246 719.049C671.149 720.679 657.862 722.415 636.429 723.327L641.871 851.212C666.22 850.175 688.547 848.015 706.898 843.801C716.013 841.708 726.666 838.555 736.92 833.325C746.404 828.489 762.155 818.54 772.159 799.485L658.828 739.987ZM636.769 723.314C591.626 724.995 571.807 720.896 566.923 718.83L517.049 836.714C550.154 850.72 595.111 852.954 641.531 851.225L636.769 723.314ZM566.822 718.788C579.357 724.065 586.594 732.165 589.893 736.564C593.262 741.057 594.747 744.628 595.108 745.523C595.774 747.175 595.098 746.002 594.053 739.778C592.053 727.871 590.351 707.871 589.524 678.101L461.573 681.655C462.451 713.251 464.34 740.251 467.82 760.974C469.515 771.066 472.05 782.617 476.4 793.402C479.241 800.446 489.557 825.139 517.15 836.757L566.822 718.788ZM589.524 678.108C587.813 616.278 585.737 552.754 583.294 487.538L455.384 492.329C457.812 557.151 459.875 620.257 461.573 681.648L589.524 678.108ZM494.788 430.83C480.209 436.885 465.395 442.497 450.342 447.665L491.902 568.73C509.481 562.695 526.811 556.131 543.89 549.037L494.788 430.83ZM450.061 447.762C446.626 448.959 443.756 449.9 441.405 450.622C439.019 451.355 437.424 451.781 436.496 452.005C436.051 452.112 435.893 452.141 435.983 452.123C436.055 452.109 436.563 452.013 437.424 451.91C438.241 451.813 439.814 451.655 441.944 451.632C443.039 451.62 444.418 451.642 446.026 451.752C447.624 451.862 449.625 452.07 451.926 452.477L429.682 578.529C446.381 581.476 461.916 577.544 466.481 576.443C474.458 574.521 483.236 571.751 492.183 568.633L450.061 447.762ZM439.382 451.519C454.023 451.193 463.704 456.796 466.747 458.783C470.001 460.907 470.753 462.194 469.098 460.316C467.673 458.699 465.288 455.674 461.964 450.7C458.697 445.81 454.895 439.598 450.56 431.891L338.998 494.645C349.71 513.687 361.038 531.293 373.06 544.937C379.077 551.765 386.951 559.551 396.78 565.967C406.398 572.246 422.106 579.934 442.226 579.487L439.382 451.519ZM450.725 432.187C432.368 399.144 427.351 380.964 426.789 374.062L299.211 384.446C302.058 419.43 318.227 457.259 338.833 494.349L450.725 432.187ZM426.811 374.346C427.373 381.641 426.376 387.614 425.303 391.685C424.237 395.728 422.916 398.592 422.132 400.117C420.692 402.917 419.878 403.489 421.521 401.575C422.959 399.899 425.519 397.2 429.628 393.407C433.674 389.671 438.799 385.265 445.142 380.159L364.872 280.455C349.283 293.006 335.119 305.709 324.387 318.214C319.029 324.458 313.055 332.335 308.297 341.589C303.846 350.246 297.74 365.332 299.189 384.163L426.811 374.346ZM445.191 380.119C471.221 359.12 509.497 332.699 561.114 300.678L493.636 191.908C440.053 225.15 396.75 254.738 364.823 280.495L445.191 380.119ZM561.914 300.173C559.834 301.506 560.041 300.899 564.722 299.505C569.064 298.212 575.606 296.726 584.855 295.319L565.598 168.776C541.485 172.445 514.235 178.695 492.836 192.413L561.914 300.173ZM584.753 295.334C603.507 292.511 622.66 291.385 642.265 291.998L646.263 164.06C619.112 163.212 592.24 164.765 565.699 168.76L584.753 295.334ZM642.265 291.998C660.949 292.582 675.706 295.162 687.221 298.847L726.232 176.936C701.219 168.932 674.334 164.938 646.263 164.06L642.265 291.998ZM687.454 298.921C691.4 300.167 689.097 300.188 684.901 296.35C682.588 294.234 679.812 291.033 677.462 286.607C675.075 282.113 673.656 277.345 673.118 272.765L800.241 257.81C794.37 207.909 753.655 185.596 725.999 176.862L687.454 298.921ZM673.024 271.918C676.387 304.206 678.414 346.683 678.891 399.918L806.886 398.77C806.39 343.396 804.277 296.502 800.335 258.657L673.024 271.918ZM678.892 399.921C679.369 452.93 678.533 505.18 676.387 556.672L804.276 562C806.514 508.292 807.383 453.881 806.886 398.768L678.892 399.921ZM676.388 556.659C674.239 607.984 671.038 652.919 666.842 691.608L794.096 705.406C798.668 663.246 802.041 615.401 804.276 562.013L676.388 556.659ZM666.847 691.566C664.755 710.743 662.681 724.37 660.807 733.281C659.866 737.757 659.201 739.943 659.008 740.509C658.927 740.745 659.157 740.018 659.807 738.656C660.388 737.439 661.897 734.455 664.702 730.796L766.284 808.676C773.999 798.612 778.049 788.004 780.151 781.841C782.606 774.645 784.514 767.013 786.068 759.618C789.187 744.787 791.801 726.452 794.092 705.448L666.847 691.566Z" fill="white" mask="url(#path-1-outside-1_223_571)"/>
<path d="M669.493 745.736C664.379 755.477 638.931 761.321 593.15 763.269C547.369 764.974 514.981 761.808 495.986 753.772C486.732 749.876 481.253 717.244 479.549 655.878C477.844 594.268 475.774 530.953 473.339 465.933C457.51 472.508 441.438 478.596 425.122 484.197C409.05 489.798 398.944 492.233 394.804 491.503C383.846 491.746 368.504 474.335 348.779 439.268C329.298 404.201 318.705 376.197 317 355.254C316.269 345.757 330.272 329.441 359.007 306.307C387.986 282.929 428.775 254.925 481.375 222.293C490.872 216.205 506.823 211.456 529.226 208.047C551.874 204.638 574.886 203.299 598.264 204.029C621.642 204.76 642.463 208.047 660.726 213.892C679.234 219.736 689.218 228.868 690.679 241.287C694.332 276.354 696.402 321.04 696.889 375.344C697.376 429.406 696.524 482.736 694.332 535.336C692.14 587.693 688.853 634.083 684.469 674.507C680.086 714.687 675.094 738.431 669.493 745.736Z" fill="#FFD513"/>
<ellipse cx="365.196" cy="411.907" rx="16.8203" ry="67.5" transform="rotate(-26.527 365.196 411.907)" fill="#CDB136"/>
<ellipse cx="577.685" cy="730.577" rx="16.8203" ry="67.5" transform="rotate(-89.357 577.685 730.577)" fill="#CDB136"/>
</svg>
