<svg width="991" height="1042" viewBox="0 0 991 1042" fill="none" xmlns="http://www.w3.org/2000/svg">
<mask id="path-1-outside-1_108_7496" maskUnits="userSpaceOnUse" x="0.550293" y="0.458496" width="991" height="1041" fill="black">
<rect fill="white" x="0.550293" y="0.458496" width="991" height="1041"/>
<path fill-rule="evenodd" clip-rule="evenodd" d="M375.042 40.7202C183.748 -23.8933 132.048 306.982 241.913 459.497C269.075 463.043 278.034 456.082 284.566 429.769C216.061 319.918 232.864 140.258 305.246 96.2986C409.885 49.2613 382.742 215.21 266.47 154.462C257.072 178.056 254.077 191.376 254.838 215.21C418.987 272.095 492.606 96.2986 375.042 40.7202ZM536.984 446.163C516.855 459.219 500.973 463.603 478.823 457.796C478.823 313.034 367.666 282.013 344.398 345.346C336.733 403.401 412.916 388.121 442.893 382.108C448.289 381.026 452.187 380.244 453.831 380.244C467.415 398.985 471.488 411.222 470.633 437.115C296.145 515.959 204.808 271.673 394.807 257.455C465.897 254.87 515.794 302.917 536.984 446.163ZM525.635 251.001C413.539 226.247 470.092 31.3947 589.181 117.903C591.151 122.46 571.448 152.105 564.685 152.436C486.191 127.232 505.977 208.801 594.122 227.015C714.231 263.783 667.104 434.843 554.112 394.997C554.447 376.693 558.016 367.292 569.245 351.839C643.887 342.086 604.767 264.654 525.635 251.001ZM801.642 181.304C726.677 54.6314 597.425 211.027 690.486 278.243C757.697 322.185 762.867 408.784 690.486 388.107C674.045 397.834 667.038 405.046 659.465 421.712C747.357 503.136 858.514 364.836 762.867 283.413C689.193 231.707 703.411 148.985 765.452 203.276C771.79 205.657 801.642 186.269 801.642 181.304ZM384.548 948.927C364.418 961.983 348.537 966.367 326.386 960.56C326.386 815.798 215.229 784.777 191.962 848.11C184.296 906.165 260.48 890.885 290.457 884.873C295.852 883.79 299.751 883.008 301.394 883.008C314.979 901.749 319.051 913.986 318.197 939.879C143.708 1018.72 52.3716 774.437 242.37 760.219C313.461 757.634 363.357 805.682 384.548 948.927ZM89.4763 962.261C-20.3879 809.746 31.312 478.871 222.606 543.484C340.17 599.063 266.551 774.859 102.401 717.975C101.641 694.14 104.635 680.82 114.034 657.226C230.306 717.975 257.449 552.026 152.81 599.063C80.4278 643.022 63.6251 822.682 132.129 932.533C125.598 958.846 116.638 965.807 89.4763 962.261ZM436.745 620.668C317.657 534.16 261.104 729.012 373.2 753.766C452.332 767.419 491.452 844.851 416.81 854.604C405.581 870.058 402.012 879.458 401.677 897.762C514.668 937.608 561.796 766.548 441.687 729.78C353.542 711.566 333.756 629.997 412.25 655.201C419.013 654.87 438.716 625.225 436.745 620.668ZM954.51 825.107C935.817 840.149 920.466 846.13 897.838 842.613C883.069 698.607 769.327 679.089 752.643 744.465C750.94 802.999 825.167 780.026 854.374 770.987C859.631 769.36 863.43 768.184 865.065 768.016C880.49 785.273 885.79 797.031 887.582 822.876C722.048 919.111 606.264 685.418 793.821 651.89C864.277 642.065 918.815 684.771 954.51 825.107ZM631.473 656.586C611.623 638.268 599.139 633.997 574.047 639.039C436.862 903.835 672.944 1165.44 773.442 895.859C753.091 872.169 738.809 873.732 711.231 884.693C682.516 1006.15 535.761 900.645 631.473 656.586ZM610.431 814.14C601.895 800.26 610.431 758.611 616.812 758.611C641.22 765.096 644.715 764.603 671.35 759.574C680.921 759.574 680.921 809.024 666.564 813.81C642.637 821.786 618.407 822.116 610.431 814.14ZM570.931 585.869C571.203 591.12 569.477 594.486 565.603 598.402C539.241 593.33 525.912 573.498 529.809 557.636C541.656 519.012 584.144 542.923 558.28 578.474C553.103 577.576 551.65 575.943 548.916 572.867C548.554 572.46 548.17 572.028 547.752 571.57C547.867 571.015 548.695 569.658 549.779 567.884L549.779 567.883C553.428 561.907 559.971 551.191 551.92 550.403C538.612 550.261 532.529 580.365 570.931 585.869ZM420.437 502.704C426.198 501.546 429.065 502.527 433.623 506.733C411.647 562.77 445.342 586.995 451.935 559.108C458.268 556.591 461.547 556.232 466.22 561.671C443.144 623.569 388.938 563.503 420.437 502.704ZM430.256 530.158C428.791 530.158 426.831 539.721 428.791 542.908C430.622 544.739 436.186 544.664 441.68 542.832C444.976 541.734 444.976 530.38 442.779 530.38C436.663 531.534 435.861 531.647 430.256 530.158ZM486.005 583.251C482.504 585.325 478.975 586.682 473.78 584.22C466.163 529.026 516.999 515.59 522.676 585.685C517.17 588.425 514.034 588.465 508.514 585.685C504.412 544.157 480.445 549.846 486.005 583.251ZM475.268 549.687C473.254 527.572 472.911 515.248 474.442 493.453C479.665 490.894 482.561 491.474 487.698 495.165C484.505 512.282 483.605 521.782 485.482 538.332C480.833 541.682 478.632 544.238 475.268 549.687Z"/>
</mask>
<path fill-rule="evenodd" clip-rule="evenodd" d="M375.042 40.7202C183.748 -23.8933 132.048 306.982 241.913 459.497C269.075 463.043 278.034 456.082 284.566 429.769C216.061 319.918 232.864 140.258 305.246 96.2986C409.885 49.2613 382.742 215.21 266.47 154.462C257.072 178.056 254.077 191.376 254.838 215.21C418.987 272.095 492.606 96.2986 375.042 40.7202ZM536.984 446.163C516.855 459.219 500.973 463.603 478.823 457.796C478.823 313.034 367.666 282.013 344.398 345.346C336.733 403.401 412.916 388.121 442.893 382.108C448.289 381.026 452.187 380.244 453.831 380.244C467.415 398.985 471.488 411.222 470.633 437.115C296.145 515.959 204.808 271.673 394.807 257.455C465.897 254.87 515.794 302.917 536.984 446.163ZM525.635 251.001C413.539 226.247 470.092 31.3947 589.181 117.903C591.151 122.46 571.448 152.105 564.685 152.436C486.191 127.232 505.977 208.801 594.122 227.015C714.231 263.783 667.104 434.843 554.112 394.997C554.447 376.693 558.016 367.292 569.245 351.839C643.887 342.086 604.767 264.654 525.635 251.001ZM801.642 181.304C726.677 54.6314 597.425 211.027 690.486 278.243C757.697 322.185 762.867 408.784 690.486 388.107C674.045 397.834 667.038 405.046 659.465 421.712C747.357 503.136 858.514 364.836 762.867 283.413C689.193 231.707 703.411 148.985 765.452 203.276C771.79 205.657 801.642 186.269 801.642 181.304ZM384.548 948.927C364.418 961.983 348.537 966.367 326.386 960.56C326.386 815.798 215.229 784.777 191.962 848.11C184.296 906.165 260.48 890.885 290.457 884.873C295.852 883.79 299.751 883.008 301.394 883.008C314.979 901.749 319.051 913.986 318.197 939.879C143.708 1018.72 52.3716 774.437 242.37 760.219C313.461 757.634 363.357 805.682 384.548 948.927ZM89.4763 962.261C-20.3879 809.746 31.312 478.871 222.606 543.484C340.17 599.063 266.551 774.859 102.401 717.975C101.641 694.14 104.635 680.82 114.034 657.226C230.306 717.975 257.449 552.026 152.81 599.063C80.4278 643.022 63.6251 822.682 132.129 932.533C125.598 958.846 116.638 965.807 89.4763 962.261ZM436.745 620.668C317.657 534.16 261.104 729.012 373.2 753.766C452.332 767.419 491.452 844.851 416.81 854.604C405.581 870.058 402.012 879.458 401.677 897.762C514.668 937.608 561.796 766.548 441.687 729.78C353.542 711.566 333.756 629.997 412.25 655.201C419.013 654.87 438.716 625.225 436.745 620.668ZM954.51 825.107C935.817 840.149 920.466 846.13 897.838 842.613C883.069 698.607 769.327 679.089 752.643 744.465C750.94 802.999 825.167 780.026 854.374 770.987C859.631 769.36 863.43 768.184 865.065 768.016C880.49 785.273 885.79 797.031 887.582 822.876C722.048 919.111 606.264 685.418 793.821 651.89C864.277 642.065 918.815 684.771 954.51 825.107ZM631.473 656.586C611.623 638.268 599.139 633.997 574.047 639.039C436.862 903.835 672.944 1165.44 773.442 895.859C753.091 872.169 738.809 873.732 711.231 884.693C682.516 1006.15 535.761 900.645 631.473 656.586ZM610.431 814.14C601.895 800.26 610.431 758.611 616.812 758.611C641.22 765.096 644.715 764.603 671.35 759.574C680.921 759.574 680.921 809.024 666.564 813.81C642.637 821.786 618.407 822.116 610.431 814.14ZM570.931 585.869C571.203 591.12 569.477 594.486 565.603 598.402C539.241 593.33 525.912 573.498 529.809 557.636C541.656 519.012 584.144 542.923 558.28 578.474C553.103 577.576 551.65 575.943 548.916 572.867C548.554 572.46 548.17 572.028 547.752 571.57C547.867 571.015 548.695 569.658 549.779 567.884L549.779 567.883C553.428 561.907 559.971 551.191 551.92 550.403C538.612 550.261 532.529 580.365 570.931 585.869ZM420.437 502.704C426.198 501.546 429.065 502.527 433.623 506.733C411.647 562.77 445.342 586.995 451.935 559.108C458.268 556.591 461.547 556.232 466.22 561.671C443.144 623.569 388.938 563.503 420.437 502.704ZM430.256 530.158C428.791 530.158 426.831 539.721 428.791 542.908C430.622 544.739 436.186 544.664 441.68 542.832C444.976 541.734 444.976 530.38 442.779 530.38C436.663 531.534 435.861 531.647 430.256 530.158ZM486.005 583.251C482.504 585.325 478.975 586.682 473.78 584.22C466.163 529.026 516.999 515.59 522.676 585.685C517.17 588.425 514.034 588.465 508.514 585.685C504.412 544.157 480.445 549.846 486.005 583.251ZM475.268 549.687C473.254 527.572 472.911 515.248 474.442 493.453C479.665 490.894 482.561 491.474 487.698 495.165C484.505 512.282 483.605 521.782 485.482 538.332C480.833 541.682 478.632 544.238 475.268 549.687Z" fill="#CDB136"/>
<path d="M241.913 459.497L215.948 478.2L224.041 489.435L237.77 491.227L241.913 459.497ZM375.042 40.7202L388.719 11.7901L387.041 10.9969L385.282 10.4029L375.042 40.7202ZM284.566 429.769L315.623 437.478L318.887 424.33L311.719 412.836L284.566 429.769ZM305.246 96.2986L292.126 67.1118L290.324 67.9219L288.635 68.9475L305.246 96.2986ZM266.47 154.462L281.289 126.1L249.864 109.681L236.742 142.62L266.47 154.462ZM254.838 215.21L222.854 216.231L223.556 238.237L244.36 245.446L254.838 215.21ZM478.823 457.796H446.823V482.487L470.707 488.749L478.823 457.796ZM536.984 446.163L554.398 473.01L571.649 461.821L568.64 441.48L536.984 446.163ZM344.398 345.346L314.361 334.311L313.138 337.641L312.674 341.157L344.398 345.346ZM442.893 382.108L449.186 413.483L442.893 382.108ZM453.831 380.244L479.74 361.463L470.157 348.244H453.831V380.244ZM470.633 437.115L483.81 466.276L501.959 458.075L502.616 438.17L470.633 437.115ZM394.807 257.455L393.644 225.476L393.031 225.498L392.419 225.544L394.807 257.455ZM589.181 117.903L618.552 105.201L615.075 97.1609L607.988 92.0129L589.181 117.903ZM525.635 251.001L518.735 282.248L519.461 282.408L520.194 282.535L525.635 251.001ZM564.685 152.436L554.902 182.904L560.441 184.683L566.252 184.398L564.685 152.436ZM594.122 227.015L603.489 196.416L602.06 195.979L600.598 195.677L594.122 227.015ZM554.112 394.997L522.118 394.411L521.695 417.496L543.47 425.175L554.112 394.997ZM569.245 351.839L565.099 320.108L551.449 321.892L543.357 333.028L569.245 351.839ZM690.486 278.243L671.749 304.184L672.352 304.619L672.975 305.026L690.486 278.243ZM801.642 181.304H833.642V172.544L829.181 165.006L801.642 181.304ZM690.486 388.107L699.275 357.338L686.039 353.556L674.192 360.566L690.486 388.107ZM659.465 421.712L630.332 408.475L620.78 429.496L637.718 445.187L659.465 421.712ZM762.867 283.413L783.61 259.046L782.472 258.078L781.25 257.22L762.867 283.413ZM765.452 203.276L744.378 227.358L748.756 231.189L754.203 233.234L765.452 203.276ZM326.386 960.56H294.386V985.252L318.27 991.514L326.386 960.56ZM384.548 948.927L401.961 975.774L419.212 964.585L416.203 944.244L384.548 948.927ZM191.962 848.11L161.925 837.075L160.702 840.405L160.237 843.921L191.962 848.11ZM290.457 884.873L296.749 916.248L296.75 916.248L290.457 884.873ZM301.394 883.008L327.303 864.228L317.721 851.008H301.394V883.008ZM318.197 939.879L331.374 969.041L349.523 960.84L350.179 940.934L318.197 939.879ZM242.37 760.219L241.208 728.24L240.594 728.263L239.982 728.308L242.37 760.219ZM222.606 543.484L236.282 514.554L234.605 513.761L232.846 513.167L222.606 543.484ZM89.4763 962.261L63.5115 980.965L71.6042 992.199L85.3335 993.992L89.4763 962.261ZM102.401 717.975L70.4177 718.995L71.1199 741.001L91.9235 748.211L102.401 717.975ZM114.034 657.226L128.853 628.864L97.4273 612.445L84.3061 645.384L114.034 657.226ZM152.81 599.063L139.69 569.876L137.888 570.686L136.199 571.712L152.81 599.063ZM132.129 932.533L163.187 940.242L166.45 927.095L159.282 915.6L132.129 932.533ZM373.2 753.766L366.3 785.013L367.026 785.173L367.759 785.3L373.2 753.766ZM436.745 620.668L466.117 607.966L462.64 599.926L455.552 594.778L436.745 620.668ZM416.81 854.604L412.664 822.874L399.014 824.657L390.922 835.793L416.81 854.604ZM401.677 897.762L369.683 897.176L369.26 920.261L391.035 927.94L401.677 897.762ZM441.687 729.78L451.054 699.181L449.625 698.744L448.162 698.442L441.687 729.78ZM412.25 655.201L402.467 685.669L408.006 687.448L413.816 687.163L412.25 655.201ZM897.838 842.613L866.005 845.878L868.525 870.441L892.923 874.233L897.838 842.613ZM954.51 825.107L974.571 850.037L990.591 837.146L985.522 817.219L954.51 825.107ZM752.643 744.465L721.637 736.553L720.76 739.989L720.657 743.535L752.643 744.465ZM854.374 770.987L844.913 740.417L844.913 740.417L854.374 770.987ZM865.065 768.016L888.922 746.69L878.041 734.517L861.799 736.183L865.065 768.016ZM887.582 822.876L903.665 850.541L920.883 840.531L919.505 820.663L887.582 822.876ZM793.821 651.89L789.402 620.196L788.794 620.281L788.19 620.389L793.821 651.89ZM574.047 639.039L567.744 607.666L552.695 610.69L545.634 624.319L574.047 639.039ZM631.473 656.586L661.264 668.269L669.25 647.904L653.175 633.069L631.473 656.586ZM773.442 895.859L803.426 907.037L810.025 889.337L797.715 875.007L773.442 895.859ZM711.231 884.693L699.411 854.956L683.924 861.112L680.089 877.331L711.231 884.693ZM616.812 758.611L625.028 727.684L620.99 726.611H616.812V758.611ZM610.431 814.14L583.173 830.903L585.143 834.107L587.803 836.767L610.431 814.14ZM671.35 759.574V727.574H668.355L665.413 728.13L671.35 759.574ZM666.564 813.81L656.445 783.452H656.445L666.564 813.81ZM565.603 598.402L559.557 629.826L576.336 633.054L588.352 620.907L565.603 598.402ZM570.931 585.869L602.888 584.211L601.524 557.927L575.471 554.193L570.931 585.869ZM529.809 557.636L499.216 548.252L498.95 549.119L498.734 550.001L529.809 557.636ZM558.28 578.474L552.815 610.004L572.439 613.404L584.156 597.3L558.28 578.474ZM548.916 572.867L525.001 594.13L525.002 594.13L548.916 572.867ZM547.752 571.57L516.419 565.069L513.102 581.055L524.099 593.123L547.752 571.57ZM549.779 567.884L577.09 584.561L577.795 583.405L578.401 582.195L549.779 567.884ZM549.779 567.883L522.467 551.208L521.763 552.362L521.158 553.572L549.779 567.883ZM551.92 550.403L555.039 518.555L553.653 518.419L552.26 518.405L551.92 550.403ZM433.623 506.733L463.414 518.416L471.4 498.051L455.324 483.216L433.623 506.733ZM420.437 502.704L414.134 471.331L399.085 474.354L392.024 487.983L420.437 502.704ZM451.935 559.108L440.116 529.371L424.628 535.526L420.794 551.745L451.935 559.108ZM466.22 561.671L496.204 572.849L502.802 555.149L490.493 540.819L466.22 561.671ZM428.791 542.908L401.533 559.671L403.504 562.875L406.164 565.536L428.791 542.908ZM430.256 530.158L438.473 499.231L434.435 498.158H430.256V530.158ZM441.68 542.832L451.799 573.19H451.799L441.68 542.832ZM442.779 530.38V498.38H439.784L436.842 498.935L442.779 530.38ZM473.78 584.22L442.08 588.594L444.445 605.728L460.074 613.136L473.78 584.22ZM486.005 583.251L502.314 610.783L521.168 599.614L517.571 577.998L486.005 583.251ZM522.676 585.685L536.932 614.334L556.32 604.686L554.572 583.102L522.676 585.685ZM508.514 585.685L476.669 588.831L478.4 606.348L494.121 614.265L508.514 585.685ZM474.442 493.453L460.366 464.715L443.812 472.823L442.52 491.21L474.442 493.453ZM475.268 549.687L443.4 552.589L452.101 648.143L502.498 566.495L475.268 549.687ZM487.698 495.165L519.155 501.034L522.885 481.042L506.368 469.176L487.698 495.165ZM485.482 538.332L504.19 564.294L519.39 553.342L517.278 534.725L485.482 538.332ZM267.877 440.793C219.59 373.76 205.232 263.062 226.613 176.346C237.219 133.329 255.575 100.658 278.226 82.3174C299.109 65.4085 326.583 58.1283 364.802 71.0374L385.282 10.4029C327.854 -8.99468 277.131 0.854437 237.952 32.5782C200.541 62.8701 176.971 110.335 164.474 161.025C139.646 261.722 154.371 392.718 215.948 478.2L267.877 440.793ZM253.508 422.06C252.141 427.568 251.053 430.305 250.435 431.522C249.956 432.465 250.424 431.178 252.435 429.748C254.503 428.278 256.041 428.189 255.347 428.271C254.286 428.397 251.564 428.485 246.055 427.766L237.77 491.227C252.726 493.18 272.547 493.974 289.516 481.912C306.118 470.11 312.157 451.441 315.623 437.478L253.508 422.06ZM288.635 68.9475C262.92 84.5652 244.707 110.47 232.467 138.815C220.087 167.486 212.705 201.128 210.159 235.993C205.101 305.233 218.779 384.751 257.413 446.702L311.719 412.836C281.848 364.936 269.676 299.698 273.988 240.656C276.127 211.379 282.237 184.998 291.223 164.187C300.351 143.048 311.382 130.011 321.857 123.65L288.635 68.9475ZM251.652 182.824C286.481 201.021 319.447 204.57 347.237 194.459C374.618 184.497 392.584 162.722 399.399 139.552C405.915 117.399 403.315 87.3456 379.239 68.7567C355.092 50.1128 322.718 53.36 292.126 67.1118L318.366 125.485C340.093 115.718 343.566 122.07 340.126 119.414C336.757 116.813 339.724 115.631 338 121.492C336.576 126.336 332.495 131.718 325.355 134.316C318.625 136.765 304.596 138.277 281.289 126.1L251.652 182.824ZM286.822 214.19C286.23 195.636 288.065 186.721 296.199 166.304L236.742 142.62C226.078 169.391 221.925 187.116 222.854 216.231L286.822 214.19ZM361.365 69.6502C383.277 80.0089 394.072 94.6506 398.306 108.678C402.684 123.181 400.853 139.701 392.583 154.646C377.077 182.669 335.131 209.168 265.316 184.975L244.36 245.446C338.694 278.137 415.632 245.18 448.582 185.632C464.54 156.791 469.33 122.496 459.576 90.1834C449.679 57.3953 425.589 29.2206 388.719 11.7901L361.365 69.6502ZM470.707 488.749C485.797 492.706 500.461 493.567 515.427 490.33C529.938 487.191 542.638 480.637 554.398 473.01L519.571 419.316C511.201 424.744 505.896 426.911 501.896 427.777C498.351 428.543 493.999 428.693 486.938 426.842L470.707 488.749ZM374.436 356.381C376.847 349.816 380.393 347.598 383.642 346.712C387.614 345.628 394.882 345.725 404.194 351.166C422.275 361.729 446.823 393.129 446.823 457.796H510.823C510.823 377.7 479.792 321.209 436.478 295.905C415.092 283.411 390.208 278.581 366.795 284.969C342.657 291.555 323.583 309.209 314.361 334.311L374.436 356.381ZM436.6 350.733C420.514 353.959 399.218 357.932 383.436 355.992C375.707 355.041 374.373 353.196 375.146 353.981C377.26 356.129 375.137 357.005 376.123 349.535L312.674 341.157C309.827 362.714 314.352 383.451 329.532 398.874C343.369 412.933 361.518 417.778 375.624 419.513C403.512 422.943 435.295 416.27 449.186 413.483L436.6 350.733ZM453.831 348.244C449.721 348.244 445.576 349.013 444.15 349.268C441.882 349.672 439.174 350.217 436.6 350.733L449.186 413.483C452.008 412.917 453.947 412.53 455.388 412.273C455.715 412.215 455.964 412.173 456.147 412.143C456.335 412.113 456.408 412.104 456.39 412.106C456.384 412.107 456.183 412.134 455.84 412.163C455.535 412.189 454.815 412.244 453.831 412.244V348.244ZM502.616 438.17C503.099 423.525 502.31 410.088 498.28 396.744C494.215 383.289 487.55 372.238 479.74 361.463L427.922 399.025C433.696 406.991 435.859 411.429 437.014 415.251C438.202 419.185 439.022 424.812 438.651 436.06L502.616 438.17ZM392.419 225.544C337.949 229.62 297.474 250.897 275.154 285.137C253.102 318.967 252.714 359.547 266.268 393.921C279.842 428.345 307.993 458.606 346.584 474.022C385.729 489.659 433.229 489.132 483.81 466.276L457.457 407.954C420.794 424.52 391.444 423.024 370.326 414.588C348.654 405.931 333.129 389.014 325.807 370.445C318.465 351.826 319.962 333.597 328.769 320.087C337.307 306.989 356.665 292.398 397.195 289.366L392.419 225.544ZM568.64 441.48C557.731 367.739 538.823 313.157 509.459 276.962C478.399 238.677 438.041 223.862 393.644 225.476L395.97 289.434C422.664 288.463 442.799 296.379 459.758 317.283C478.412 340.277 495.047 381.341 505.329 450.846L568.64 441.48ZM607.988 92.0129C572.641 66.3367 536.27 57.7671 503.503 68.2426C471.543 78.4601 450.665 104.42 440.665 131.725C430.666 159.03 429.981 191.429 442.041 220.03C454.584 249.774 480.352 273.772 518.735 282.248L532.535 219.753C514.871 215.853 505.672 206.211 501.013 195.162C495.871 182.97 495.749 167.421 500.762 153.733C505.775 140.044 514.358 131.963 522.992 129.203C530.82 126.701 546.176 126.215 570.374 143.793L607.988 92.0129ZM566.252 184.398C576.764 183.882 584.176 178.656 586.459 177.012C589.842 174.577 592.676 171.85 594.782 169.645C599.092 165.133 603.193 159.797 606.563 154.905C609.946 149.992 613.325 144.461 615.88 139.237C617.108 136.728 618.609 133.356 619.694 129.631C620.233 127.78 620.93 124.973 621.201 121.61C621.435 118.715 621.638 112.337 618.552 105.201L559.81 130.605C558.306 127.128 557.721 124.017 557.485 121.808C557.246 119.575 557.306 117.731 557.408 116.466C557.604 114.038 558.073 112.335 558.248 111.732C558.607 110.502 558.839 110.196 558.391 111.112C557.595 112.739 555.995 115.494 553.853 118.604C551.698 121.734 549.728 124.156 548.504 125.437C547.842 126.13 548.043 125.809 549.061 125.076C549.594 124.692 550.851 123.831 552.751 122.959C554.509 122.153 558.143 120.718 563.119 120.474L566.252 184.398ZM600.598 195.677C582.924 192.025 569.583 185.38 560.557 178.578C551.004 171.378 547.908 165.327 547.434 163.823C547.248 163.235 548.079 165.344 546.993 169.082C545.709 173.503 542.638 177.001 539.453 178.79C536.912 180.219 536.099 179.585 539.111 179.65C541.999 179.712 547.132 180.409 554.902 182.904L574.468 121.968C552.528 114.923 527.914 111.86 508.096 122.999C497.105 129.176 489.066 139.069 485.534 151.227C482.2 162.703 483.504 173.893 486.395 183.064C492.073 201.079 505.545 217.259 522.04 229.689C539.061 242.517 561.247 252.898 587.646 258.353L600.598 195.677ZM543.47 425.175C579.735 437.964 613.903 434.585 641.331 418.203C668.024 402.26 685.292 375.835 692.523 347.701C707.203 290.58 681.647 220.342 603.489 196.416L584.755 257.613C626.706 270.455 637.641 304.131 630.537 331.771C626.876 346.017 618.682 357.184 608.514 363.257C599.08 368.892 584.986 371.952 564.755 364.818L543.47 425.175ZM543.357 333.028C536.978 341.807 531.267 350.879 527.445 361.622C523.547 372.576 522.322 383.242 522.118 394.411L586.107 395.582C586.238 388.448 586.964 385.262 587.742 383.076C588.595 380.679 590.282 377.324 595.132 370.649L543.357 333.028ZM520.194 282.535C552.063 288.033 571.182 305.802 576.079 316.353C578.24 321.011 576.037 319.894 578.002 316.785C579.517 314.39 578.88 318.308 565.099 320.108L573.391 383.569C596.931 380.493 619.395 371.075 632.095 350.991C645.246 330.194 642.312 307.037 634.132 289.412C618.346 255.395 578.339 227.621 531.076 219.466L520.194 282.535ZM709.222 252.301C694.557 241.71 689.941 229.209 690.05 217.218C690.171 203.987 696.231 189.667 706.266 179.093C716.301 168.518 727.385 164.509 736.406 165.402C744.584 166.213 758.871 171.862 774.104 197.601L829.181 165.006C806.931 127.409 776.949 105.106 742.716 101.714C709.326 98.4061 679.858 113.945 659.842 135.038C639.825 156.131 626.336 185.596 626.053 216.634C625.758 248.913 639.883 281.168 671.749 304.184L709.222 252.301ZM681.696 418.876C704.523 425.397 728.88 425.669 748.508 412.276C768.834 398.408 775.333 375.989 774.822 356.565C773.835 319.077 748.14 277.704 707.997 251.459L672.975 305.026C700.043 322.723 710.538 346.621 710.844 358.249C710.979 363.382 709.4 361.482 712.438 359.409C714.779 357.812 712.639 361.155 699.275 357.338L681.696 418.876ZM688.599 434.95C691.551 428.453 693.482 425.817 695.063 424.12C696.798 422.258 699.679 419.849 706.78 415.648L674.192 360.566C664.852 366.091 656.009 372.151 648.236 380.494C640.311 389.001 634.952 398.305 630.332 408.475L688.599 434.95ZM742.124 307.779C775.53 336.218 772.199 371.468 754.708 394.017C745.692 405.64 733.74 412.637 721.996 414.175C711.101 415.602 696.949 412.816 681.212 398.238L637.718 445.187C665.927 471.32 698.63 481.781 730.307 477.633C761.135 473.595 787.474 456.196 805.278 433.243C841.426 386.643 845.85 312.031 783.61 259.046L742.124 307.779ZM786.525 179.195C769.183 164.019 747.808 151.438 725.197 153.795C712.657 155.102 701.351 160.991 693.283 170.749C685.668 179.958 682.422 190.746 681.435 200.311C679.497 219.1 685.439 239.299 695.645 257.255C706.176 275.785 722.419 294.12 744.484 309.606L781.25 257.22C766.478 246.853 756.871 235.458 751.286 225.631C745.375 215.232 744.936 208.448 745.098 206.88C745.161 206.266 745.086 208.532 742.606 211.532C739.672 215.08 735.465 217.071 731.832 217.45C728.932 217.752 728.438 216.848 731.176 218.103C733.802 219.306 738.237 221.983 744.378 227.358L786.525 179.195ZM769.642 181.304C769.642 177.515 770.341 174.428 771 172.307C771.667 170.162 772.455 168.493 773.051 167.373C774.194 165.222 775.3 163.845 775.701 163.361C776.518 162.375 776.853 162.186 776.078 162.849C774.702 164.026 772.139 165.92 768.939 167.924C765.718 169.941 762.949 171.382 761.317 172.073C760.435 172.446 760.746 172.231 761.972 171.962C762.613 171.821 764.109 171.53 766.199 171.484C768.132 171.442 772.037 171.568 776.701 173.319L754.203 233.234C764.056 236.934 772.934 235.079 775.682 234.476C779.753 233.584 783.436 232.206 786.245 231.018C791.992 228.588 797.875 225.318 802.909 222.165C807.964 218.999 813.261 215.263 817.68 211.483C819.802 209.668 822.519 207.169 824.994 204.181C826.223 202.696 827.977 200.396 829.561 197.417C830.924 194.852 833.642 189.078 833.642 181.304H769.642ZM318.27 991.514C333.36 995.47 348.024 996.331 362.99 993.094C377.501 989.955 390.201 983.402 401.961 975.774L367.134 922.08C358.764 927.509 353.459 929.675 349.459 930.541C345.914 931.308 341.562 931.457 334.502 929.606L318.27 991.514ZM221.999 859.145C224.411 852.581 227.956 850.363 231.205 849.476C235.178 848.392 242.445 848.49 251.757 853.93C269.839 864.493 294.386 895.893 294.386 960.56H358.386C358.386 880.464 327.355 823.973 284.041 798.669C262.656 786.175 237.771 781.345 214.358 787.733C190.221 794.319 171.147 811.973 161.925 837.075L221.999 859.145ZM284.164 853.497C268.078 856.724 246.781 860.697 230.999 858.756C223.27 857.805 221.937 855.961 222.709 856.745C224.824 858.894 222.7 859.769 223.687 852.3L160.237 843.921C157.391 865.479 161.916 886.215 177.095 901.638C190.933 915.698 209.082 920.542 223.187 922.277C251.075 925.707 282.859 919.034 296.749 916.248L284.164 853.497ZM301.394 851.008C297.284 851.008 293.14 851.778 291.714 852.032C289.445 852.436 286.737 852.981 284.164 853.497L296.75 916.248C299.572 915.682 301.511 915.294 302.951 915.038C303.279 914.979 303.528 914.937 303.711 914.908C303.898 914.878 303.972 914.868 303.954 914.87C303.948 914.871 303.747 914.898 303.403 914.928C303.098 914.954 302.379 915.008 301.394 915.008V851.008ZM350.179 940.934C350.663 926.29 349.874 912.852 345.843 899.509C341.779 886.053 335.114 875.003 327.303 864.228L275.485 901.789C281.259 909.755 283.423 914.193 284.577 918.015C285.765 921.949 286.585 927.576 286.214 938.824L350.179 940.934ZM239.982 728.308C185.513 732.384 145.038 753.662 122.718 787.902C100.666 821.731 100.278 862.312 113.832 896.686C127.405 931.109 155.556 961.37 194.147 976.786C233.292 992.423 280.792 991.896 331.374 969.041L305.02 910.718C268.357 927.285 239.007 925.788 217.889 917.352C196.217 908.695 180.692 891.779 173.37 873.209C166.029 854.59 167.526 836.361 176.332 822.851C184.871 809.753 204.228 795.163 244.758 792.13L239.982 728.308ZM416.203 944.244C405.295 870.503 386.386 815.921 357.022 779.726C325.962 741.441 285.604 726.626 241.208 728.24L243.533 792.198C270.227 791.227 290.362 799.144 307.321 820.047C325.975 843.041 342.61 884.105 352.892 953.61L416.203 944.244ZM232.846 513.167C175.418 493.77 124.695 503.619 85.5155 535.342C48.1046 565.634 24.5349 613.1 12.0372 663.789C-12.79 764.486 1.93442 895.483 63.5115 980.965L115.441 943.557C67.1539 876.524 52.7962 765.826 74.1764 679.11C84.7824 636.093 103.139 603.422 125.79 585.082C146.672 568.173 174.147 560.893 212.366 573.802L232.846 513.167ZM91.9235 748.211C186.258 780.901 263.196 747.944 296.146 688.396C312.104 659.555 316.893 625.26 307.14 592.948C297.242 560.16 273.153 531.985 236.282 514.554L208.929 572.414C230.841 582.773 241.636 597.415 245.87 611.442C250.248 625.945 248.416 642.465 240.147 657.41C224.641 685.434 182.695 711.933 112.879 687.739L91.9235 748.211ZM84.3061 645.384C73.6417 672.155 69.4888 689.88 70.4177 718.995L134.385 716.954C133.793 698.4 135.629 689.485 143.762 669.069L84.3061 645.384ZM165.93 628.25C187.657 618.483 191.13 624.835 187.69 622.179C184.321 619.577 187.288 618.395 185.564 624.257C184.139 629.1 180.059 634.482 172.919 637.08C166.188 639.529 152.16 641.041 128.853 628.864L99.2157 685.588C134.044 703.785 167.011 707.335 194.801 697.223C222.181 687.261 240.148 665.486 246.963 642.316C253.479 620.163 250.879 590.11 226.803 571.521C202.656 552.877 170.282 556.124 139.69 569.876L165.93 628.25ZM159.282 915.6C129.411 867.7 117.239 802.462 121.552 743.42C123.691 714.143 129.8 687.762 138.787 666.951C147.915 645.813 158.945 632.776 169.421 626.414L136.199 571.712C110.483 587.329 92.2703 613.235 80.0308 641.579C67.6502 670.251 60.2691 703.892 57.7223 738.757C52.6644 807.997 66.3431 887.515 104.977 949.466L159.282 915.6ZM85.3335 993.992C100.29 995.944 120.111 996.738 137.079 984.676C153.682 972.874 159.721 954.205 163.187 940.242L101.072 924.824C99.7047 930.332 98.6167 933.069 97.9986 934.286C97.5193 935.229 97.988 933.942 99.9991 932.513C102.067 931.043 103.604 930.953 102.911 931.035C101.85 931.161 99.1276 931.25 93.619 930.53L85.3335 993.992ZM380.1 722.518C362.436 718.618 353.237 708.977 348.577 697.928C343.436 685.735 343.314 670.186 348.327 656.498C353.34 642.809 361.923 634.729 370.557 631.968C378.385 629.466 393.74 628.98 417.938 646.558L455.552 594.778C420.206 569.102 383.835 560.532 351.068 571.008C319.108 581.225 298.229 607.185 288.23 634.49C278.231 661.795 277.546 694.194 289.606 722.795C302.149 752.539 327.916 776.537 366.3 785.013L380.1 722.518ZM420.956 886.334C444.496 883.258 466.959 873.84 479.659 853.756C492.811 832.959 489.876 809.802 481.697 792.177C465.911 758.16 425.904 730.386 378.641 722.232L367.759 785.3C399.628 790.798 418.747 808.567 423.644 819.118C425.805 823.776 423.601 822.659 425.567 819.55C427.082 817.155 426.444 821.073 412.664 822.874L420.956 886.334ZM433.672 898.347C433.802 891.213 434.529 888.027 435.307 885.841C436.159 883.444 437.847 880.089 442.697 873.414L390.922 835.793C384.543 844.572 378.832 853.644 375.01 864.387C371.112 875.341 369.887 886.008 369.683 897.176L433.672 898.347ZM432.32 760.378C474.271 773.22 485.206 806.896 478.102 834.536C474.44 848.782 466.247 859.949 456.079 866.022C446.645 871.657 432.55 874.718 412.32 867.583L391.035 927.94C427.3 940.729 461.468 937.35 488.896 920.968C515.589 905.025 532.857 878.6 540.087 850.467C554.768 793.345 529.212 723.107 451.054 699.181L432.32 760.378ZM422.033 624.733C400.092 617.688 375.479 614.625 355.661 625.764C344.67 631.941 336.631 641.834 333.099 653.992C329.765 665.468 331.068 676.658 333.959 685.829C339.638 703.844 353.11 720.024 369.604 732.455C386.626 745.282 408.812 755.663 435.211 761.118L448.162 698.442C430.489 694.79 417.148 688.145 408.122 681.343C398.568 674.143 395.472 668.092 394.998 666.588C394.813 666 395.644 668.109 394.558 671.847C393.274 676.268 390.203 679.766 387.018 681.556C384.476 682.984 383.664 682.35 386.676 682.415C389.563 682.477 394.696 683.174 402.467 685.669L422.033 624.733ZM407.374 633.37C405.871 629.893 405.286 626.782 405.05 624.573C404.81 622.34 404.871 620.496 404.973 619.231C405.169 616.803 405.637 615.1 405.813 614.497C406.171 613.267 406.404 612.961 405.956 613.877C405.16 615.504 403.56 618.259 401.418 621.369C399.263 624.499 397.293 626.921 396.069 628.202C395.407 628.895 395.608 628.574 396.626 627.841C397.159 627.457 398.416 626.596 400.316 625.724C402.074 624.918 405.708 623.483 410.684 623.24L413.816 687.163C424.329 686.648 431.741 681.421 434.024 679.777C437.406 677.342 440.24 674.615 442.347 672.41C446.657 667.898 450.758 662.562 454.127 657.67C457.511 652.757 460.889 647.226 463.445 642.003C464.672 639.493 466.174 636.121 467.259 632.396C467.798 630.546 468.495 627.738 468.766 624.375C468.999 621.481 469.203 615.102 466.117 607.966L407.374 633.37ZM892.923 874.233C908.338 876.63 923.014 875.99 937.571 871.243C951.686 866.64 963.651 858.825 974.571 850.037L934.448 800.177C926.676 806.431 921.619 809.128 917.728 810.397C914.28 811.521 909.966 812.114 902.754 810.993L892.923 874.233ZM783.649 752.378C785.379 745.602 788.68 743.033 791.821 741.82C795.662 740.336 802.901 739.692 812.72 744.154C831.785 752.817 859.408 781.549 866.005 845.878L929.671 839.348C921.5 759.671 884.867 706.641 839.197 685.887C816.649 675.641 791.401 673.375 768.762 682.118C745.423 691.133 728.25 710.641 721.637 736.553L783.649 752.378ZM844.913 740.417C829.24 745.268 808.46 751.393 792.563 751.072C784.777 750.915 783.262 749.216 784.111 749.918C786.433 751.84 784.41 752.927 784.629 745.396L720.657 743.535C720.024 765.27 726.641 785.436 743.315 799.231C758.515 811.805 777.063 814.773 791.272 815.059C819.364 815.626 850.301 805.745 863.835 801.556L844.913 740.417ZM861.799 736.183C857.711 736.603 853.667 737.791 852.275 738.189C850.059 738.823 847.421 739.641 844.913 740.417L863.835 801.556C866.585 800.705 868.474 800.122 869.881 799.719C870.201 799.628 870.444 799.561 870.624 799.513C870.807 799.464 870.879 799.447 870.862 799.451C870.856 799.452 870.659 799.5 870.32 799.564C870.019 799.621 869.309 799.749 868.33 799.849L861.799 736.183ZM919.505 820.663C918.492 806.045 916.336 792.758 910.965 779.895C905.549 766.925 897.791 756.612 888.922 746.69L841.207 789.343C847.764 796.678 850.369 800.872 851.907 804.556C853.49 808.348 854.88 813.862 855.659 825.09L919.505 820.663ZM788.19 620.389C734.42 630.001 696.328 655.297 677.617 691.636C659.132 727.538 662.886 767.947 679.876 800.758C696.891 833.618 727.983 860.848 767.945 872.246C808.481 883.808 855.68 878.438 903.665 850.541L871.499 795.211C836.717 815.432 807.368 816.938 785.499 810.701C763.057 804.3 745.888 789.056 736.709 771.33C727.506 753.557 727.136 735.27 734.518 720.933C741.675 707.032 759.443 690.542 799.452 683.39L788.19 620.389ZM985.522 817.219C967.147 744.976 942.768 692.607 909.865 659.597C875.061 624.681 833.402 614.061 789.402 620.196L798.24 683.583C824.696 679.894 845.534 685.715 864.537 704.779C885.44 725.75 906.178 764.902 923.497 832.995L985.522 817.219ZM580.351 670.412C590.344 668.404 593.694 669.132 595.193 669.6C597.135 670.206 601.012 672.019 609.771 680.102L653.175 633.069C642.084 622.834 629.794 613.354 614.259 608.505C598.28 603.519 582.842 604.632 567.744 607.666L580.351 670.412ZM743.458 884.681C719.811 948.113 691.689 970.538 672.227 975.812C654.296 980.671 631.52 973.931 609.116 947.259C564.082 893.648 538.996 776.259 602.46 653.759L545.634 624.319C471.913 766.615 496.275 912.428 560.111 988.423C592.141 1026.55 638.655 1051.22 688.967 1037.58C737.749 1024.36 776.824 978.397 803.426 907.037L743.458 884.681ZM723.05 914.431C729.531 911.855 733.885 910.386 737.135 909.612C740.22 908.878 741.203 909.051 741.06 909.033C739.355 908.819 741.402 907.67 749.169 916.711L797.715 875.007C785.131 860.359 769.862 848.146 749.033 845.531C730.421 843.195 712.931 849.582 699.411 854.956L723.05 914.431ZM601.682 644.903C551.766 772.185 561.664 871.847 598.218 925.684C616.066 951.972 645.448 973.037 679.684 965.948C713.822 958.879 733.958 927.647 742.372 892.056L680.089 877.331C677.272 889.247 673.492 896.206 670.593 899.85C669.187 901.617 668.088 902.487 667.486 902.88C667.183 903.079 666.976 903.177 666.869 903.221C666.763 903.266 666.713 903.276 666.707 903.277C666.7 903.279 666.683 903.282 666.635 903.283C666.585 903.284 666.458 903.281 666.24 903.243C665.81 903.168 664.881 902.927 663.474 902.159C660.56 900.568 656.057 896.937 651.166 889.733C631.092 860.167 615.468 785.045 661.264 668.269L601.682 644.903ZM616.812 726.611C607.4 726.611 600.399 730.477 596.385 733.489C592.422 736.464 589.801 739.735 588.258 741.909C585.182 746.244 583.222 750.773 582.004 753.981C579.42 760.791 577.56 768.744 576.398 776.315C575.219 783.994 574.535 792.733 574.972 801.247C575.356 808.745 576.774 820.497 583.173 830.903L637.689 797.377C638.996 799.502 639.243 800.875 639.169 800.553C639.125 800.366 638.968 799.541 638.888 797.969C638.723 794.77 638.971 790.494 639.657 786.025C640.359 781.45 641.296 778.123 641.84 776.69C642.187 775.776 641.874 776.943 640.452 778.946C639.737 779.954 637.945 782.317 634.804 784.675C631.612 787.07 625.425 790.611 616.812 790.611V726.611ZM665.413 728.13C651.098 730.833 646.968 731.44 643.506 731.411C640.724 731.389 637.264 730.935 625.028 727.684L608.595 789.538C620.767 792.772 631.26 795.314 642.986 795.409C654.032 795.499 664.967 793.345 677.287 791.019L665.413 728.13ZM676.684 844.168C695.384 837.934 702.489 820.787 704.898 813.945C708.119 804.798 709.504 794.867 709.896 786.373C710.286 777.918 709.804 768.428 707.789 759.964C706.839 755.974 705.043 749.991 701.284 744.228C697.74 738.793 688.2 727.574 671.35 727.574V791.574C664.6 791.574 658.888 789.274 654.755 786.399C650.941 783.745 648.747 780.829 647.677 779.189C645.695 776.149 645.357 774.067 645.529 774.788C645.757 775.745 646.172 778.916 645.964 783.422C645.758 787.889 645.049 791.217 644.531 792.689C644.276 793.413 644.466 792.533 645.669 790.927C646.875 789.315 650.224 785.526 656.445 783.452L676.684 844.168ZM587.803 836.767C595.355 844.319 604.435 847.823 611.253 849.572C618.425 851.411 625.848 852.013 632.779 851.956C646.657 851.842 662.033 849.051 676.684 844.168L656.445 783.452C647.168 786.544 638.465 787.907 632.253 787.958C629.139 787.983 627.513 787.671 627.151 787.578C626.435 787.394 629.495 787.949 633.058 791.513L587.803 836.767ZM588.352 620.907C591.71 617.512 596.009 612.517 599.072 605.615C602.323 598.287 603.239 590.981 602.888 584.211L538.974 587.527C538.895 586.008 539.084 583.01 540.572 579.657C541.871 576.73 543.369 575.376 542.853 575.898L588.352 620.907ZM498.734 550.001C488.913 589.971 522.325 622.662 559.557 629.826L571.649 566.979C565.086 565.716 562.131 563.041 561.218 561.914C560.108 560.545 561.771 561.665 560.885 565.271L498.734 550.001ZM584.156 597.3C603.746 570.373 605.268 532.099 575.256 513.172C561.54 504.523 544.012 503.227 528.531 511.002C513.357 518.623 503.948 532.827 499.216 548.252L560.403 567.02C561.595 563.133 561.939 565.842 557.255 568.194C552.264 570.701 545.962 570.362 541.117 567.307C536.402 564.333 534.724 560.001 534.511 557.341C534.299 554.69 535.47 555.432 532.403 559.647L584.156 597.3ZM525.002 594.13C525.764 594.988 529.512 599.485 534.882 603.08C541.098 607.24 547.408 609.066 552.815 610.004L563.744 546.943C563.975 546.984 566.97 547.544 570.482 549.895C572.014 550.92 573.015 551.871 573.395 552.25C573.608 552.462 573.672 552.552 572.829 551.604L525.002 594.13ZM524.099 593.123C524.367 593.417 524.628 593.71 525.001 594.13L572.83 551.605C572.48 551.211 571.973 550.64 571.404 550.016L524.099 593.123ZM522.468 551.207C522.027 551.929 521.232 553.224 520.557 554.416C520.212 555.025 519.646 556.047 519.067 557.265C518.737 557.959 517.262 561.004 516.419 565.069L579.084 578.071C578.628 580.271 578.032 581.93 577.72 582.747C577.369 583.664 577.049 584.362 576.863 584.754C576.664 585.171 576.504 585.479 576.416 585.643C576.325 585.815 576.263 585.925 576.248 585.952C576.226 585.99 576.272 585.908 576.442 585.626C576.609 585.349 576.805 585.026 577.09 584.561L522.468 551.207ZM521.158 553.572L521.157 553.573L578.401 582.195L578.401 582.194L521.158 553.572ZM548.802 582.25C546.265 582.002 541.712 581.128 536.842 577.96C531.555 574.522 527.7 569.539 525.601 564.044C523.692 559.045 523.658 554.782 523.822 552.453C523.99 550.071 524.458 548.418 524.655 547.779C525.013 546.614 525.232 546.416 524.614 547.563C524.085 548.546 523.434 549.625 522.467 551.208L577.091 584.558C578.272 582.623 583.308 574.771 585.82 566.616C586.887 563.15 589.813 552.791 585.389 541.209C579.336 525.36 565.154 519.546 555.039 518.555L548.802 582.25ZM575.471 554.193C564.291 552.59 571.492 549.999 573.43 559.829C574.127 563.365 573.677 567.893 570.857 572.315C567.983 576.824 561.405 582.505 551.581 582.401L552.26 518.405C535.781 518.23 523.453 527.621 516.894 537.906C510.391 548.106 508.326 560.477 510.639 572.209C515.809 598.431 539.169 613.644 566.391 617.545L575.471 554.193ZM455.324 483.216C451.88 480.037 445.817 474.907 437.014 472.16C427.767 469.274 419.567 470.239 414.134 471.331L426.741 534.077C427.069 534.011 423.182 534.887 417.948 533.254C413.158 531.759 410.808 529.222 411.921 530.249L455.324 483.216ZM420.794 551.745C420.381 553.49 422.619 542.153 436.714 539.234C450.906 536.295 458.099 545.767 458.54 546.417C460.278 548.977 454.486 541.182 463.414 518.416L403.831 495.05C390.783 528.321 390.851 560.657 405.591 582.367C412.533 592.592 428.013 606.393 449.691 601.905C471.271 597.436 480.193 578.669 483.077 566.47L420.794 551.745ZM490.493 540.819C485.748 535.296 477.149 527.345 463.686 525.655C452.44 524.243 443.013 528.219 440.116 529.371L463.755 588.845C464.924 588.38 464.607 588.57 463.593 588.811C462.413 589.092 459.539 589.637 455.714 589.157C446.642 588.018 442.018 582.607 441.946 582.523L490.493 540.819ZM392.024 487.983C371.147 528.281 376.461 572.71 398.361 598.781C409.423 611.95 429.247 624.517 453.272 618.007C475.766 611.911 488.957 592.288 496.204 572.849L436.235 550.494C431.944 562.004 429.706 558.084 436.532 556.235C444.888 553.97 448.802 559.327 447.366 557.617C444.269 553.93 438.229 537.926 448.85 517.424L392.024 487.983ZM456.049 526.146C459.824 532.284 459.93 537.636 459.945 537.932C460.013 539.245 459.901 539.983 459.869 540.193C459.853 540.297 459.713 541.315 459.051 543.056C458.796 543.731 457.848 546.193 455.789 549.094C454.755 550.551 452.644 553.264 449.186 555.859C445.678 558.493 439.177 562.158 430.256 562.158V498.158C421.152 498.158 414.464 501.899 410.768 504.673C407.121 507.41 404.819 510.332 403.595 512.056C401.156 515.494 399.831 518.727 399.216 520.348C397.836 523.983 397.054 527.59 396.61 530.483C396.149 533.483 395.824 537.208 396.029 541.211C396.182 544.196 396.778 551.939 401.533 559.671L456.049 526.146ZM431.56 512.474C431.637 512.449 431.762 512.412 431.985 512.372C432.181 512.337 432.718 512.252 433.599 512.245C434.354 512.239 436.214 512.278 438.754 512.929C440.94 513.49 446.319 515.181 451.419 520.281L406.164 565.536C412.179 571.551 418.94 573.919 422.856 574.923C427.126 576.018 431.063 576.268 434.125 576.243C440.265 576.192 446.365 575.002 451.799 573.19L431.56 512.474ZM442.779 562.38C427.399 562.38 419.146 552.111 416.694 548.35C414.027 544.261 413.128 540.677 412.868 539.583C412.232 536.911 412.301 535.205 412.323 534.719C412.348 534.193 412.446 532.414 413.368 529.795C413.833 528.475 414.901 525.804 417.148 522.803C419.398 519.797 423.956 515.009 431.56 512.474L451.799 573.19C467.735 567.878 472.766 553.803 473.735 551.051C475.515 545.995 476.094 541.17 476.255 537.669C476.415 534.207 476.278 529.594 475.127 524.759C474.609 522.583 473.376 518.103 470.301 513.389C467.441 509.003 458.707 498.38 442.779 498.38V562.38ZM422.039 561.085C424.81 561.821 429.928 563.209 436.066 563.259C441.523 563.304 446.655 562.213 448.716 561.824L436.842 498.935C436.064 499.082 435.523 499.183 435.074 499.264C434.631 499.343 434.441 499.372 434.395 499.379C434.34 499.387 435.232 499.25 436.585 499.261C437.255 499.267 437.892 499.307 438.471 499.368C439.031 499.428 439.441 499.499 439.645 499.537C439.832 499.572 439.857 499.583 439.636 499.53C439.41 499.476 439.055 499.386 438.473 499.231L422.039 561.085ZM460.074 613.136C467.659 616.731 476.212 618.42 485.201 617.093C493.391 615.884 499.454 612.477 502.314 610.783L469.696 555.719C469.055 556.099 471.604 554.407 475.854 553.78C480.905 553.034 485.096 554.171 487.485 555.303L460.074 613.136ZM554.572 583.102C552.88 562.21 547.596 543.708 537.736 529.703C527.665 515.396 510.643 503.651 489.429 506.197C469.098 508.638 455.448 523.028 448.529 537.522C441.456 552.34 439.531 570.122 442.08 588.594L505.479 579.845C504.22 570.72 505.793 566.125 506.286 565.092C506.935 563.734 504.921 568.797 497.056 569.741C493.255 570.198 489.923 569.316 487.643 568.1C485.532 566.974 484.982 565.945 485.404 566.544C486.435 568.008 489.634 574.113 490.781 588.268L554.572 583.102ZM494.121 614.265C498.852 616.648 506.275 619.776 515.674 619.755C525.011 619.733 532.369 616.605 536.932 614.334L508.42 557.036C507.477 557.505 510.514 555.766 515.527 555.755C520.601 555.743 523.696 557.502 522.908 557.105L494.121 614.265ZM517.571 577.998C516.739 572.998 517.572 571.978 516.954 573.828C516.853 574.13 512.21 587.145 495.872 588.29C488.246 588.824 482.435 586.039 479.176 583.644C476.11 581.392 474.871 579.261 474.708 578.976C474.43 578.491 475.902 581.065 476.669 588.831L540.359 582.539C539.075 569.541 536.013 557.253 530.261 547.198C525.399 538.698 512.904 522.94 491.401 524.446C469.254 525.997 459.404 544.103 456.245 553.569C452.57 564.583 452.491 576.801 454.439 588.504L517.571 577.998ZM442.52 491.21C440.85 514.994 441.257 529.061 443.4 552.589L507.136 546.785C505.251 526.082 504.972 515.503 506.363 495.695L442.52 491.21ZM506.368 469.176C502.845 466.644 495.595 461.701 485.597 460.283C474.597 458.722 465.758 462.074 460.366 464.715L488.518 522.191C488.348 522.274 483.568 524.636 476.607 523.648C470.647 522.802 467.414 519.995 469.028 521.154L506.368 469.176ZM517.278 534.725C515.864 522.256 516.346 516.094 519.155 501.034L456.241 489.296C452.664 508.471 451.346 521.309 453.686 541.939L517.278 534.725ZM502.498 566.495C503.78 564.418 504.034 564.232 503.767 564.531C503.612 564.704 503.471 564.835 503.428 564.873C503.418 564.882 503.612 564.71 504.19 564.294L466.775 512.37C458.007 518.688 453.107 524.667 448.038 532.879L502.498 566.495Z" fill="white" mask="url(#path-1-outside-1_108_7496)"/>
<path d="M462.272 448.337C484.423 454.145 500.304 449.76 520.434 436.704C499.244 293.459 449.347 245.411 378.257 247.996C188.258 262.214 279.595 506.5 454.083 427.657C454.937 401.764 450.865 389.526 437.28 370.786C426.508 370.786 318.803 404.391 327.848 335.888C351.116 272.554 462.272 303.575 462.272 448.337Z" fill="url(#paint0_linear_108_7496)"/>
<path d="M462.272 448.337C484.423 454.145 500.304 449.76 520.434 436.704C499.244 293.459 449.347 245.411 378.257 247.996C188.258 262.214 279.595 506.5 454.083 427.657C454.937 401.764 450.865 389.526 437.28 370.786C426.508 370.786 318.803 404.391 327.848 335.888C351.116 272.554 462.272 303.575 462.272 448.337Z" fill="url(#paint1_linear_108_7496)"/>
<path d="M358.492 31.2617C167.198 -33.3518 115.498 297.523 225.362 450.038C252.525 453.584 261.484 446.624 268.016 420.31C199.511 310.46 216.314 130.799 288.696 86.8401C393.335 39.8028 366.192 205.752 249.92 145.003C240.522 168.597 237.527 181.917 238.288 205.752C402.437 262.636 476.056 86.8401 358.492 31.2617Z" fill="url(#paint2_linear_108_7496)"/>
<ellipse cx="246.616" cy="435.491" rx="7.8141" ry="17.6339" transform="rotate(52.2222 246.616 435.491)" fill="#CDB136"/>
<path d="M509.085 241.542C396.989 216.789 453.542 21.9361 572.631 108.444C574.602 113.002 554.898 142.646 548.135 142.978C469.641 117.773 489.427 199.342 577.572 217.556C697.681 254.324 650.554 425.384 537.562 385.538C537.897 367.235 541.466 357.834 552.695 342.38C627.337 332.627 588.217 255.195 509.085 241.542Z" fill="url(#paint3_linear_108_7496)"/>
<ellipse cx="547.351" cy="366.572" rx="4.86015" ry="17.6339" transform="rotate(18.2282 547.351 366.572)" fill="#CDB136"/>
<ellipse cx="557.386" cy="123.598" rx="5.45136" ry="17.6339" transform="rotate(31.8911 557.386 123.598)" fill="#CDB136"/>
<path d="M673.936 268.784C580.875 201.569 710.127 45.1728 785.092 171.845C785.092 176.81 755.24 196.198 748.902 193.818C686.861 139.527 672.643 222.248 746.317 273.954C841.964 355.378 730.807 493.677 642.915 412.254C650.488 395.587 657.495 388.375 673.936 378.648C746.317 399.325 741.147 312.726 673.936 268.784Z" fill="url(#paint4_linear_108_7496)"/>
<ellipse cx="659.428" cy="398.732" rx="4.86015" ry="17.6339" transform="rotate(41.6154 659.428 398.732)" fill="#CDB136"/>
<ellipse cx="765.083" cy="179.701" rx="5.45136" ry="17.6339" transform="rotate(55.2783 765.083 179.701)" fill="#CDB136"/>
<ellipse cx="442.168" cy="400.052" rx="6.4626" ry="21.9728" transform="rotate(-17.1159 442.168 400.052)" fill="#CDB136"/>
<ellipse cx="249.188" cy="177.043" rx="6.4626" ry="23.9976" transform="rotate(11.0832 249.188 177.043)" fill="#CDB136"/>
<ellipse cx="491.135" cy="439.732" rx="6.4626" ry="21.9728" transform="rotate(-101.974 491.135 439.732)" fill="#CDB136"/>
<path d="M309.836 951.101C331.986 956.908 347.868 952.524 367.997 939.468C346.807 796.223 296.911 748.175 225.82 750.76C35.8214 764.978 127.158 1009.26 301.647 930.42C302.501 904.527 298.429 892.29 284.844 873.55C274.071 873.55 166.366 907.155 175.412 838.651C198.679 775.318 309.836 806.339 309.836 951.101Z" fill="url(#paint5_linear_108_7496)"/>
<path d="M309.836 951.101C331.986 956.908 347.868 952.524 367.997 939.468C346.807 796.223 296.911 748.175 225.82 750.76C35.8214 764.978 127.158 1009.26 301.647 930.42C302.501 904.527 298.429 892.29 284.844 873.55C274.071 873.55 166.366 907.155 175.412 838.651C198.679 775.318 309.836 806.339 309.836 951.101Z" fill="url(#paint6_linear_108_7496)"/>
<path d="M206.056 534.025C14.7618 469.412 -36.9382 800.287 72.926 952.802C100.088 956.348 109.048 949.387 115.579 923.074C47.0748 813.223 63.8775 633.563 136.259 589.604C240.899 542.566 213.756 708.516 97.4839 647.767C88.0851 671.361 85.0907 684.681 85.8512 708.516C250 765.4 323.62 589.604 206.056 534.025Z" fill="url(#paint7_linear_108_7496)"/>
<ellipse cx="94.1798" cy="938.255" rx="7.8141" ry="17.6339" transform="rotate(52.2222 94.1798 938.255)" fill="#CDB136"/>
<path d="M356.65 744.307C244.554 719.553 301.107 524.701 420.195 611.209C422.166 615.766 402.462 645.411 395.7 645.742C317.206 620.538 336.992 702.107 425.137 720.321C545.246 757.089 498.118 928.149 385.127 888.303C385.462 869.999 389.03 860.598 400.259 845.145C474.902 835.392 435.782 757.96 356.65 744.307Z" fill="url(#paint8_linear_108_7496)"/>
<ellipse cx="394.916" cy="869.336" rx="4.86015" ry="17.6339" transform="rotate(18.2282 394.916 869.336)" fill="#CDB136"/>
<ellipse cx="404.949" cy="626.361" rx="5.45136" ry="17.6339" transform="rotate(31.8911 404.949 626.361)" fill="#CDB136"/>
<ellipse cx="289.732" cy="902.816" rx="6.4626" ry="21.9728" transform="rotate(-17.1159 289.732 902.816)" fill="#CDB136"/>
<ellipse cx="96.7519" cy="679.807" rx="6.4626" ry="23.9976" transform="rotate(11.0832 96.7519 679.807)" fill="#CDB136"/>
<ellipse cx="338.699" cy="942.496" rx="6.4626" ry="21.9728" transform="rotate(-101.974 338.699 942.496)" fill="#CDB136"/>
<path d="M881.288 833.154C903.916 836.671 919.267 830.69 937.959 815.648C902.265 675.312 847.727 632.606 777.271 642.431C589.714 675.959 705.498 909.652 871.032 813.417C869.24 787.572 863.94 775.814 848.514 758.557C837.798 759.656 734.084 804.076 736.093 735.006C752.777 669.63 866.519 689.148 881.288 833.154Z" fill="url(#paint9_linear_108_7496)"/>
<ellipse cx="856.362" cy="787.174" rx="6.4626" ry="21.9728" transform="rotate(-22.9718 856.362 787.174)" fill="#CDB136"/>
<ellipse cx="909.123" cy="821.651" rx="6.4626" ry="21.9728" transform="rotate(-107.83 909.123 821.651)" fill="#CDB136"/>
<path d="M614.923 647.127C595.073 628.809 582.588 624.539 557.497 629.58C420.311 894.376 656.393 1155.98 756.892 886.401C736.541 862.711 722.258 864.273 694.68 875.234C665.966 996.693 519.211 891.186 614.923 647.127Z" fill="url(#paint10_linear_108_7496)"/>
<path d="M593.88 804.681C585.345 790.801 593.88 749.152 600.261 749.152C624.67 755.637 628.165 755.144 654.799 750.116C664.37 750.116 664.37 799.566 650.014 804.351C626.087 812.327 601.856 812.657 593.88 804.681Z" fill="url(#paint11_linear_108_7496)"/>
<ellipse cx="584.222" cy="640.542" rx="21.9728" ry="7.75512" transform="rotate(17.6118 584.222 640.542)" fill="#CDB136"/>
<ellipse cx="650.201" cy="776.28" rx="21.9728" ry="7.75512" transform="rotate(90.1566 650.201 776.28)" fill="#CDB136"/>
<ellipse cx="724.368" cy="882.704" rx="21.9728" ry="7.75512" transform="rotate(4.63583 724.368 882.704)" fill="#CDB136"/>
<path d="M567.385 582.322C567.657 587.573 565.931 590.939 562.056 594.856C535.695 589.784 522.366 569.951 526.263 554.089C538.11 515.466 580.598 539.376 554.733 574.927C548.872 573.911 547.785 571.951 544.205 568.023C544.708 565.601 558.815 547.879 548.374 546.856C535.065 546.715 528.983 576.819 567.385 582.322Z" fill="url(#paint12_linear_108_7496)"/>
<ellipse cx="1.48386" cy="5.04512" rx="1.48386" ry="5.04512" transform="matrix(-0.569856 0.821745 0.821745 0.569856 546.74 566.652)" fill="#CDB136"/>
<ellipse cx="1.48386" cy="5.04512" rx="1.48386" ry="5.04512" transform="matrix(-0.915698 -0.401867 -0.401867 0.915698 567.49 584.386)" fill="#CDB136"/>
<path d="M430.076 503.184C425.518 498.978 422.652 497.998 416.891 499.155C385.392 559.954 439.598 620.021 462.673 558.123C458 552.684 454.721 553.042 448.389 555.559C441.796 583.447 408.1 559.222 430.076 503.184Z" fill="url(#paint13_linear_108_7496)"/>
<path d="M425.245 539.36C423.285 536.173 425.245 526.61 426.71 526.61C432.314 528.099 433.116 527.986 439.232 526.831C441.43 526.831 441.43 538.185 438.133 539.284C432.639 541.115 427.076 541.191 425.245 539.36Z" fill="url(#paint14_linear_108_7496)"/>
<ellipse cx="423.027" cy="501.672" rx="5.04511" ry="1.78063" transform="rotate(17.6118 423.027 501.672)" fill="#CDB136"/>
<ellipse cx="438.176" cy="532.839" rx="5.04511" ry="1.78063" transform="rotate(90.1566 438.176 532.839)" fill="#CDB136"/>
<ellipse cx="455.206" cy="557.275" rx="5.04511" ry="1.78063" transform="rotate(4.63583 455.206 557.275)" fill="#CDB136"/>
<path d="M470.233 580.673C475.429 583.136 478.957 581.778 482.458 579.705C476.899 546.299 500.865 540.61 504.968 582.138C510.487 584.918 513.623 584.878 519.129 582.138C513.452 512.044 462.616 525.48 470.233 580.673Z" fill="url(#paint15_linear_108_7496)"/>
<path d="M471.721 546.141C469.707 524.025 469.364 511.702 470.895 489.906C476.118 487.348 479.014 487.927 484.151 491.618C480.958 508.735 480.058 518.236 481.936 534.785C477.286 538.136 475.085 540.691 471.721 546.141Z" fill="url(#paint16_linear_108_7496)"/>
<ellipse cx="477.773" cy="490.991" rx="4.88581" ry="1.35717" transform="rotate(8.9956 477.773 490.991)" fill="#CDB136"/>
<ellipse cx="476.432" cy="579.012" rx="4.88581" ry="1.76644" transform="rotate(-7.51289 476.432 579.012)" fill="#CDB136"/>
<ellipse cx="511.962" cy="581.067" rx="5.49275" ry="1.98587" transform="rotate(-0.231252 511.962 581.067)" fill="#CDB136"/>
<defs>
<linearGradient id="paint0_linear_108_7496" x1="396.504" y1="247.898" x2="396.504" y2="450.855" gradientUnits="userSpaceOnUse">
<stop stop-color="#FFE676"/>
<stop offset="1" stop-color="#FFD100"/>
</linearGradient>
<linearGradient id="paint1_linear_108_7496" x1="396.504" y1="247.898" x2="396.504" y2="450.855" gradientUnits="userSpaceOnUse">
<stop stop-color="#FFE676"/>
<stop offset="1" stop-color="#FFD100"/>
</linearGradient>
<linearGradient id="paint2_linear_108_7496" x1="292.25" y1="23" x2="292.25" y2="450.897" gradientUnits="userSpaceOnUse">
<stop stop-color="#FFE676"/>
<stop offset="1" stop-color="#FFD100"/>
</linearGradient>
<linearGradient id="paint3_linear_108_7496" x1="487.668" y1="92.8611" x2="612.004" y2="380.361" gradientUnits="userSpaceOnUse">
<stop stop-color="#FFE676"/>
<stop offset="1" stop-color="#FFD100"/>
</linearGradient>
<linearGradient id="paint4_linear_108_7496" x1="713.295" y1="123.817" x2="713.295" y2="437.051" gradientUnits="userSpaceOnUse">
<stop stop-color="#FFE676"/>
<stop offset="1" stop-color="#FFD100"/>
</linearGradient>
<linearGradient id="paint5_linear_108_7496" x1="244.067" y1="750.662" x2="244.067" y2="953.619" gradientUnits="userSpaceOnUse">
<stop stop-color="#FFE676"/>
<stop offset="1" stop-color="#FFD100"/>
</linearGradient>
<linearGradient id="paint6_linear_108_7496" x1="244.067" y1="750.662" x2="244.067" y2="953.619" gradientUnits="userSpaceOnUse">
<stop stop-color="#FFE676"/>
<stop offset="1" stop-color="#FFD100"/>
</linearGradient>
<linearGradient id="paint7_linear_108_7496" x1="139.814" y1="525.764" x2="139.814" y2="953.661" gradientUnits="userSpaceOnUse">
<stop stop-color="#FFE676"/>
<stop offset="1" stop-color="#FFD100"/>
</linearGradient>
<linearGradient id="paint8_linear_108_7496" x1="335.232" y1="595.626" x2="459.568" y2="883.126" gradientUnits="userSpaceOnUse">
<stop stop-color="#FFE676"/>
<stop offset="1" stop-color="#FFD100"/>
</linearGradient>
<linearGradient id="paint9_linear_108_7496" x1="795.413" y1="640.471" x2="816.12" y2="842.37" gradientUnits="userSpaceOnUse">
<stop stop-color="#FFE676"/>
<stop offset="1" stop-color="#FFD100"/>
</linearGradient>
<linearGradient id="paint10_linear_108_7496" x1="636.305" y1="627.619" x2="636.305" y2="999.865" gradientUnits="userSpaceOnUse">
<stop stop-color="#FFE676"/>
<stop offset="1" stop-color="#FFD100"/>
</linearGradient>
<linearGradient id="paint11_linear_108_7496" x1="636.305" y1="627.619" x2="636.305" y2="999.865" gradientUnits="userSpaceOnUse">
<stop stop-color="#FFE676"/>
<stop offset="1" stop-color="#FFD100"/>
</linearGradient>
<linearGradient id="paint12_linear_108_7496" x1="525.348" y1="558.426" x2="570.969" y2="567.892" gradientUnits="userSpaceOnUse">
<stop stop-color="#FFE676"/>
<stop offset="1" stop-color="#FFD100"/>
</linearGradient>
<linearGradient id="paint13_linear_108_7496" x1="434.985" y1="498.705" x2="434.985" y2="584.175" gradientUnits="userSpaceOnUse">
<stop stop-color="#FFE676"/>
<stop offset="1" stop-color="#FFD100"/>
</linearGradient>
<linearGradient id="paint14_linear_108_7496" x1="434.985" y1="498.705" x2="434.985" y2="584.175" gradientUnits="userSpaceOnUse">
<stop stop-color="#FFE676"/>
<stop offset="1" stop-color="#FFD100"/>
</linearGradient>
<linearGradient id="paint15_linear_108_7496" x1="494.293" y1="534.316" x2="494.293" y2="584.208" gradientUnits="userSpaceOnUse">
<stop stop-color="#FFE676"/>
<stop offset="1" stop-color="#FFD100"/>
</linearGradient>
<linearGradient id="paint16_linear_108_7496" x1="474.98" y1="488.443" x2="480.501" y2="545.288" gradientUnits="userSpaceOnUse">
<stop stop-color="#FFE676"/>
<stop offset="1" stop-color="#FFD100"/>
</linearGradient>
</defs>
</svg>
