<svg width="401" height="400" viewBox="0 0 401 400" fill="none" xmlns="http://www.w3.org/2000/svg">
<g filter="url(#filter0_d_108_8614)">
<mask id="path-1-outside-1_108_8614" maskUnits="userSpaceOnUse" x="3.72449" y="-0.915039" width="393" height="393" fill="black">
<rect fill="white" x="3.72449" y="-0.915039" width="393" height="393"/>
<path fill-rule="evenodd" clip-rule="evenodd" d="M200.409 362.455C292.467 362.455 367.094 287.827 367.094 195.77C367.094 103.712 292.467 29.085 200.409 29.085C108.352 29.085 33.7245 103.712 33.7245 195.77C33.7245 287.827 108.352 362.455 200.409 362.455Z"/>
</mask>
<path fill-rule="evenodd" clip-rule="evenodd" d="M200.409 362.455C292.467 362.455 367.094 287.827 367.094 195.77C367.094 103.712 292.467 29.085 200.409 29.085C108.352 29.085 33.7245 103.712 33.7245 195.77C33.7245 287.827 108.352 362.455 200.409 362.455Z" fill="#CD9434"/>
<path d="M338.042 195.77C338.042 271.783 276.422 333.403 200.409 333.403V391.506C308.512 391.506 396.146 303.872 396.146 195.77H338.042ZM200.409 58.1367C276.422 58.1367 338.042 119.757 338.042 195.77H396.146C396.146 87.6675 308.512 0.0332222 200.409 0.0332222V58.1367ZM62.7762 195.77C62.7762 119.757 124.397 58.1367 200.409 58.1367V0.0332222C92.307 0.0332222 4.67275 87.6675 4.67275 195.77H62.7762ZM200.409 333.403C124.397 333.403 62.7762 271.783 62.7762 195.77H4.67275C4.67275 303.872 92.307 391.506 200.409 391.506V333.403Z" fill="white" mask="url(#path-1-outside-1_108_8614)"/>
<circle cx="197.685" cy="191.685" r="166.685" fill="#FAFAFA"/>
<circle cx="196.45" cy="192.921" r="113.593" fill="white"/>
<path d="M187.907 86.8569C310.143 93.0304 362 275.766 192.846 297.991C45.9232 304.165 68.1478 80.7982 187.907 86.8569Z" fill="#FFFAD1"/>
<path fill-rule="evenodd" clip-rule="evenodd" d="M244.447 104.289C238.798 114.246 236.522 124.981 240.265 137.563C243.981 150.051 250.654 155.72 260.402 164.002C260.684 164.241 260.968 164.482 261.255 164.726C270.316 172.431 279.872 173.832 289.559 175.252C292.28 175.652 295.013 176.052 297.747 176.595C310.411 228.626 283.061 286.136 192.845 297.989C111.079 301.425 81.7012 233.767 92.3681 174.127C94.7059 174.562 97.0567 174.907 99.4153 175.252C108.485 176.582 117.67 177.929 126.673 184.482C134.29 190.025 137.968 197.32 141.531 204.387C145.744 212.743 149.797 220.781 160.01 225.227C170.694 229.877 179.831 226.412 189.193 222.862C197.758 219.615 206.51 216.296 216.807 219.053C223.222 220.771 227.51 223.25 232.086 225.895C235.237 227.716 238.524 229.616 242.735 231.4C244.371 232.093 245.774 233.129 247.103 234.111C249.659 235.999 251.942 237.685 255.082 236.339C259.689 234.365 258.141 229.45 256.528 224.334C255.969 222.56 255.403 220.762 255.082 219.053C252.096 203.128 235.377 204.245 217.987 205.407C201.011 206.541 183.397 207.718 177.296 193.125C175.129 187.941 175.271 183.412 175.413 178.875C175.554 174.381 175.694 169.879 173.592 164.726C168.151 151.39 154.603 149.653 140.991 147.908C127.498 146.178 113.941 144.44 108.153 131.389L108.143 131.366C124.555 104.059 151.797 85.0282 187.907 86.855C209.14 87.9274 228.25 94.3276 244.447 104.289Z" fill="#FFF28A"/>
<path d="M215.544 200.508C191.348 192.676 170.311 203.386 170.056 200.897C171.434 194.718 187.92 185.443 209.461 187.8C217.375 188.666 218.633 201.197 215.544 200.508Z" fill="#90AA31"/>
</g>
<defs>
<filter id="filter0_d_108_8614" x="0.672729" y="0.0332031" width="399.473" height="399.473" filterUnits="userSpaceOnUse" color-interpolation-filters="sRGB">
<feFlood flood-opacity="0" result="BackgroundImageFix"/>
<feColorMatrix in="SourceAlpha" type="matrix" values="0 0 0 0 0 0 0 0 0 0 0 0 0 0 0 0 0 0 127 0" result="hardAlpha"/>
<feOffset dy="4"/>
<feGaussianBlur stdDeviation="2"/>
<feComposite in2="hardAlpha" operator="out"/>
<feColorMatrix type="matrix" values="0 0 0 0 0 0 0 0 0 0 0 0 0 0 0 0 0 0 0.25 0"/>
<feBlend mode="normal" in2="BackgroundImageFix" result="effect1_dropShadow_108_8614"/>
<feBlend mode="normal" in="SourceGraphic" in2="effect1_dropShadow_108_8614" result="shape"/>
</filter>
</defs>
</svg>
