<svg width="501" height="885" viewBox="0 0 501 885" fill="none" xmlns="http://www.w3.org/2000/svg">
<mask id="path-1-outside-1_218_560" maskUnits="userSpaceOnUse" x="-30" y="68" width="556" height="687" fill="black">
<rect fill="white" x="-30" y="68" width="556" height="687"/>
<path d="M46.6889 681.503C38.4093 676.876 34.513 656.177 35 619.406C35.7306 582.634 37.0699 560.231 39.0181 552.194C52.6551 494.968 77.981 452.108 114.996 423.617C152.011 394.881 195.722 370.53 246.131 350.561C266.586 342.525 275.962 334.124 274.257 325.357C272.796 316.59 266.951 310.137 256.724 305.997C246.496 301.614 235.294 300.762 223.118 303.44C211.186 306.119 204.976 314.642 204.489 329.01C204.002 334.367 202.054 338.994 198.644 342.89C191.826 350.196 179.285 353.727 161.021 353.483C143 353.24 125.224 351.292 107.69 347.639C95.7579 345.204 84.556 342.038 74.0847 338.142C63.8569 334.245 54.725 327.549 46.6889 318.051C37.1917 307.093 39.2616 287.49 52.8986 259.242C66.5356 230.993 78.8333 211.147 89.7917 199.701C124.858 163.417 167.474 141.744 217.639 134.682C267.804 127.62 314.438 135.534 357.54 158.425C398.451 180.342 428.769 216.017 448.494 265.451C468.219 314.886 466.028 361.032 441.919 403.892C421.22 440.663 391.268 465.137 352.061 477.312C312.855 489.245 283.389 505.074 263.664 524.799C294.591 524.068 325.518 523.094 356.444 521.876C387.371 520.659 407.827 520.659 417.811 521.876C427.308 522.363 435.223 529.912 441.554 544.524C448.129 558.891 452.634 575.207 455.069 593.471C457.748 611.735 458.235 629.512 456.531 646.801C455.069 663.848 451.051 675.293 444.476 681.137C440.824 684.547 419.394 686.982 380.188 688.443C340.981 689.904 297.878 690.635 250.879 690.635C203.88 690.635 159.925 689.904 119.014 688.443C78.1028 686.982 53.9944 684.669 46.6889 681.503Z"/>
</mask>
<path d="M46.6889 681.503C38.4093 676.876 34.513 656.177 35 619.406C35.7306 582.634 37.0699 560.231 39.0181 552.194C52.6551 494.968 77.981 452.108 114.996 423.617C152.011 394.881 195.722 370.53 246.131 350.561C266.586 342.525 275.962 334.124 274.257 325.357C272.796 316.59 266.951 310.137 256.724 305.997C246.496 301.614 235.294 300.762 223.118 303.44C211.186 306.119 204.976 314.642 204.489 329.01C204.002 334.367 202.054 338.994 198.644 342.89C191.826 350.196 179.285 353.727 161.021 353.483C143 353.24 125.224 351.292 107.69 347.639C95.7579 345.204 84.556 342.038 74.0847 338.142C63.8569 334.245 54.725 327.549 46.6889 318.051C37.1917 307.093 39.2616 287.49 52.8986 259.242C66.5356 230.993 78.8333 211.147 89.7917 199.701C124.858 163.417 167.474 141.744 217.639 134.682C267.804 127.62 314.438 135.534 357.54 158.425C398.451 180.342 428.769 216.017 448.494 265.451C468.219 314.886 466.028 361.032 441.919 403.892C421.22 440.663 391.268 465.137 352.061 477.312C312.855 489.245 283.389 505.074 263.664 524.799C294.591 524.068 325.518 523.094 356.444 521.876C387.371 520.659 407.827 520.659 417.811 521.876C427.308 522.363 435.223 529.912 441.554 544.524C448.129 558.891 452.634 575.207 455.069 593.471C457.748 611.735 458.235 629.512 456.531 646.801C455.069 663.848 451.051 675.293 444.476 681.137C440.824 684.547 419.394 686.982 380.188 688.443C340.981 689.904 297.878 690.635 250.879 690.635C203.88 690.635 159.925 689.904 119.014 688.443C78.1028 686.982 53.9944 684.669 46.6889 681.503Z" fill="#C6A50D"/>
<path d="M46.6889 681.503L15.4683 737.371L18.2832 738.944L21.242 740.226L46.6889 681.503ZM35 619.406L-28.9874 618.134L-28.9916 618.346L-28.9944 618.558L35 619.406ZM39.0181 552.194L101.216 567.273L101.246 567.152L101.275 567.03L39.0181 552.194ZM114.996 423.617L154.033 474.332L154.138 474.252L154.242 474.171L114.996 423.617ZM246.131 350.561L222.729 290.993L222.644 291.026L222.56 291.06L246.131 350.561ZM274.257 325.357L211.128 335.878L211.269 336.728L211.434 337.573L274.257 325.357ZM256.724 305.997L231.513 364.822L232.11 365.078L232.711 365.322L256.724 305.997ZM223.118 303.44L209.367 240.935L209.233 240.964L209.1 240.994L223.118 303.44ZM204.489 329.01L268.226 334.804L268.391 332.994L268.452 331.178L204.489 329.01ZM198.644 342.89L245.432 386.559L246.133 385.808L246.809 385.035L198.644 342.89ZM161.021 353.483L160.156 417.477L160.168 417.478L161.021 353.483ZM107.69 347.639L120.743 284.984L120.616 284.958L120.488 284.931L107.69 347.639ZM74.0847 338.142L51.301 397.949L51.5331 398.037L51.7658 398.124L74.0847 338.142ZM46.6889 318.051L95.5456 276.711L95.301 276.422L95.053 276.136L46.6889 318.051ZM89.7917 199.701L43.7713 155.225L43.6674 155.333L43.564 155.441L89.7917 199.701ZM357.54 158.425L387.762 102.01L387.661 101.956L387.558 101.901L357.54 158.425ZM441.919 403.892L497.69 435.286L497.695 435.277L497.7 435.268L441.919 403.892ZM352.061 477.312L370.695 538.54L370.869 538.487L371.043 538.433L352.061 477.312ZM263.664 524.799L218.409 479.544L105.398 592.555L265.175 588.781L263.664 524.799ZM417.811 521.876L410.064 585.406L412.292 585.677L414.533 585.792L417.811 521.876ZM441.554 544.524L382.831 569.97L383.089 570.566L383.358 571.156L441.554 544.524ZM455.069 593.471L391.631 601.929L391.686 602.344L391.747 602.758L455.069 593.471ZM456.531 646.801L392.839 640.522L392.799 640.929L392.764 641.336L456.531 646.801ZM444.476 681.137L401.957 633.303L401.376 633.82L400.808 634.35L444.476 681.137ZM77.9095 625.634C91.671 633.325 97.3986 643.996 98.9812 647.288C100.769 651.006 100.851 652.789 100.452 650.669C100.122 648.916 99.6639 645.568 99.3443 640.181C99.0307 634.895 98.8878 628.3 98.9944 620.253L-28.9944 618.558C-29.2592 638.554 -28.446 657.839 -25.3385 674.347C-23.7894 682.577 -21.2105 692.701 -16.3791 702.75C-11.7525 712.373 -2.43306 727.367 15.4683 737.371L77.9095 625.634ZM98.9874 620.677C99.3449 602.68 99.841 588.836 100.438 578.844C100.737 573.84 101.037 570.229 101.301 567.787C101.619 564.844 101.718 565.204 101.216 567.273L-23.1804 537.116C-25.6897 547.467 -26.696 560.541 -27.3335 571.205C-28.0755 583.617 -28.6144 599.36 -28.9874 618.134L98.9874 620.677ZM101.275 567.03C112.414 520.286 131.389 491.762 154.033 474.332L75.9582 372.901C24.573 412.454 -7.10359 469.649 -23.2387 537.359L101.275 567.03ZM154.242 474.171C185.8 449.672 224.053 428.145 269.701 410.063L222.56 291.06C167.391 312.914 118.221 340.091 75.7497 373.062L154.242 474.171ZM269.532 410.129C282.377 405.083 298.125 397.626 311.215 385.896C325.066 373.484 343.877 348.095 337.08 313.141L211.434 337.573C209.21 326.138 210.914 314.956 215.025 305.755C218.754 297.411 223.591 292.543 225.793 290.57C229.508 287.241 230.34 288.003 222.729 290.993L269.532 410.129ZM337.386 314.835C331.348 278.606 305.851 256.838 280.736 246.673L232.711 365.322C231.203 364.711 226.386 362.475 221.341 356.904C215.854 350.845 212.368 343.322 211.128 335.878L337.386 314.835ZM281.934 247.172C257.963 236.898 232.955 235.746 209.367 240.935L236.869 365.946C237.514 365.804 237.07 365.983 235.796 365.886C234.452 365.784 232.927 365.428 231.513 364.822L281.934 247.172ZM209.1 240.994C190.543 245.16 171.477 255.362 157.784 274.155C144.852 291.905 141.049 311.389 140.526 326.841L268.452 331.178C268.415 332.263 267.961 340.302 261.239 349.529C253.756 359.799 243.76 364.399 237.137 365.886L209.1 240.994ZM140.752 323.215C141.061 319.809 141.922 315.833 143.678 311.662C145.444 307.468 147.817 303.788 150.48 300.746L246.809 385.035C259.481 370.553 266.567 353.057 268.226 334.804L140.752 323.215ZM151.857 299.222C158.518 292.085 165.131 289.877 166.78 289.413C168.272 288.993 167.121 289.559 161.874 289.489L160.168 417.478C182.733 417.778 219.32 414.536 245.432 386.559L151.857 299.222ZM161.886 289.489C147.936 289.301 134.241 287.796 120.743 284.984L94.6372 410.294C116.206 414.787 138.065 417.179 160.156 417.477L161.886 289.489ZM120.488 284.931C111.508 283.099 103.514 280.805 96.4037 278.159L51.7658 398.124C65.5981 403.271 80.0073 407.308 94.8928 410.346L120.488 284.931ZM96.8684 278.334C97.3045 278.501 97.5088 278.658 97.4122 278.587C97.2839 278.493 96.6268 277.989 95.5456 276.711L-2.16783 359.392C11.8897 376.005 29.6463 389.699 51.301 397.949L96.8684 278.334ZM95.053 276.136C99.9097 281.74 102.653 287.865 103.925 293.098C105.108 297.968 104.831 301.219 104.765 301.851C104.697 302.489 104.728 301.569 105.648 298.767C106.545 296.032 108.07 292.169 110.534 287.066L-4.73669 231.418C-13.0945 248.73 -20.3994 268.252 -22.5278 288.41C-24.7305 309.27 -21.7485 336.805 -1.67521 359.967L95.053 276.136ZM110.534 287.066C123.526 260.154 132.296 247.851 136.019 243.962L43.564 155.441C25.3705 174.443 9.54554 201.833 -4.73669 231.418L110.534 287.066ZM135.812 244.177C160.922 218.196 190.462 203.139 226.561 198.057L208.717 71.3068C144.486 80.3491 88.7946 108.639 43.7713 155.225L135.812 244.177ZM226.561 198.057C263.891 192.802 296.826 198.647 327.522 214.949L387.558 101.901C332.049 72.4216 271.716 62.438 208.717 71.3068L226.561 198.057ZM327.318 214.84C353.015 228.606 374.045 251.561 389.052 289.17L507.937 241.733C483.494 180.474 443.887 132.077 387.762 102.01L327.318 214.84ZM389.052 289.17C402.281 322.324 399.9 348.05 386.139 372.515L497.7 435.268C532.156 374.014 534.158 307.447 507.937 241.733L389.052 289.17ZM386.148 372.497C373.219 395.466 356.201 409.011 333.08 416.192L371.043 538.433C426.334 521.262 469.222 485.86 497.69 435.286L386.148 372.497ZM333.427 416.085C288.542 429.746 248.233 449.72 218.409 479.544L308.919 570.053C318.545 560.427 337.167 548.744 370.695 538.54L333.427 416.085ZM265.175 588.781C296.438 588.042 327.7 587.058 358.962 585.827L353.927 457.926C323.335 459.13 292.744 460.094 262.153 460.816L265.175 588.781ZM358.962 585.827C373.964 585.236 385.901 584.963 394.981 584.963C399.51 584.963 403.08 585.031 405.802 585.14C407.149 585.194 408.186 585.254 408.951 585.309C409.733 585.366 410.076 585.407 410.064 585.406L425.559 458.347C409.573 456.398 383.882 456.747 353.927 457.926L358.962 585.827ZM414.533 585.792C401.711 585.135 392.06 579.33 386.696 574.214C382.306 570.027 381.647 567.239 382.831 569.97L500.278 519.077C491.222 498.179 468.438 460.389 421.089 457.96L414.533 585.792ZM383.358 571.156C386.9 578.894 389.898 588.932 391.631 601.929L518.508 585.012C515.371 561.482 509.359 538.888 499.75 517.892L383.358 571.156ZM391.747 602.758C393.717 616.188 394.002 628.73 392.839 640.522L520.222 653.081C522.468 630.294 521.78 607.281 518.392 584.184L391.747 602.758ZM392.764 641.336C392.322 646.499 391.697 647.931 392.034 646.97C392.326 646.141 394.627 639.819 401.957 633.303L486.996 728.972C513.133 705.738 518.591 672.168 520.297 652.267L392.764 641.336ZM400.808 634.35C405.38 630.082 409.652 627.414 412.33 625.915C415.135 624.345 417.484 623.345 418.969 622.764C421.819 621.65 423.736 621.215 423.88 621.182C424.214 621.104 422.739 621.441 418.438 621.93C410.133 622.874 396.867 623.777 377.804 624.487L382.571 752.399C402.714 751.648 419.767 750.603 432.891 749.112C439.305 748.383 446.322 747.381 452.927 745.842C456.207 745.078 460.703 743.882 465.578 741.976C469.387 740.487 478.935 736.52 488.145 727.925L400.808 634.35ZM377.804 624.487C339.528 625.914 297.233 626.635 250.879 626.635V754.635C298.523 754.635 342.434 753.894 382.571 752.399L377.804 624.487ZM250.879 626.635C204.533 626.635 161.347 625.914 121.298 624.484L116.73 752.402C158.503 753.894 203.227 754.635 250.879 754.635V626.635ZM121.298 624.484C101.38 623.772 86.5732 622.885 76.3626 621.905C71.227 621.412 68.0244 620.967 66.3154 620.669C63.4481 620.169 66.7321 620.438 72.1358 622.779L21.242 740.226C30.2985 744.151 39.3356 745.896 44.3218 746.765C50.4663 747.837 57.2175 748.656 64.136 749.32C78.0338 750.653 95.7363 751.653 116.73 752.402L121.298 624.484Z" fill="white" mask="url(#path-1-outside-1_218_560)"/>
<path d="M14.6889 657.503C6.40926 652.876 2.51296 632.177 3 595.406C3.73056 558.634 5.06991 536.231 7.01806 528.194C20.6551 470.968 45.981 428.108 82.9958 399.617C120.011 370.881 163.722 346.53 214.131 326.561C234.586 318.525 243.962 310.124 242.257 301.357C240.796 292.59 234.951 286.137 224.724 281.997C214.496 277.614 203.294 276.762 191.118 279.44C179.186 282.119 172.976 290.642 172.489 305.01C172.002 310.367 170.054 314.994 166.644 318.89C159.826 326.196 147.285 329.727 129.021 329.483C111 329.24 93.2236 327.292 75.6903 323.639C63.7579 321.204 52.556 318.038 42.0847 314.142C31.8569 310.245 22.725 303.549 14.6889 294.051C5.19167 283.093 7.26157 263.49 20.8986 235.242C34.5356 206.993 46.8333 187.147 57.7917 175.701C92.8583 139.417 135.474 117.744 185.639 110.682C235.804 103.62 282.438 111.534 325.54 134.425C366.451 156.342 396.769 192.017 416.494 241.451C436.219 290.886 434.028 337.032 409.919 379.892C389.22 416.663 359.268 441.137 320.061 453.312C280.855 465.245 251.389 481.074 231.664 500.799C262.591 500.068 293.518 499.094 324.444 497.876C355.371 496.659 375.827 496.659 385.811 497.876C395.308 498.363 403.223 505.912 409.554 520.524C416.129 534.891 420.634 551.207 423.069 569.471C425.748 587.735 426.235 605.512 424.531 622.801C423.069 639.848 419.051 651.293 412.476 657.137C408.824 660.547 387.394 662.982 348.188 664.443C308.981 665.904 265.878 666.635 218.879 666.635C171.88 666.635 127.925 665.904 87.0139 664.443C46.1028 662.982 21.9944 660.669 14.6889 657.503Z" fill="#FFD513"/>
<ellipse cx="88.4658" cy="298.331" rx="16.8203" ry="67.5" transform="rotate(-79.0547 88.4658 298.331)" fill="#CDB136"/>
<ellipse cx="397.345" cy="580.659" rx="16.8203" ry="67.5" transform="rotate(-4.74363 397.345 580.659)" fill="#CDB136"/>
</svg>
