<svg width="1019" height="1035" viewBox="0 0 1019 1035" fill="none" xmlns="http://www.w3.org/2000/svg">
<mask id="path-1-outside-1_108_8463" maskUnits="userSpaceOnUse" x="-0.651123" y="15.3936" width="1020" height="1020" fill="black">
<rect fill="white" x="-0.651123" y="15.3936" width="1020" height="1020"/>
<path fill-rule="evenodd" clip-rule="evenodd" d="M989.476 525.457C989.476 790.589 774.544 1005.52 509.412 1005.52C244.281 1005.52 29.3489 790.589 29.3489 525.457C29.3489 260.325 244.281 45.3936 509.412 45.3936C774.544 45.3936 989.476 260.325 989.476 525.457Z"/>
</mask>
<path fill-rule="evenodd" clip-rule="evenodd" d="M989.476 525.457C989.476 790.589 774.544 1005.52 509.412 1005.52C244.281 1005.52 29.3489 790.589 29.3489 525.457C29.3489 260.325 244.281 45.3936 509.412 45.3936C774.544 45.3936 989.476 260.325 989.476 525.457Z" fill="#CD9434"/>
<path d="M509.412 1034.57C790.589 1034.57 1018.53 806.634 1018.53 525.457H960.424C960.424 774.544 758.499 976.469 509.412 976.469V1034.57ZM0.297138 525.457C0.297138 806.634 228.236 1034.57 509.412 1034.57V976.469C260.325 976.469 58.4006 774.544 58.4006 525.457H0.297138ZM509.412 16.3418C228.236 16.3418 0.297138 244.28 0.297138 525.457H58.4006C58.4006 276.37 260.325 74.4453 509.412 74.4453V16.3418ZM1018.53 525.457C1018.53 244.28 790.589 16.3418 509.412 16.3418V74.4453C758.499 74.4453 960.424 276.37 960.424 525.457H1018.53Z" fill="white" mask="url(#path-1-outside-1_108_8463)"/>
<circle cx="498.063" cy="515.412" r="480.063" fill="#FFFEFF"/>
<circle cx="498.063" cy="515.412" r="440.058" fill="#F6F6F6"/>
<path d="M235.225 328.976C261.42 285 311.47 291.309 337.851 247.445C351.001 225.581 342.111 203.336 361.227 186.44C399.806 152.341 428.017 235.532 478.107 247.445C549.71 264.475 604.694 182.043 665.115 224.069C707.951 253.863 689.149 305.848 725.551 343.23C776.641 395.695 875.327 341.771 900.586 410.507C929.604 489.472 787.773 495.966 763.181 576.42C744.501 637.531 788.062 681.193 763.181 740.052C734.97 806.786 695.126 867.519 622.925 861.493C578.441 857.781 566.028 820.024 524.859 802.768C436.234 765.621 360.165 834.201 279.696 781.673C212.005 737.486 146.584 687.47 165.667 608.918C176.201 565.556 217.399 559.173 235.225 518.265C264.754 450.497 197.395 392.485 235.225 328.976Z" fill="#D24E49"/>
<path d="M649.122 179.165C649.576 175.306 651.352 172.956 655.933 174.542C670.624 179.628 676.776 198.175 678.071 212.006C682.514 259.446 654.159 301.134 609.468 313.816C574.237 323.815 537.67 322.704 502.671 333.157C481.845 339.376 457.777 347.273 441.366 362.349C422.127 380.024 412.398 414.582 406.457 438.859C399.265 468.243 405.643 492.602 423.121 517.071C437.334 536.969 472.063 544.265 494.886 546.021C527.77 548.55 569.954 534.183 599.981 550.765C624.959 564.559 642.11 593.054 650.825 619.733C661.708 653.05 660.256 700.254 646.932 732.612C635.687 759.922 620.291 793.545 598.278 813.865C588.052 823.304 575.088 830.427 562.395 835.881C526.236 851.418 483.71 869.168 443.799 870.061C401.282 871.013 372.334 837.505 349.774 805.715C329.944 777.773 342.701 732.564 369.601 712.785C385.041 701.431 410.599 698.43 428.838 694.053C448.31 689.38 467.911 688.3 487.588 685.173C511.164 681.428 534.567 678.052 558.381 676.172C586.674 673.939 606.237 668.685 631.849 655.372C675.25 632.814 719.822 603.664 738.89 555.995C747.596 534.229 751.193 508.293 738.646 487.635C730.279 473.858 717.558 458.463 701.426 453.577C679.171 446.837 646.837 460.979 627.106 470.241C598.707 483.571 582.676 514.276 554.488 529.478C506.552 555.332 449.418 574.421 396.117 584.458C350.105 593.123 313.008 583.441 269.129 570.348C226.979 557.771 190.178 539.596 173.036 495.907C160.4 463.703 156.153 425.201 170.36 392.88C184.949 359.69 220.476 334.111 252.586 319.777C285.96 304.878 334.487 294.114 357.437 330.724C376.237 360.714 362.4 388.062 347.219 416.113C339.034 431.239 329.753 445.708 321.432 460.754C304.129 492.043 291.964 525.433 281.049 559.401C268.525 598.378 258.625 633.654 256.114 674.348C254.448 701.329 265.333 727.087 277.887 750.736C315.349 821.305 407.236 815.701 473.722 805.837C498.822 802.113 514.604 796.608 529.918 776.644C537.294 767.028 548.666 751.796 548.042 738.694C547.369 724.573 542.119 710.72 537.094 697.702C528.296 674.907 522.288 651.823 514.592 628.734C511.054 618.122 505.497 608.59 502.185 597.838C496.919 580.745 494.094 562.519 487.832 545.778C483.396 533.921 473.986 524.843 467.883 513.909C455.809 492.277 449.605 467.255 443.312 443.481C432.183 401.435 424.375 358.921 439.907 316.857C450.59 287.924 482.542 246.61 516.173 244.97C534.606 244.071 559.253 248.922 576.261 252.755C591.491 256.187 616.551 261.39 630.268 272.338C642.867 282.394 634.061 306.257 632.944 319.412C630.105 352.856 633.354 388.32 647.176 419.275C655.072 436.961 665.489 455.063 678.071 469.876C681.469 473.876 691.719 484.515 697.533 485.689C722.344 490.698 750.157 459.582 762.731 444.333C778.917 424.7 810.555 378.409 788.518 351.524C780.217 341.397 756.917 341.042 745.945 345.807C706.353 362.998 689.505 406.622 689.505 447.252C689.505 484.394 701.333 513.078 713.833 546.629C718.405 558.901 722.016 571.57 725.388 584.215C732.737 611.774 723.043 643.836 716.509 670.577C707.124 708.983 689.799 744.671 664.083 774.82C644.632 797.624 621.25 809.149 592.439 816.176C573.325 820.838 554.845 821.729 535.148 821.406C507.226 820.949 476.728 821.671 449.394 814.838C414.208 806.041 371.772 792.774 342.962 770.076C303.764 739.192 256.392 710.367 243.342 658.9C238.884 641.319 234.664 619.232 243.342 602.217C251.938 585.361 267.45 569.097 284.698 561.104C300.975 553.561 318.398 552.826 335.786 550.4C368.204 545.876 399.688 532.433 429.081 518.531C482.311 493.354 530.822 454.817 579.302 421.951C609.263 401.64 650.011 379.283 670.773 348.361C685.365 326.628 663.863 309.275 648.757 295.084C622.819 270.719 589.035 262.484 555.948 251.173C544.422 247.233 529.375 242.933 517.024 245.821C495.043 250.962 485.855 283.177 481.75 301.653C471.445 348.025 496.655 393.285 499.752 439.224C501.839 470.186 499.858 499.74 485.885 527.775C463.091 573.511 439.661 613.266 399.402 644.668C372.48 665.667 349.154 682.668 316.81 695.634C288 707.184 247.899 705.527 222.907 685.295C181.45 651.735 142.504 597.11 156.493 541.155C168.746 492.144 193.866 441.9 224.123 401.395C244.217 374.495 266.887 349.509 290.05 325.25C333.283 279.972 389.178 250.402 441.123 216.385" stroke="#FFE676" stroke-width="18.2447" stroke-linecap="round"/>
<path d="M865.007 343.543C867.983 341.046 870.887 340.553 873.134 344.85C880.339 358.625 872.098 376.343 863.555 387.298C834.257 424.873 785.031 435.77 743.807 414.354C711.308 397.47 685.455 371.586 652.814 355.193C633.391 345.439 610.458 334.681 588.175 334.4C562.052 334.071 531.273 352.552 510.3 366.147C484.915 382.601 472.853 404.704 468.794 434.5C465.493 458.729 485.767 487.854 501.175 504.784C523.374 529.175 563.929 547.646 574.412 580.306C583.133 607.474 576.075 639.975 564.123 665.369C549.197 697.082 515.77 730.443 483.883 744.857C456.97 757.022 422.707 770.936 392.75 770.63C378.835 770.488 364.514 766.782 351.536 762.047C314.564 748.559 271.44 732.315 241.779 705.596C210.181 677.133 212.09 632.893 217.47 594.285C222.199 560.349 262.486 536.193 295.628 540.244C314.652 542.569 335.313 557.911 351.589 567.232C368.966 577.184 383.972 589.84 400.438 601.058C420.166 614.499 439.514 628.092 458.136 643.054C480.26 660.83 498.101 670.422 525.872 678.296C572.93 691.64 625.36 700.99 671.928 679.37C693.191 669.499 713.595 653.088 718.629 629.449C721.987 613.683 723.286 593.755 714.894 579.136C703.319 558.969 670.087 547.089 649.374 540.299C619.564 530.527 586.84 541.881 555.899 533.616C503.281 519.56 448.606 494.274 402.929 465.028C363.498 439.781 343.137 407.295 320.179 367.675C298.126 329.616 283.805 291.151 301.288 247.597C314.176 215.493 337.487 184.558 369.992 170.777C403.371 156.624 446.77 162.371 479.97 173.957C514.477 185.999 557.179 211.443 548.777 253.827C541.894 288.547 513.068 298.963 482.784 308.969C466.453 314.365 449.777 318.531 433.403 323.776C399.351 334.683 367.6 350.644 336.362 367.882C300.518 387.661 269.122 406.548 239.388 434.443C219.673 452.939 209.931 479.151 202.851 504.972C181.724 582.025 252.445 640.958 307.6 679.372C328.422 693.874 343.684 700.691 368.52 696.661C380.483 694.721 399.205 691.433 407.736 681.468C416.93 670.73 422.608 657.047 427.879 644.126C437.107 621.502 448.564 600.58 458.796 578.498C463.498 568.349 465.99 557.6 470.953 547.503C478.842 531.45 489.285 516.248 496.207 499.769C501.109 488.097 500.486 475.037 503.542 462.894C509.589 438.87 522.233 416.403 533.955 394.785C554.688 356.55 578.16 320.253 618.31 300.289C645.926 286.556 697.513 278.399 723.116 300.267C737.148 312.253 751.761 332.686 761.512 347.139C770.242 360.081 784.914 381.053 787.39 398.428C789.663 414.386 766.891 425.716 757.056 434.525C732.055 456.919 710.1 484.959 698.932 516.968C692.552 535.255 687.72 555.574 686.719 574.984C686.449 580.225 686.614 594.998 690.04 599.839C704.664 620.499 746.245 616.925 765.853 614.448C791.097 611.259 845.869 599.263 848.266 564.583C849.169 551.52 832.454 535.284 821.201 531.227C780.596 516.589 738.418 536.787 710.556 566.358C685.086 593.391 674.024 622.38 660.113 655.37C655.025 667.438 648.966 679.135 642.749 690.651C629.199 715.748 600.156 732.436 577.063 747.418C543.896 768.936 506.812 783.029 467.421 787.338C437.626 790.597 412.704 782.951 386.916 768.308C369.807 758.594 355.745 746.57 341.631 732.827C321.622 713.346 298.929 692.958 283.721 669.24C264.144 638.709 242.355 599.951 236.953 563.674C229.601 514.316 214.89 460.851 240.685 414.442C249.497 398.589 261.572 379.62 279.556 373.186C297.372 366.813 319.815 365.613 337.85 371.623C354.87 377.296 368.054 388.708 382.374 398.866C409.071 417.805 441.205 429.611 472.131 439.649C528.139 457.828 589.873 463.046 647.697 472.371C683.432 478.134 728.421 489.805 764.737 481.537C790.261 475.725 786.512 448.35 785.248 427.662C783.079 392.142 764.137 362.98 747.811 332.058C742.124 321.287 734.121 307.838 723.152 301.471C703.628 290.139 674.849 307.285 659.191 317.917C619.891 344.601 607.202 394.831 577.953 430.39C558.239 454.357 536.531 474.508 507.136 485.332C459.182 502.988 414.866 515.855 364.03 511.103C330.035 507.925 301.399 504.302 268.967 491.56C240.078 480.209 212.028 451.503 207.712 419.639C200.552 366.784 209.665 300.32 258.218 269.187C300.747 241.917 353.485 222.575 403.284 213.842C436.355 208.044 469.99 205.404 503.484 203.632C566 200.325 626.96 217.133 688.094 227.996" stroke="#FFE676" stroke-width="18.2447" stroke-linecap="round"/>
<path d="M157.417 694.161C153.563 694.656 151.233 696.457 152.868 701.022C158.11 715.657 176.722 721.61 190.567 722.758C238.051 726.693 279.433 697.893 291.637 653.07C301.258 617.733 299.756 581.18 309.834 546.072C315.831 525.181 323.47 501.029 338.369 484.458C355.837 465.031 390.289 454.933 414.501 448.732C443.807 441.227 468.233 447.344 492.887 464.559C512.936 478.558 520.603 513.207 522.603 536.011C525.484 568.866 511.568 611.201 528.47 641.048C542.53 665.878 571.208 682.723 597.978 691.152C631.41 701.679 678.595 699.722 710.809 686.053C737.997 674.516 771.454 658.762 791.537 636.532C800.866 626.206 807.85 613.167 813.169 600.416C828.318 564.093 845.612 521.379 846.078 481.461C846.575 438.937 812.76 410.349 780.73 388.129C752.578 368.599 707.508 381.839 688.017 408.949C676.83 424.51 674.102 450.099 669.92 468.383C665.455 487.904 664.585 507.515 661.669 527.225C658.176 550.839 655.051 574.278 653.426 598.11C651.495 626.426 646.451 646.043 633.413 671.797C611.319 715.436 582.649 760.317 535.186 779.894C513.514 788.833 487.618 792.706 466.827 780.382C452.961 772.161 437.431 759.606 432.373 743.527C425.395 721.346 439.191 688.863 448.241 669.033C461.267 640.493 491.798 624.135 506.699 595.787C532.038 547.577 550.515 490.241 559.982 436.837C568.154 390.734 558.076 353.743 544.514 310.006C531.487 267.993 512.92 231.388 469.049 214.715C436.712 202.424 398.168 198.589 366 213.141C332.968 228.084 307.771 263.883 293.78 296.144C279.239 329.675 268.995 378.315 305.848 400.872C336.038 419.35 363.236 405.221 391.123 389.742C406.161 381.395 420.529 371.96 435.485 363.479C466.588 345.841 499.846 333.32 533.695 322.043C572.536 309.103 607.705 298.826 648.369 295.879C675.33 293.925 701.204 304.534 724.985 316.834C795.951 353.54 791.33 445.481 782.178 512.069C778.722 537.208 773.387 553.048 753.588 568.574C744.051 576.052 728.942 587.586 715.833 587.103C701.706 586.581 687.798 581.48 674.727 576.594C651.839 568.041 628.692 562.279 605.522 554.83C594.873 551.407 585.282 545.952 574.495 542.755C557.346 537.672 539.091 535.043 522.284 528.959C510.381 524.651 501.203 515.338 490.204 509.353C468.444 497.511 443.357 491.575 419.517 485.537C377.355 474.857 334.76 467.505 292.864 483.485C264.047 494.477 223.077 526.87 221.797 560.516C221.095 578.957 226.209 603.552 230.224 620.518C233.818 635.709 239.289 660.713 250.384 674.312C260.573 686.802 284.341 677.742 297.483 676.484C330.895 673.287 366.392 676.157 397.493 689.647C415.262 697.354 433.475 707.577 448.422 720C452.458 723.355 463.206 733.49 464.442 739.292C469.715 764.047 438.899 792.192 423.785 804.927C404.327 821.323 358.377 853.454 331.257 831.705C321.042 823.514 320.438 800.219 325.085 789.196C341.852 749.423 385.294 732.11 425.921 731.675C463.06 731.278 491.87 742.798 525.552 754.938C537.873 759.379 550.58 762.855 563.26 766.091C590.895 773.145 622.853 763.108 649.522 756.288C687.825 746.494 723.326 728.788 753.198 702.751C775.793 683.058 787.067 659.553 793.786 630.669C798.243 611.506 798.937 593.018 798.403 573.325C797.647 545.41 798.043 514.906 790.918 487.647C781.746 452.556 768.025 410.264 745.02 381.699C713.719 342.833 684.389 295.773 632.785 283.273C615.158 279.004 593.027 275.02 576.106 283.88C559.342 292.656 543.245 308.34 535.437 325.673C528.068 342.031 527.52 359.46 525.28 376.872C521.103 409.337 507.997 440.964 494.411 470.503C469.805 524 431.789 572.92 399.443 621.749C379.454 651.926 357.533 692.91 326.835 714.002C305.26 728.825 287.678 707.51 273.326 692.556C248.685 666.881 240.089 633.187 228.425 600.223C224.362 588.739 219.901 573.739 222.657 561.358C227.563 539.324 259.677 529.792 278.108 525.488C324.367 514.688 369.895 539.413 415.864 542.018C446.847 543.775 476.378 541.477 504.262 527.206C549.751 503.923 589.254 480.069 620.223 439.477C640.933 412.332 657.684 388.825 670.303 356.345C681.544 327.413 679.458 287.332 658.96 262.557C624.958 221.462 569.921 183.103 514.119 197.689C465.241 210.465 415.269 236.121 375.089 266.81C348.406 287.19 323.663 310.127 299.654 333.548C254.841 377.263 225.871 433.47 192.411 485.776" stroke="#FFE676" stroke-width="18.2447" stroke-linecap="round"/>
<path d="M464.134 387.54C466.508 362.219 451.474 344.02 453.848 343.229C460.178 343.229 472.821 357.298 475.212 378.836C476.091 386.749 464.134 390.705 464.134 387.54Z" fill="#778935"/>
<path d="M606.475 311.756C592.485 317.141 586.818 329.85 585.778 328.804C584.119 325.462 588.232 315.099 598.975 308.19C602.922 305.651 608.146 310.926 606.475 311.756Z" fill="#778935"/>
<path d="M680.594 499.905C666.604 505.29 660.937 517.998 659.897 516.952C658.238 513.61 662.351 503.247 673.094 496.338C677.041 493.8 682.265 499.075 680.594 499.905Z" fill="#778935"/>
<path d="M706.82 643.581C692.83 648.966 687.164 661.675 686.124 660.629C684.464 657.287 688.577 646.924 699.321 640.015C703.268 637.477 708.491 642.751 706.82 643.581Z" fill="#778935"/>
<path d="M535.776 540.955C521.786 546.34 516.12 559.048 515.08 558.003C513.42 554.661 517.533 544.298 528.277 537.388C532.224 534.85 537.447 540.125 535.776 540.955Z" fill="#778935"/>
<path d="M365.72 627.143C341.524 619.311 320.488 630.021 320.232 627.532C321.611 621.354 338.096 612.079 359.638 614.435C367.552 615.301 368.809 627.832 365.72 627.143Z" fill="#778935"/>
<path d="M543.607 621.44C519.411 613.608 498.374 624.318 498.119 621.829C499.497 615.651 515.983 606.375 537.524 608.732C545.438 609.598 546.696 622.129 543.607 621.44Z" fill="#778935"/>
<path d="M599.69 538.176C586.27 531.496 573.071 535.899 573.14 534.426C574.484 530.945 584.904 526.98 597.255 530.237C601.793 531.433 601.431 538.848 599.69 538.176Z" fill="#778935"/>
<path d="M471.611 459.099C458.191 452.419 444.992 456.823 445.061 455.35C446.405 451.869 456.825 447.903 469.176 451.16C473.714 452.357 473.351 459.771 471.611 459.099Z" fill="#778935"/>
<path d="M417.543 519.23C406.978 496.096 384.872 487.815 386.536 485.946C392.023 482.79 409.997 488.684 422.807 506.162C427.513 512.583 419.121 521.974 417.543 519.23Z" fill="#778935"/>
</svg>
