<svg width="2452" height="1742" viewBox="0 0 2452 1742" fill="none" xmlns="http://www.w3.org/2000/svg">
<mask id="path-1-outside-1_108_7656" maskUnits="userSpaceOnUse" x="0" y="0" width="2452" height="1742" fill="black">
<rect fill="white" width="2452" height="1742"/>
<path fill-rule="evenodd" clip-rule="evenodd" d="M1439.68 38.8412C1439.68 26.2263 1449.91 16 1462.52 16V16C1475.14 16 1485.36 26.2263 1485.36 38.8412V170.792C1485.36 199.626 1508.74 223 1537.57 223H2305.47C2334.3 223 2357.68 199.626 2357.68 170.792V38.8412C2357.68 26.2263 2367.9 16 2380.52 16V16C2393.13 16 2403.36 26.2263 2403.36 38.8412V206.68C2403.36 215.693 2410.67 223 2419.68 223V223C2428.69 223 2436 230.307 2436 239.32V245.68C2436 254.693 2428.69 262 2419.68 262V262C2410.67 262 2403.36 269.307 2403.36 278.32V1702.98C2403.36 1715.6 2393.13 1725.83 2380.52 1725.83V1725.83C2367.9 1725.83 2357.68 1715.6 2357.68 1702.98V314.208C2357.68 285.375 2334.3 262 2305.47 262H1537.57C1508.74 262 1485.36 285.375 1485.36 314.208V1702.98C1485.36 1715.6 1475.14 1725.83 1462.52 1725.83V1725.83C1449.91 1725.83 1439.68 1715.6 1439.68 1702.98V314.208C1439.68 285.375 1416.31 262 1387.47 262H35.5C24.7304 262 16 253.27 16 242.5V242.5C16 231.73 24.7305 223 35.5 223H1387.47C1416.31 223 1439.68 199.626 1439.68 170.792V38.8412Z"/>
</mask>
<path fill-rule="evenodd" clip-rule="evenodd" d="M1439.68 38.8412C1439.68 26.2263 1449.91 16 1462.52 16V16C1475.14 16 1485.36 26.2263 1485.36 38.8412V170.792C1485.36 199.626 1508.74 223 1537.57 223H2305.47C2334.3 223 2357.68 199.626 2357.68 170.792V38.8412C2357.68 26.2263 2367.9 16 2380.52 16V16C2393.13 16 2403.36 26.2263 2403.36 38.8412V206.68C2403.36 215.693 2410.67 223 2419.68 223V223C2428.69 223 2436 230.307 2436 239.32V245.68C2436 254.693 2428.69 262 2419.68 262V262C2410.67 262 2403.36 269.307 2403.36 278.32V1702.98C2403.36 1715.6 2393.13 1725.83 2380.52 1725.83V1725.83C2367.9 1725.83 2357.68 1715.6 2357.68 1702.98V314.208C2357.68 285.375 2334.3 262 2305.47 262H1537.57C1508.74 262 1485.36 285.375 1485.36 314.208V1702.98C1485.36 1715.6 1475.14 1725.83 1462.52 1725.83V1725.83C1449.91 1725.83 1439.68 1715.6 1439.68 1702.98V314.208C1439.68 285.375 1416.31 262 1387.47 262H35.5C24.7304 262 16 253.27 16 242.5V242.5C16 231.73 24.7305 223 35.5 223H1387.47C1416.31 223 1439.68 199.626 1439.68 170.792V38.8412Z" fill="#FEB941"/>
<path d="M1501.36 170.792V38.8412H1469.36V170.792H1501.36ZM2305.47 207H1537.57V239H2305.47V207ZM2373.68 170.792V38.8412H2341.68V170.792H2373.68ZM2387.36 38.8412V206.68H2419.36V38.8412H2387.36ZM2452 245.68V239.32H2420V245.68H2452ZM2387.36 278.32V1702.98H2419.36V278.32H2387.36ZM2373.68 1702.98V314.208H2341.68V1702.98H2373.68ZM1537.57 278H2305.47V246H1537.57V278ZM1501.36 1702.98V314.208H1469.36V1702.98H1501.36ZM1423.68 314.208V1702.98H1455.68V314.208H1423.68ZM35.5 278H1387.47V246H35.5V278ZM1387.47 207H35.5V239H1387.47V207ZM1423.68 38.8412V170.792H1455.68V38.8412H1423.68ZM1387.47 239C1425.14 239 1455.68 208.462 1455.68 170.792H1423.68C1423.68 190.789 1407.47 207 1387.47 207V239ZM32 242.5C32 240.567 33.567 239 35.5 239V207C15.8939 207 0 222.894 0 242.5H32ZM35.5 246C33.567 246 32 244.433 32 242.5H0C0 262.106 15.8939 278 35.5 278V246ZM1455.68 314.208C1455.68 276.538 1425.14 246 1387.47 246V278C1407.47 278 1423.68 294.211 1423.68 314.208H1455.68ZM1462.52 1709.83C1458.74 1709.83 1455.68 1706.76 1455.68 1702.98H1423.68C1423.68 1724.44 1441.07 1741.83 1462.52 1741.83V1709.83ZM1469.36 1702.98C1469.36 1706.76 1466.3 1709.83 1462.52 1709.83V1741.83C1483.97 1741.83 1501.36 1724.44 1501.36 1702.98H1469.36ZM1537.57 246C1499.9 246 1469.36 276.538 1469.36 314.208H1501.36C1501.36 294.211 1517.57 278 1537.57 278V246ZM2373.68 314.208C2373.68 276.538 2343.14 246 2305.47 246V278C2325.47 278 2341.68 294.211 2341.68 314.208H2373.68ZM2380.52 1709.83C2376.74 1709.83 2373.68 1706.76 2373.68 1702.98H2341.68C2341.68 1724.44 2359.07 1741.83 2380.52 1741.83V1709.83ZM2387.36 1702.98C2387.36 1706.76 2384.3 1709.83 2380.52 1709.83V1741.83C2401.97 1741.83 2419.36 1724.44 2419.36 1702.98H2387.36ZM2419.68 246C2401.83 246 2387.36 260.47 2387.36 278.32H2419.36C2419.36 278.246 2419.37 278.216 2419.38 278.2C2419.39 278.174 2419.41 278.134 2419.45 278.094C2419.49 278.053 2419.53 278.03 2419.56 278.019C2419.58 278.012 2419.61 278 2419.68 278V246ZM2420 245.68C2420 245.754 2419.99 245.784 2419.98 245.8C2419.97 245.826 2419.95 245.866 2419.91 245.906C2419.87 245.947 2419.83 245.97 2419.8 245.981C2419.78 245.988 2419.75 246 2419.68 246V278C2437.53 278 2452 263.53 2452 245.68H2420ZM2419.68 239C2419.75 239 2419.78 239.012 2419.8 239.019C2419.83 239.03 2419.87 239.053 2419.91 239.094C2419.95 239.134 2419.97 239.174 2419.98 239.2C2419.99 239.216 2420 239.246 2420 239.32H2452C2452 221.47 2437.53 207 2419.68 207V239ZM2387.36 206.68C2387.36 224.53 2401.83 239 2419.68 239V207C2419.61 207 2419.58 206.988 2419.56 206.981C2419.53 206.97 2419.49 206.947 2419.45 206.906C2419.41 206.866 2419.39 206.826 2419.38 206.8C2419.37 206.784 2419.36 206.754 2419.36 206.68H2387.36ZM2380.52 32C2384.3 32 2387.36 35.0629 2387.36 38.8412H2419.36C2419.36 17.3898 2401.97 0 2380.52 0V32ZM2373.68 38.8412C2373.68 35.0629 2376.74 32 2380.52 32V0C2359.07 0 2341.68 17.3898 2341.68 38.8412H2373.68ZM2305.47 239C2343.14 239 2373.68 208.462 2373.68 170.792H2341.68C2341.68 190.789 2325.47 207 2305.47 207V239ZM1469.36 170.792C1469.36 208.462 1499.9 239 1537.57 239V207C1517.57 207 1501.36 190.789 1501.36 170.792H1469.36ZM1462.52 0C1441.07 0 1423.68 17.3898 1423.68 38.8412H1455.68C1455.68 35.0629 1458.74 32 1462.52 32V0ZM1462.52 32C1466.3 32 1469.36 35.0629 1469.36 38.8412H1501.36C1501.36 17.3898 1483.97 0 1462.52 0V32Z" fill="white" mask="url(#path-1-outside-1_108_7656)"/>
<path fill-rule="evenodd" clip-rule="evenodd" d="M1522 346.094C1522 321.189 1542.19 301 1567.09 301V301H2272.91V301C2297.81 301 2318 321.189 2318 346.094V1705.45C2318 1717.91 2307.91 1728 2295.45 1728V1728C2283 1728 2272.91 1717.91 2272.91 1705.45V1580.81C2272.91 1564.34 2259.55 1550.99 2243.08 1550.99V1550.99C2226.61 1550.99 2213.26 1537.63 2213.26 1521.16V1515.37C2213.26 1495.69 2197.31 1479.75 2177.64 1479.75H1619.3C1590.47 1479.75 1567.09 1503.12 1567.09 1531.96V1705.45C1567.09 1717.91 1557 1728 1544.55 1728V1728C1532.09 1728 1522 1717.91 1522 1705.45V346.094ZM2272.91 1288.02C2272.91 1304.49 2259.55 1317.85 2243.08 1317.85V1317.85C2226.61 1317.85 2213.26 1331.2 2213.26 1347.67V1382.21C2213.26 1411.04 2189.89 1434.41 2161.05 1434.41H1619.3C1590.47 1434.41 1567.09 1411.04 1567.09 1382.21V398.857C1567.09 370.023 1590.47 346.648 1619.3 346.648L2220.7 346.648C2249.53 346.648 2272.91 370.023 2272.91 398.857V1288.02Z" fill="#FEB941"/>
<path d="M2220.7 346.648L2220.7 354.648L2220.7 346.648ZM1619.3 346.648L1619.3 338.648L1619.3 346.648ZM2272.91 293H1567.09V309H2272.91V293ZM2326 1705.45V346.094H2310V1705.45H2326ZM2264.91 1580.81V1705.45H2280.91V1580.81H2264.91ZM2221.26 1521.16V1515.37H2205.26V1521.16H2221.26ZM1619.3 1487.75H2177.64V1471.75H1619.3V1487.75ZM1575.09 1705.45V1531.96H1559.09V1705.45H1575.09ZM1514 346.094V1705.45H1530V346.094H1514ZM2221.26 1382.21V1347.67H2205.26V1382.21H2221.26ZM1619.3 1442.41H2161.05V1426.41H1619.3V1442.41ZM1559.09 398.857V1382.21H1575.09V398.857H1559.09ZM2220.7 338.648L1619.3 338.648L1619.3 354.648L2220.7 354.648L2220.7 338.648ZM2280.91 1288.02V398.857H2264.91V1288.02H2280.91ZM2220.7 354.648C2245.11 354.648 2264.91 374.441 2264.91 398.857H2280.91C2280.91 365.604 2253.95 338.648 2220.7 338.648L2220.7 354.648ZM1575.09 398.857C1575.09 374.441 1594.89 354.648 1619.3 354.648L1619.3 338.648C1586.05 338.648 1559.09 365.604 1559.09 398.857H1575.09ZM1619.3 1426.41C1594.89 1426.41 1575.09 1406.62 1575.09 1382.21H1559.09C1559.09 1415.46 1586.05 1442.41 1619.3 1442.41V1426.41ZM2205.26 1382.21C2205.26 1406.62 2185.47 1426.41 2161.05 1426.41V1442.41C2194.31 1442.41 2221.26 1415.46 2221.26 1382.21H2205.26ZM2243.08 1325.85C2263.97 1325.85 2280.91 1308.91 2280.91 1288.02H2264.91C2264.91 1300.08 2255.14 1309.85 2243.08 1309.85V1325.85ZM1544.55 1720C1536.51 1720 1530 1713.49 1530 1705.45H1514C1514 1722.32 1527.68 1736 1544.55 1736V1720ZM1559.09 1705.45C1559.09 1713.49 1552.58 1720 1544.55 1720V1736C1561.42 1736 1575.09 1722.32 1575.09 1705.45H1559.09ZM1619.3 1471.75C1586.05 1471.75 1559.09 1498.7 1559.09 1531.96H1575.09C1575.09 1507.54 1594.89 1487.75 1619.3 1487.75V1471.75ZM2221.26 1515.37C2221.26 1491.28 2201.73 1471.75 2177.64 1471.75V1487.75C2192.9 1487.75 2205.26 1500.11 2205.26 1515.37H2221.26ZM2243.08 1542.99C2231.03 1542.99 2221.26 1533.22 2221.26 1521.16H2205.26C2205.26 1542.05 2222.2 1558.99 2243.08 1558.99V1542.99ZM2295.45 1720C2287.42 1720 2280.91 1713.49 2280.91 1705.45H2264.91C2264.91 1722.32 2278.58 1736 2295.45 1736V1720ZM2310 1705.45C2310 1713.49 2303.49 1720 2295.45 1720V1736C2312.32 1736 2326 1722.32 2326 1705.45H2310ZM2272.91 309C2293.39 309 2310 325.607 2310 346.094H2326C2326 316.771 2302.23 293 2272.91 293V309ZM2280.91 1580.81C2280.91 1559.92 2263.97 1542.99 2243.08 1542.99V1558.99C2255.14 1558.99 2264.91 1568.76 2264.91 1580.81H2280.91ZM2243.08 1309.85C2222.2 1309.85 2205.26 1326.78 2205.26 1347.67H2221.26C2221.26 1335.62 2231.03 1325.85 2243.08 1325.85V1309.85ZM1567.09 293C1537.77 293 1514 316.771 1514 346.094H1530C1530 325.607 1546.61 309 1567.09 309V293Z" fill="white"/>
<rect x="1422.98" y="369.107" width="159.573" height="172.625" rx="34.1042" fill="#B9B9B9" stroke="white" stroke-width="16"/>
<circle cx="1467.96" cy="416.265" r="15.2275" fill="#F1F1F1"/>
<circle cx="1467.96" cy="501.102" r="15.2275" fill="#F1F1F1"/>
<circle cx="1541.92" cy="416.265" r="15.2275" fill="#F1F1F1"/>
<circle cx="1544.1" cy="501.103" r="10.8768" fill="#F1F1F1"/>
<rect x="1582.55" y="1701.2" width="159.573" height="172.625" rx="34.1042" transform="rotate(-180 1582.55 1701.2)" fill="#B9B9B9" stroke="white" stroke-width="16"/>
<circle cx="1537.57" cy="1654.04" r="15.2275" transform="rotate(-180 1537.57 1654.04)" fill="#F1F1F1"/>
<circle cx="1537.57" cy="1569.2" r="15.2275" transform="rotate(-180 1537.57 1569.2)" fill="#F1F1F1"/>
<circle cx="1463.61" cy="1654.04" r="15.2275" transform="rotate(-180 1463.61 1654.04)" fill="#F1F1F1"/>
<circle cx="1461.43" cy="1569.2" r="10.8768" transform="rotate(-180 1461.43 1569.2)" fill="#F1F1F1"/>
<path d="M2251 1371C2251 1362.16 2258.16 1355 2267 1355H2283C2287.42 1355 2291 1358.58 2291 1363V1508C2291 1512.42 2287.42 1516 2283 1516H2267C2258.16 1516 2251 1508.84 2251 1500V1371Z" fill="#B9B9B9" stroke="white" stroke-width="16"/>
<path d="M1354 322.5H1181.79C1158.62 322.5 1143.13 346.358 1152.56 367.523L1324.77 754.064C1338.83 785.62 1386 775.588 1386 741.041V354.5C1386 336.827 1371.67 322.5 1354 322.5Z" fill="white" fill-opacity="0.5"/>
<path d="M896.172 370.087C884.777 348.77 900.221 323 924.393 323H1063.2C1075.85 323 1087.31 330.45 1092.44 342.009L1386.51 1004.01C1395.91 1025.17 1380.42 1049 1357.27 1049H1278.29C1266.49 1049 1255.64 1042.5 1250.07 1032.09L896.172 370.087Z" fill="white" fill-opacity="0.5"/>
<path d="M2215.19 393H2109.94C2095.78 393 2086.31 407.581 2092.08 420.516L2197.32 656.75C2205.91 676.036 2234.74 669.904 2234.74 648.791V412.557C2234.74 401.756 2225.99 393 2215.19 393Z" fill="white" fill-opacity="0.5"/>
<path d="M1935.38 422.082C1928.42 409.054 1937.86 393.305 1952.63 393.305H2037.46C2045.19 393.305 2052.2 397.858 2055.34 404.922L2235.06 809.503C2240.8 822.435 2231.33 836.999 2217.18 836.999H2168.92C2161.7 836.999 2155.07 833.026 2151.67 826.662L1935.38 422.082Z" fill="white" fill-opacity="0.5"/>
</svg>
