<svg width="502" height="273" viewBox="0 0 502 273" fill="none" xmlns="http://www.w3.org/2000/svg">
<g filter="url(#filter0_dd_108_7605)">
<mask id="path-1-outside-1_108_7605" maskUnits="userSpaceOnUse" x="24.8875" y="19.2856" width="453" height="224" fill="black">
<rect fill="white" x="24.8875" y="19.2856" width="453" height="224"/>
<path fill-rule="evenodd" clip-rule="evenodd" d="M418.618 41.2856C428.197 42.9077 432.042 46.1176 436.59 55.3077C369.503 128.816 407.189 186.154 433.869 147.002C445.134 146.864 450.409 148.25 454.405 159.413C382.153 241.318 334.012 116.51 418.618 41.2856ZM417.531 89.4809C415.269 88.614 406.585 102.218 407.724 108.298C409.468 112.208 418.102 115.384 427.667 115.807C433.406 116.061 440.125 98.5328 436.732 97.2324C426.608 95.3963 425.302 95.0961 417.531 89.4809ZM143.176 64.4072C152.701 62.4933 157.44 64.1145 164.976 71.0683C128.642 163.718 184.352 203.77 195.253 157.662C205.722 153.501 211.144 152.908 218.87 161.901C180.719 264.24 91.0972 164.929 143.176 64.4072ZM159.41 109.799C156.988 109.799 153.747 125.61 156.988 130.879C160.015 133.907 169.214 133.781 178.297 130.754C183.747 128.937 183.747 110.165 180.114 110.165C170.003 112.074 168.676 112.261 159.41 109.799ZM63.9912 144.648C20.6591 113.35 80.8428 40.5276 115.749 99.5102C115.749 101.822 101.849 110.85 98.8978 109.741C70.0097 84.4618 63.3895 122.979 97.6942 147.055C142.23 184.969 90.4722 249.365 49.5471 211.452C53.0732 203.692 56.3358 200.333 63.9912 195.804C97.6941 205.432 95.287 165.109 63.9912 144.648ZM268.647 151.953C277.237 153.289 283.065 151.018 290.161 145.308C276.611 92.0334 255.907 75.8215 229.16 79.5511C157.96 92.2792 201.914 180.994 264.754 144.461C264.074 134.65 262.062 130.186 256.206 123.635C255.585 123.699 254.143 124.145 252.148 124.763C241.06 128.194 212.882 136.915 213.528 114.695C219.862 89.8764 263.041 97.2857 268.647 151.953ZM304.833 152.885C314.449 154.129 319.235 152.591 326.584 145.453C313.367 99.7186 329.245 71.3 352.032 98.3737C361.838 97.7787 366.273 95.8942 371.154 88.1311C325.365 34.984 280.542 66.0614 304.833 152.885Z"/>
</mask>
<path fill-rule="evenodd" clip-rule="evenodd" d="M418.618 41.2856C428.197 42.9077 432.042 46.1176 436.59 55.3077C369.503 128.816 407.189 186.154 433.869 147.002C445.134 146.864 450.409 148.25 454.405 159.413C382.153 241.318 334.012 116.51 418.618 41.2856ZM417.531 89.4809C415.269 88.614 406.585 102.218 407.724 108.298C409.468 112.208 418.102 115.384 427.667 115.807C433.406 116.061 440.125 98.5328 436.732 97.2324C426.608 95.3963 425.302 95.0961 417.531 89.4809ZM143.176 64.4072C152.701 62.4933 157.44 64.1145 164.976 71.0683C128.642 163.718 184.352 203.77 195.253 157.662C205.722 153.501 211.144 152.908 218.87 161.901C180.719 264.24 91.0972 164.929 143.176 64.4072ZM159.41 109.799C156.988 109.799 153.747 125.61 156.988 130.879C160.015 133.907 169.214 133.781 178.297 130.754C183.747 128.937 183.747 110.165 180.114 110.165C170.003 112.074 168.676 112.261 159.41 109.799ZM63.9912 144.648C20.6591 113.35 80.8428 40.5276 115.749 99.5102C115.749 101.822 101.849 110.85 98.8978 109.741C70.0097 84.4618 63.3895 122.979 97.6942 147.055C142.23 184.969 90.4722 249.365 49.5471 211.452C53.0732 203.692 56.3358 200.333 63.9912 195.804C97.6941 205.432 95.287 165.109 63.9912 144.648ZM268.647 151.953C277.237 153.289 283.065 151.018 290.161 145.308C276.611 92.0334 255.907 75.8215 229.16 79.5511C157.96 92.2792 201.914 180.994 264.754 144.461C264.074 134.65 262.062 130.186 256.206 123.635C255.585 123.699 254.143 124.145 252.148 124.763C241.06 128.194 212.882 136.915 213.528 114.695C219.862 89.8764 263.041 97.2857 268.647 151.953ZM304.833 152.885C314.449 154.129 319.235 152.591 326.584 145.453C313.367 99.7186 329.245 71.3 352.032 98.3737C361.838 97.7787 366.273 95.8942 371.154 88.1311C325.365 34.984 280.542 66.0614 304.833 152.885Z" fill="#CDB136"/>
<path d="M436.59 55.3077L451.274 68.7092L460.435 58.6712L454.408 46.4908L436.59 55.3077ZM418.618 41.2856L421.937 21.6843L412.535 20.0922L405.408 26.4285L418.618 41.2856ZM433.869 147.002L433.625 127.123L423.272 127.251L417.441 135.807L433.869 147.002ZM454.405 159.413L469.313 172.564L477.077 163.763L473.122 152.713L454.405 159.413ZM407.724 108.298L388.184 111.961L388.615 114.258L389.567 116.393L407.724 108.298ZM417.531 89.4809L429.174 73.3669L427.07 71.8465L424.646 70.9174L417.531 89.4809ZM427.667 115.807L428.547 95.9463H428.547L427.667 115.807ZM436.732 97.2324L443.847 78.6689L442.11 78.0031L440.28 77.6711L436.732 97.2324ZM164.976 71.0683L183.484 78.3265L188.445 65.6746L178.458 56.4582L164.976 71.0683ZM143.176 64.4072L139.259 44.9163L129.91 46.7948L125.524 55.262L143.176 64.4072ZM195.253 157.662L187.91 139.188L178.288 143.012L175.906 153.088L195.253 157.662ZM218.87 161.901L237.498 168.846L241.597 157.849L233.95 148.947L218.87 161.901ZM156.988 130.879L140.053 141.293L141.277 143.284L142.93 144.937L156.988 130.879ZM159.41 109.799L164.515 90.5852L162.006 89.9187H159.41V109.799ZM178.297 130.754L172.01 111.893L172.01 111.893L178.297 130.754ZM180.114 110.165V90.2845H178.253L176.425 90.6296L180.114 110.165ZM115.749 99.5102H135.63V94.0682L132.858 89.385L115.749 99.5102ZM63.9912 144.648L52.3509 160.764L52.7255 161.035L53.1123 161.288L63.9912 144.648ZM98.8978 109.741L85.8057 124.702L88.5256 127.082L91.9092 128.353L98.8978 109.741ZM97.6942 147.055L110.581 131.917L109.874 131.316L109.115 130.783L97.6942 147.055ZM49.5471 211.452L31.4474 203.228L25.5136 216.288L36.0364 226.036L49.5471 211.452ZM63.9912 195.804L69.4519 176.689L61.2288 174.339L53.8684 178.694L63.9912 195.804ZM290.161 145.308L302.625 160.796L312.577 152.787L309.428 140.407L290.161 145.308ZM268.647 151.953L248.871 153.982L250.436 169.242L265.594 171.598L268.647 151.953ZM229.16 79.5511L226.415 59.8612L226.037 59.9138L225.662 59.9809L229.16 79.5511ZM264.754 144.461L274.746 161.648L285.443 155.429L284.587 143.086L264.754 144.461ZM256.206 123.635L271.028 110.386L264.268 102.823L254.177 103.858L256.206 123.635ZM252.148 124.763L258.025 143.754L252.148 124.763ZM213.528 114.695L194.265 109.779L193.72 111.914L193.656 114.117L213.528 114.695ZM326.584 145.453L340.436 159.713L348.996 151.398L345.683 139.933L326.584 145.453ZM304.833 152.885L285.687 158.242L289.233 170.914L302.284 172.602L304.833 152.885ZM352.032 98.3737L336.822 111.176L343.259 118.823L353.236 118.218L352.032 98.3737ZM371.154 88.1311L387.984 98.7139L395.802 86.2812L386.216 75.1548L371.154 88.1311ZM454.408 46.4908C451.697 41.0126 448.011 34.7534 441.813 29.8577C435.388 24.783 428.321 22.7653 421.937 21.6843L415.299 60.887C418.493 61.428 418.139 61.8262 417.168 61.0596C416.424 60.4719 416.935 60.4127 418.771 64.1247L454.408 46.4908ZM417.441 135.807C412.65 142.837 411.876 139.104 416.808 139.909C421.801 140.724 420.674 144.201 419.422 138.862C417.132 129.105 420.094 102.874 451.274 68.7092L421.905 41.9062C385.999 81.2497 374.26 120.443 380.712 147.944C383.83 161.233 392.934 176.298 410.401 179.15C427.807 181.992 441.749 170.743 450.298 158.198L417.441 135.807ZM473.122 152.713C470.351 144.97 465.683 136.488 456.235 131.437C448.012 127.041 439.078 127.056 433.625 127.123L434.114 166.881C435.327 166.866 436.286 166.874 437.072 166.904C437.857 166.934 438.354 166.981 438.646 167.02C439.236 167.098 438.596 167.093 437.491 166.502C436.934 166.204 436.395 165.83 435.917 165.406C435.449 164.99 435.154 164.627 435.007 164.424C434.869 164.235 434.889 164.225 435.028 164.503C435.168 164.786 435.395 165.295 435.687 166.112L473.122 152.713ZM405.408 26.4285C357.93 68.6424 345.443 126.815 358.899 165.764C365.663 185.342 380.703 203.453 404.422 205.866C427.162 208.179 449.512 195.011 469.313 172.564L439.496 146.261C423.172 164.767 412.41 166.712 408.446 166.309C405.462 166.006 400.208 163.571 396.48 152.781C388.955 130.997 394.7 89.1531 431.827 56.1428L405.408 26.4285ZM427.264 104.634C427.641 106.641 427.472 108.051 427.416 108.454C427.348 108.942 427.278 109.082 427.361 108.826C427.539 108.281 427.965 107.284 428.621 106.134C429.31 104.925 429.79 104.355 429.715 104.439C429.661 104.5 429.482 104.697 429.178 104.978C428.899 105.235 428.313 105.752 427.435 106.337C426.652 106.858 424.954 107.897 422.488 108.601C419.985 109.315 415.502 109.994 410.415 108.044L424.646 70.9174C419.276 68.8593 414.461 69.5436 411.582 70.3647C408.741 71.175 406.626 72.4233 405.392 73.2456C402.931 74.885 401.118 76.7683 400.053 77.9614C397.749 80.5424 395.705 83.5907 394.083 86.4349C392.427 89.3375 390.755 92.8269 389.554 96.5158C388.549 99.6032 386.967 105.47 388.184 111.961L427.264 104.634ZM428.547 95.9463C425.522 95.8123 423.066 95.2403 421.725 94.7388C421.05 94.4862 421.157 94.4378 421.734 94.8471C422.048 95.0696 422.657 95.5389 423.373 96.3233C424.086 97.1045 425.069 98.3792 425.882 100.202L389.567 116.393C391.991 121.83 395.927 125.289 398.727 127.276C401.712 129.393 404.904 130.898 407.8 131.981C413.603 134.151 420.247 135.378 426.787 135.668L428.547 95.9463ZM429.617 115.796C420.96 112.478 418.622 104.946 418.116 102.595C417.559 100.007 417.831 98.2209 417.847 98.0971C417.921 97.5434 417.903 98.0079 417.408 99.1393C416.923 100.248 416.582 100.616 416.835 100.318C416.967 100.164 417.731 99.2695 419.248 98.3139C420.768 97.3561 424.02 95.7458 428.547 95.9463L426.787 135.668C438.109 136.17 445.091 128.469 447.128 126.072C450.149 122.518 452.352 118.47 453.84 115.066C455.318 111.685 456.702 107.539 457.261 103.341C457.52 101.395 457.804 98.0285 456.988 94.2334C456.223 90.6765 453.352 82.3121 443.847 78.6689L429.617 115.796ZM405.887 105.595C409.756 108.391 413.833 111.257 418.983 113.279C423.739 115.146 428.743 115.988 433.185 116.794L440.28 77.6711C437.646 77.1935 436.095 76.9048 434.905 76.638C433.83 76.3968 433.532 76.2754 433.514 76.2686C433.502 76.2636 433.474 76.2528 433.4 76.2152C433.316 76.1723 433.135 76.0752 432.816 75.8785C432.099 75.4364 431.053 74.7244 429.174 73.3669L405.887 105.595ZM178.458 56.4582C173.966 52.313 168.284 47.7877 160.744 45.4346C152.929 42.9956 145.608 43.6407 139.259 44.9163L147.092 83.8981C150.268 83.2598 150.08 83.7586 148.899 83.3901C147.994 83.1076 148.45 82.8697 151.493 85.6784L178.458 56.4582ZM175.906 153.088C173.949 161.368 171.889 158.159 176.783 157.145C181.737 156.119 181.93 159.77 178.849 155.232C173.219 146.941 166.596 121.388 183.484 78.3265L146.467 63.8101C127.021 113.398 130.086 154.197 145.954 177.567C153.621 188.86 167.515 199.669 184.845 196.08C202.115 192.504 211.107 177.011 214.6 162.236L175.906 153.088ZM233.95 148.947C228.591 142.708 221.196 136.458 210.567 135.123C201.315 133.962 192.978 137.174 187.91 139.188L202.596 176.137C203.724 175.689 204.622 175.353 205.366 175.1C206.111 174.846 206.591 174.713 206.878 174.645C207.457 174.507 206.858 174.731 205.614 174.575C204.987 174.496 204.35 174.339 203.752 174.114C203.166 173.893 202.761 173.66 202.55 173.524C202.355 173.396 202.37 173.379 202.598 173.59C202.83 173.804 203.224 174.198 203.79 174.856L233.95 148.947ZM125.524 55.262C96.2985 111.672 105.459 170.46 131.964 202.014C145.286 217.874 165.812 229.402 188.824 223.166C210.885 217.188 227.042 196.893 237.498 168.846L200.242 154.957C191.622 178.079 182.27 183.747 178.424 184.789C175.529 185.574 169.751 185.181 162.409 176.44C147.585 158.793 137.974 117.664 160.828 73.5524L125.524 55.262ZM173.922 120.465C174.992 122.204 175.339 123.581 175.43 123.978C175.541 124.457 175.526 124.613 175.513 124.344C175.483 123.772 175.525 122.688 175.725 121.379C175.936 120.004 176.181 119.3 176.141 119.406C176.112 119.482 176.015 119.73 175.832 120.101C175.664 120.441 175.301 121.133 174.69 121.994C174.146 122.761 172.933 124.339 170.882 125.878C168.8 127.441 164.857 129.679 159.41 129.679V89.9187C153.659 89.9187 149.408 92.281 147.014 94.0779C144.651 95.8513 143.123 97.774 142.264 98.9836C140.553 101.395 139.534 103.803 138.967 105.298C137.739 108.533 136.922 112.11 136.425 115.347C135.918 118.65 135.605 122.506 135.804 126.381C135.97 129.623 136.593 135.667 140.053 141.293L173.922 120.465ZM172.01 111.893C169.138 112.851 166.64 113.196 165.208 113.207C164.487 113.213 164.57 113.13 165.255 113.305C165.628 113.401 166.365 113.621 167.314 114.097C168.259 114.571 169.634 115.41 171.045 116.821L142.93 144.937C147.14 149.146 152.053 150.967 155.379 151.82C158.924 152.729 162.442 152.992 165.535 152.967C171.73 152.916 178.373 151.684 184.584 149.614L172.01 111.893ZM180.114 130.045C170.843 130.045 165.963 123.849 164.65 121.835C163.204 119.617 162.818 117.853 162.789 117.731C162.66 117.188 162.809 117.628 162.752 118.861C162.696 120.071 162.509 120.536 162.639 120.167C162.706 119.976 163.1 118.868 164.175 117.432C165.252 115.994 167.711 113.326 172.01 111.893L184.584 149.614C195.334 146.03 199.098 136.341 200.143 133.373C201.692 128.974 202.299 124.405 202.471 120.695C202.641 117.008 202.45 112.642 201.469 108.522C201.014 106.612 200.075 103.366 197.954 100.115C195.967 97.0676 190.293 90.2845 180.114 90.2845V130.045ZM154.305 129.013C158.918 130.239 163.751 131.456 169.283 131.501C174.393 131.542 179.366 130.538 183.802 129.7L176.425 90.6296C173.795 91.1262 172.243 91.4119 171.037 91.5885C169.947 91.7481 169.625 91.7415 169.606 91.7413C169.592 91.7412 169.562 91.7411 169.48 91.7323C169.387 91.7223 169.183 91.6964 168.814 91.6269C167.986 91.4708 166.755 91.1804 164.515 90.5852L154.305 129.013ZM132.858 89.385C121.952 70.9558 106.77 59.275 88.8024 57.4949C71.3587 55.7667 56.207 63.8994 46.1101 74.5392C36.0129 85.1793 29.1539 100.078 29.0094 115.916C28.8578 132.525 36.1747 149.081 52.3509 160.764L75.6315 128.532C70.1416 124.567 68.732 120.283 68.7685 116.279C68.8121 111.503 71.0559 106.014 74.9514 101.909C78.8473 97.8035 82.5782 96.8337 84.8823 97.062C86.6626 97.2384 92.0938 98.5732 98.6405 109.635L132.858 89.385ZM91.9092 128.353C97.9073 130.605 103.242 129.46 104.728 129.134C107.036 128.628 109.062 127.862 110.519 127.246C113.516 125.979 116.497 124.314 118.982 122.757C121.481 121.193 124.16 119.31 126.454 117.347C127.547 116.412 129.05 115.039 130.458 113.339C131.158 112.494 132.197 111.137 133.146 109.351C133.959 107.822 135.63 104.292 135.63 99.5102H95.8689C95.8689 95.0174 97.431 91.8287 98.0387 90.6857C98.7833 89.2852 99.5209 88.3578 99.8344 87.9793C100.471 87.2106 100.865 86.9137 100.609 87.1326C100.204 87.4783 99.2241 88.2166 97.8783 89.0594C96.5196 89.9104 95.4725 90.439 95.0326 90.6251C94.7719 90.7353 95.2278 90.5114 96.2105 90.2959C96.7199 90.1842 97.7496 89.9894 99.1362 89.9589C100.426 89.9306 102.927 90.0188 105.886 91.1299L91.9092 128.353ZM109.115 130.783C102.804 126.354 98.8469 121.588 96.6315 117.69C94.2135 113.435 94.437 111.321 94.3741 111.93C94.3317 112.341 94.0384 114.412 92.098 116.759C89.8759 119.446 86.7099 120.987 83.7596 121.294C81.2648 121.554 80.1241 120.834 80.8633 121.173C81.5326 121.479 83.1971 122.419 85.8057 124.702L111.99 94.7805C103.63 87.4649 92.2988 80.4281 79.6374 81.7479C72.54 82.4877 66.0686 85.843 61.4557 91.4218C57.1244 96.66 55.3547 102.699 54.8233 107.85C53.7824 117.938 56.9775 128.387 62.0636 137.336C67.3523 146.642 75.4319 155.719 86.2735 163.328L109.115 130.783ZM36.0364 226.036C50.142 239.104 66.8128 244.572 83.1798 242.428C99.0197 240.354 112.403 231.443 121.377 219.874C139.661 196.303 141.806 158.499 110.581 131.917L84.8073 162.193C98.1188 173.525 96.6528 186.876 89.9602 195.504C86.446 200.034 81.9999 202.483 78.0168 203.004C74.5606 203.457 69.4148 202.757 63.0578 196.868L36.0364 226.036ZM53.8684 178.694C49.3453 181.37 44.7637 184.476 40.6747 188.865C36.4906 193.356 33.729 198.207 31.4474 203.228L67.6468 219.676C68.8914 216.937 69.5241 216.228 69.7667 215.968C70.1043 215.605 70.9817 214.768 74.114 212.914L53.8684 178.694ZM53.1123 161.288C58.5591 164.849 62.5459 169.15 65.1135 173.225C67.7889 177.471 68.4569 180.69 68.4922 182.032C68.5258 183.311 68.1732 180.534 71.406 178.328C74.2056 176.418 74.9378 178.256 69.4519 176.689L58.5305 214.92C69.8961 218.167 82.9659 218.575 93.8152 211.172C105.098 203.474 108.507 191.143 108.239 180.986C107.727 161.518 94.5796 140.894 74.8701 128.008L53.1123 161.288ZM277.697 129.819C275.127 131.888 274.042 132.293 273.801 132.372C273.707 132.402 273.615 132.426 273.418 132.438C273.191 132.452 272.662 132.458 271.701 132.309L265.594 171.598C272.437 172.662 279.26 172.413 286.128 170.173C292.722 168.023 298.099 164.438 302.625 160.796L277.697 129.819ZM231.906 99.241C239.829 98.1361 245.224 99.7659 250.529 105.088C257.014 111.594 264.447 124.86 270.894 150.208L309.428 140.407C302.325 112.481 292.63 91.0039 278.689 77.0181C263.568 61.8479 245.238 57.2364 226.415 59.8612L231.906 99.241ZM254.762 127.274C243.154 134.023 234.169 134.127 228.122 132.403C221.719 130.577 216.884 126.238 214.346 121.337C211.793 116.407 212.062 112.138 213.522 109.301C214.844 106.735 219.133 101.539 232.659 99.1212L225.662 59.9809C203.587 63.9271 186.671 74.5939 178.172 91.0997C169.813 107.335 171.647 125.347 179.038 139.62C186.444 153.923 199.929 165.708 217.217 170.639C234.86 175.671 254.934 173.166 274.746 161.648L254.762 127.274ZM241.384 136.884C243.594 139.356 243.96 140.209 244.075 140.486C244.219 140.829 244.654 141.984 244.921 145.836L284.587 143.086C284.174 137.127 283.262 131.144 280.766 125.165C278.242 119.119 274.674 114.465 271.028 110.386L241.384 136.884ZM258.025 143.754C258.535 143.597 258.956 143.466 259.332 143.352C259.711 143.236 259.975 143.158 260.162 143.104C260.251 143.079 260.3 143.066 260.316 143.061C260.334 143.056 260.291 143.068 260.199 143.09C260.115 143.11 259.919 143.156 259.643 143.208C259.501 143.235 259.314 143.268 259.091 143.302C258.87 143.336 258.58 143.376 258.234 143.412L254.177 103.858C251.835 104.099 249.65 104.755 249.223 104.878C248.284 105.146 247.192 105.485 246.27 105.771L258.025 143.754ZM193.656 114.117C193.366 124.084 196.433 134.307 205.058 141.443C212.767 147.82 221.867 149.1 228.037 149.224C240.175 149.469 253.146 145.264 258.025 143.754L246.27 105.771C243.467 106.638 240.295 107.613 236.937 108.376C233.461 109.167 230.703 109.509 228.839 109.472C226.659 109.428 228.142 108.936 230.403 110.807C231.691 111.872 232.599 113.214 233.081 114.454C233.511 115.562 233.379 116.009 233.4 115.273L193.656 114.117ZM288.424 149.925C285.132 117.824 270.137 94.7565 249.585 85.4175C239.487 80.8288 227.727 79.6167 216.862 83.8132C205.561 88.1777 197.366 97.6301 194.265 109.779L232.791 119.611C232.858 119.35 232.435 120.422 231.187 120.904C230.374 121.218 230.947 120.621 233.136 121.616C237.159 123.444 246.556 131.416 248.871 153.982L288.424 149.925ZM312.732 131.193C309.944 133.901 309.433 133.735 310.193 133.479C311.019 133.199 310.9 133.624 307.382 133.169L302.284 172.602C308.382 173.39 315.464 173.668 322.925 171.146C330.318 168.647 335.876 164.143 340.436 159.713L312.732 131.193ZM367.242 85.5718C360.36 77.3951 350.736 69.2572 338.474 68.0863C323.778 66.6831 313.52 75.6519 308.368 85.0646C303.565 93.8389 301.882 104.571 301.899 115.028C301.917 125.851 303.754 138.062 307.485 150.972L345.683 139.933C342.805 129.977 341.671 121.485 341.66 114.963C341.649 108.074 342.882 104.819 343.245 104.156C343.352 103.962 342.826 105.027 341.121 106.107C339.178 107.338 336.815 107.87 334.694 107.667C331.405 107.353 332.311 105.816 336.822 111.176L367.242 85.5718ZM354.325 77.5482C353.608 78.6889 353.271 79.0248 353.306 78.9891C353.422 78.871 353.794 78.5462 354.34 78.2648C354.831 78.0122 355.01 78.0301 354.497 78.1347C353.905 78.2555 352.815 78.4092 350.828 78.5298L353.236 118.218C358.802 117.88 365.79 117.091 372.539 113.616C379.793 109.882 384.476 104.293 387.984 98.7139L354.325 77.5482ZM323.978 147.529C318.371 127.489 317.111 111.867 318.28 100.742C319.477 89.352 322.943 84.5863 324.696 83.0755C325.63 82.27 327.338 81.0976 332.134 82.595C337.64 84.3141 346.085 89.4906 356.093 101.107L386.216 75.1548C373.33 60.198 359 49.329 343.983 44.6408C328.256 39.7308 311.69 41.7892 298.731 52.9626C286.591 63.4308 280.544 79.3923 278.737 96.5875C276.902 114.048 279.149 134.87 285.687 158.242L323.978 147.529Z" fill="white" mask="url(#path-1-outside-1_108_7605)"/>
<path d="M59.1037 138.135C15.7716 106.838 75.9554 34.0149 110.862 92.9975C110.862 95.3094 96.9618 104.337 94.0104 103.229C65.1223 77.9491 58.5021 116.467 92.8067 140.543C137.343 178.456 85.5848 242.853 44.6596 204.939C48.1858 197.179 51.4484 193.821 59.1037 189.292C92.8067 198.919 90.3995 158.596 59.1037 138.135Z" fill="url(#paint0_linear_108_7605)"/>
<ellipse cx="52.3487" cy="198.643" rx="2.26304" ry="8.21092" transform="rotate(41.6154 52.3487 198.643)" fill="#CDB136"/>
<ellipse cx="101.545" cy="96.6563" rx="2.53833" ry="8.21092" transform="rotate(55.2783 101.545 96.6563)" fill="#CDB136"/>
<path d="M263.76 145.438C272.35 146.773 278.178 144.503 285.273 138.792C271.723 85.518 251.019 69.3061 224.273 73.0356C153.073 85.7638 197.027 174.478 259.866 137.945C259.186 128.134 257.174 123.671 251.318 117.12C247.25 117.537 207.878 134.399 208.641 108.179C214.975 83.3609 258.153 90.7703 263.76 145.438Z" fill="url(#paint1_linear_108_7605)"/>
<ellipse cx="254.298" cy="127.982" rx="2.45333" ry="8.34133" transform="rotate(-22.9718 254.298 127.982)" fill="#CDB136"/>
<ellipse cx="274.327" cy="141.07" rx="2.45333" ry="8.34133" transform="rotate(-107.83 274.327 141.07)" fill="#CDB136"/>
<path d="M160.088 64.5522C152.553 57.5984 147.813 55.9772 138.288 57.8911C86.2098 158.413 175.831 257.724 213.982 155.385C206.257 146.392 200.835 146.985 190.366 151.146C179.465 197.254 123.754 157.202 160.088 64.5522Z" fill="url(#paint2_linear_108_7605)"/>
<path d="M152.1 124.363C148.86 119.094 152.1 103.283 154.522 103.283C163.788 105.745 165.115 105.558 175.226 103.649C178.859 103.649 178.859 122.421 173.409 124.238C164.326 127.265 155.128 127.391 152.1 124.363Z" fill="url(#paint3_linear_108_7605)"/>
<ellipse cx="148.434" cy="62.0522" rx="8.34133" ry="2.944" transform="rotate(17.6118 148.434 62.0522)" fill="#CDB136"/>
<ellipse cx="173.481" cy="113.582" rx="8.34133" ry="2.944" transform="rotate(90.1566 173.481 113.582)" fill="#CDB136"/>
<ellipse cx="201.636" cy="153.981" rx="8.34133" ry="2.944" transform="rotate(4.63583 201.636 153.981)" fill="#CDB136"/>
<path d="M431.701 48.7888C427.153 39.5986 423.308 36.3887 413.729 34.7667C329.123 109.991 377.265 234.799 449.516 152.894C445.521 141.731 440.245 140.345 428.981 140.483C402.3 179.636 364.614 122.297 431.701 48.7888Z" fill="url(#paint4_linear_108_7605)"/>
<path d="M402.836 101.779C401.696 95.6988 410.38 82.0951 412.642 82.962C420.413 88.5771 421.719 88.8773 431.843 90.7135C435.236 92.0139 428.517 109.543 422.778 109.288C413.213 108.865 404.579 105.69 402.836 101.779Z" fill="url(#paint5_linear_108_7605)"/>
<ellipse cx="421.713" cy="42.2844" rx="8.34133" ry="2.944" transform="rotate(38.5832 421.713 42.2844)" fill="#CDB136"/>
<ellipse cx="426.657" cy="99.3652" rx="8.34132" ry="2.944" transform="rotate(111.128 426.657 99.3652)" fill="#CDB136"/>
<ellipse cx="438.488" cy="147.165" rx="8.34133" ry="2.944" transform="rotate(25.6072 438.488 147.165)" fill="#CDB136"/>
<path d="M321.696 138.937C314.348 146.075 309.561 147.613 299.945 146.37C275.654 59.5458 320.478 28.4683 366.267 81.6154C361.385 89.3786 356.951 91.263 347.145 91.8581C324.357 64.7844 308.479 93.2029 321.696 138.937Z" fill="url(#paint6_linear_108_7605)"/>
<ellipse cx="310.271" cy="141.858" rx="8.07142" ry="2.10559" transform="rotate(-18.8656 310.271 141.858)" fill="#CDB136"/>
<ellipse cx="356.685" cy="85.8541" rx="8.07142" ry="2.11951" transform="rotate(-31.0431 356.685 85.8541)" fill="#CDB136"/>
</g>
<defs>
<filter id="filter0_dd_108_7605" x="0.663166" y="0.211881" width="501.264" height="272.49" filterUnits="userSpaceOnUse" color-interpolation-filters="sRGB">
<feFlood flood-opacity="0" result="BackgroundImageFix"/>
<feColorMatrix in="SourceAlpha" type="matrix" values="0 0 0 0 0 0 0 0 0 0 0 0 0 0 0 0 0 0 127 0" result="hardAlpha"/>
<feOffset dy="4.9701"/>
<feGaussianBlur stdDeviation="12.4253"/>
<feComposite in2="hardAlpha" operator="out"/>
<feColorMatrix type="matrix" values="0 0 0 0 0 0 0 0 0 0 0 0 0 0 0 0 0 0 0.25 0"/>
<feBlend mode="normal" in2="BackgroundImageFix" result="effect1_dropShadow_108_7605"/>
<feColorMatrix in="SourceAlpha" type="matrix" values="0 0 0 0 0 0 0 0 0 0 0 0 0 0 0 0 0 0 127 0" result="hardAlpha"/>
<feOffset dy="4"/>
<feGaussianBlur stdDeviation="2"/>
<feComposite in2="hardAlpha" operator="out"/>
<feColorMatrix type="matrix" values="0 0 0 0 0 0 0 0 0 0 0 0 0 0 0 0 0 0 0.25 0"/>
<feBlend mode="normal" in2="effect1_dropShadow_108_7605" result="effect2_dropShadow_108_7605"/>
<feBlend mode="normal" in="SourceGraphic" in2="effect2_dropShadow_108_7605" result="shape"/>
</filter>
<linearGradient id="paint0_linear_108_7605" x1="77.4309" y1="70.634" x2="77.4309" y2="216.486" gradientUnits="userSpaceOnUse">
<stop stop-color="#FFE676"/>
<stop offset="1" stop-color="#FFD410"/>
</linearGradient>
<linearGradient id="paint1_linear_108_7605" x1="231.16" y1="72.2918" x2="239.021" y2="148.936" gradientUnits="userSpaceOnUse">
<stop stop-color="#FFE676"/>
<stop offset="1" stop-color="#FFD410"/>
</linearGradient>
<linearGradient id="paint2_linear_108_7605" x1="168.205" y1="57.1465" x2="168.205" y2="198.458" gradientUnits="userSpaceOnUse">
<stop stop-color="#FFE676"/>
<stop offset="1" stop-color="#FFD410"/>
</linearGradient>
<linearGradient id="paint3_linear_108_7605" x1="168.205" y1="57.1465" x2="168.205" y2="198.458" gradientUnits="userSpaceOnUse">
<stop stop-color="#FFE676"/>
<stop offset="1" stop-color="#FFD410"/>
</linearGradient>
<linearGradient id="paint4_linear_108_7605" x1="441.931" y1="44.7787" x2="391.355" y2="176.73" gradientUnits="userSpaceOnUse">
<stop stop-color="#FFE676"/>
<stop offset="1" stop-color="#FFD410"/>
</linearGradient>
<linearGradient id="paint5_linear_108_7605" x1="441.931" y1="44.7787" x2="391.355" y2="176.73" gradientUnits="userSpaceOnUse">
<stop stop-color="#FFE676"/>
<stop offset="1" stop-color="#FFD410"/>
</linearGradient>
<linearGradient id="paint6_linear_108_7605" x1="313.713" y1="57.2393" x2="340.596" y2="135.913" gradientUnits="userSpaceOnUse">
<stop stop-color="#FFE676"/>
<stop offset="1" stop-color="#FFD410"/>
</linearGradient>
</defs>
</svg>
