<svg width="1080" height="1080" viewBox="0 0 1080 1080" fill="none" xmlns="http://www.w3.org/2000/svg">
<mask id="path-1-outside-1_223_565" maskUnits="userSpaceOnUse" x="245" y="184" width="563" height="691" fill="black">
<rect fill="white" x="245" y="184" width="563" height="691"/>
<path d="M667.607 481.885C733.6 525.718 756.613 586.598 736.644 664.524C729.826 691.554 717.528 715.297 699.751 735.753C682.218 756.208 661.397 772.524 637.289 784.7C613.181 797.119 585.176 805.156 553.275 808.808C521.374 812.461 491.665 811 464.147 804.425C392.309 786.161 341.536 741.962 311.826 671.829C306.712 659.41 311.218 647.964 325.342 637.493C339.709 627.022 356.877 618.377 376.846 611.558C396.814 604.496 416.296 599.869 435.29 597.678C454.285 595.486 465.852 596.338 469.992 600.235C473.644 604.131 475.714 608.88 476.201 614.481C477.175 633.475 489.351 639.806 512.729 633.475C536.35 626.9 546.213 617.646 542.317 605.714C537.933 592.564 520.887 577.709 491.178 561.15C461.469 544.591 446.249 524.135 445.518 499.783C445.275 494.182 446.736 484.929 449.901 472.022C453.067 459.116 462.321 444.505 477.663 428.189C431.394 427.458 399.25 426.119 381.229 424.171C369.54 422.953 359.678 415.404 351.642 401.524C343.849 387.4 338.248 371.449 334.839 353.672C331.673 335.895 331.064 318.606 333.013 301.803C334.961 284.756 339.953 272.459 347.989 264.91C354.32 259.065 375.872 254.804 412.643 252.125C449.658 249.203 489.717 248.107 532.819 248.837C575.922 249.325 615.981 251.516 652.996 255.412C690.254 259.065 712.414 264.423 719.476 271.485C734.818 287.557 733.844 320.067 716.554 369.014C699.264 417.961 682.949 455.585 667.607 481.885Z"/>
</mask>
<path d="M667.607 481.885C733.6 525.718 756.613 586.598 736.644 664.524C729.826 691.554 717.528 715.297 699.751 735.753C682.218 756.208 661.397 772.524 637.289 784.7C613.181 797.119 585.176 805.156 553.275 808.808C521.374 812.461 491.665 811 464.147 804.425C392.309 786.161 341.536 741.962 311.826 671.829C306.712 659.41 311.218 647.964 325.342 637.493C339.709 627.022 356.877 618.377 376.846 611.558C396.814 604.496 416.296 599.869 435.29 597.678C454.285 595.486 465.852 596.338 469.992 600.235C473.644 604.131 475.714 608.88 476.201 614.481C477.175 633.475 489.351 639.806 512.729 633.475C536.35 626.9 546.213 617.646 542.317 605.714C537.933 592.564 520.887 577.709 491.178 561.15C461.469 544.591 446.249 524.135 445.518 499.783C445.275 494.182 446.736 484.929 449.901 472.022C453.067 459.116 462.321 444.505 477.663 428.189C431.394 427.458 399.25 426.119 381.229 424.171C369.54 422.953 359.678 415.404 351.642 401.524C343.849 387.4 338.248 371.449 334.839 353.672C331.673 335.895 331.064 318.606 333.013 301.803C334.961 284.756 339.953 272.459 347.989 264.91C354.32 259.065 375.872 254.804 412.643 252.125C449.658 249.203 489.717 248.107 532.819 248.837C575.922 249.325 615.981 251.516 652.996 255.412C690.254 259.065 712.414 264.423 719.476 271.485C734.818 287.557 733.844 320.067 716.554 369.014C699.264 417.961 682.949 455.585 667.607 481.885Z" fill="#C6A50D"/>
<path d="M667.607 481.885L612.325 449.637L581.902 501.79L632.197 535.196L667.607 481.885ZM736.644 664.524L674.648 648.637L674.618 648.753L674.588 648.87L736.644 664.524ZM699.751 735.753L651.444 693.772L651.301 693.936L651.159 694.102L699.751 735.753ZM637.289 784.7L608.437 727.573L608.208 727.688L607.98 727.806L637.289 784.7ZM464.147 804.425L448.378 866.452L448.825 866.566L449.274 866.673L464.147 804.425ZM311.826 671.829L252.647 696.197L252.77 696.496L252.896 696.793L311.826 671.829ZM325.342 637.493L287.647 585.772L287.436 585.926L287.226 586.081L325.342 637.493ZM376.846 611.558L397.527 672.125L397.857 672.012L398.185 671.896L376.846 611.558ZM469.992 600.235L516.682 556.462L515.313 555.002L513.855 553.63L469.992 600.235ZM476.201 614.481L540.117 611.203L540.059 610.068L539.961 608.936L476.201 614.481ZM512.729 633.475L529.46 695.249L529.676 695.191L529.891 695.131L512.729 633.475ZM542.317 605.714L603.155 585.848L603.094 585.662L603.032 585.475L542.317 605.714ZM445.518 499.783L509.489 497.864L509.476 497.434L509.458 497.003L445.518 499.783ZM477.663 428.189L524.288 472.03L623.533 366.484L478.673 364.197L477.663 428.189ZM381.229 424.171L388.108 360.542L387.984 360.528L387.86 360.515L381.229 424.171ZM351.642 401.524L295.605 432.441L295.924 433.019L296.254 433.59L351.642 401.524ZM334.839 353.672L271.83 364.893L271.905 365.31L271.984 365.726L334.839 353.672ZM333.013 301.803L396.587 309.174L396.593 309.122L396.599 309.07L333.013 301.803ZM347.989 264.91L304.579 217.882L304.373 218.072L304.17 218.263L347.989 264.91ZM412.643 252.125L417.293 315.956L417.487 315.942L417.68 315.926L412.643 252.125ZM532.819 248.837L531.735 312.828L531.916 312.831L532.096 312.833L532.819 248.837ZM652.996 255.412L646.296 319.061L646.524 319.085L646.751 319.107L652.996 255.412ZM719.476 271.485L765.771 227.294L765.257 226.756L764.731 226.23L719.476 271.485ZM632.197 535.196C656.501 551.339 668.679 567.66 674.496 583.049C680.348 598.531 682.144 619.383 674.648 648.637L798.641 680.41C811.114 631.738 811.388 583.188 794.227 537.79C777.032 492.299 744.706 456.263 703.017 428.573L632.197 535.196ZM674.588 648.87C670.152 666.457 662.444 681.114 651.444 693.772L748.059 777.734C772.612 749.481 789.5 716.652 798.701 680.177L674.588 648.87ZM651.159 694.102C639.134 708.131 625.028 719.193 608.437 727.573L666.141 841.827C697.767 825.855 725.302 804.286 748.344 777.403L651.159 694.102ZM607.98 727.806C591.887 736.096 571.592 742.293 545.994 745.224L560.556 872.393C598.76 868.018 634.474 858.143 666.598 841.594L607.98 727.806ZM545.994 745.224C520.512 748.142 498.38 746.803 479.021 742.177L449.274 866.673C484.95 875.197 522.237 876.781 560.556 872.393L545.994 745.224ZM479.917 742.398C428.086 729.221 392.915 699.173 370.757 646.866L252.896 696.793C290.156 784.752 356.532 843.101 448.378 866.452L479.917 742.398ZM371.006 647.461C372.331 650.68 373.627 655.324 373.774 661.065C373.923 666.915 372.838 672.505 370.922 677.371C367.289 686.602 362.094 689.916 363.457 688.905L287.226 586.081C274.465 595.542 259.955 609.814 251.817 630.49C242.925 653.08 244.428 676.236 252.647 696.197L371.006 647.461ZM363.037 689.214C371.345 683.159 382.539 677.242 397.527 672.125L356.165 550.992C331.215 559.511 308.073 570.884 287.647 585.772L363.037 689.214ZM398.185 671.896C414.102 666.267 428.887 662.841 442.626 661.256L427.954 534.1C403.705 536.898 379.527 542.726 355.507 551.221L398.185 671.896ZM442.626 661.256C446.222 660.841 448.959 660.63 450.946 660.543C453.001 660.453 453.755 660.518 453.508 660.5C453.474 660.498 450.93 660.341 446.973 659.145C443.367 658.054 434.766 654.97 426.128 646.84L513.855 553.63C494.506 535.419 470.611 533.413 462.915 532.846C451.384 531.997 439.237 532.798 427.954 534.1L442.626 661.256ZM423.301 644.007C420.282 640.786 417.594 636.832 415.615 632.292C413.653 627.79 412.748 623.544 412.442 620.025L539.961 608.936C538.301 589.849 530.691 571.405 516.682 556.462L423.301 644.007ZM412.285 617.758C413.433 640.141 422.913 672.772 456.537 690.257C484.39 704.74 513.067 699.689 529.46 695.249L495.999 571.701C493.783 572.301 494.468 571.849 497.296 571.849C500.192 571.849 507.222 572.342 515.59 576.693C524.712 581.436 531.664 588.833 535.832 596.86C539.566 604.052 540.04 609.699 540.117 611.203L412.285 617.758ZM529.891 695.131C544.793 690.983 565.28 683.62 581.633 668.276C590.655 659.811 599.709 647.681 604.263 631.509C608.913 614.997 607.495 599.138 603.155 585.848L481.478 625.58C479.086 618.256 477.897 608.028 481.055 596.813C484.118 585.937 489.96 578.769 494.051 574.931C496.055 573.051 497.754 571.845 498.797 571.173C499.847 570.495 500.483 570.195 500.513 570.181C500.555 570.161 500.191 570.334 499.319 570.647C498.456 570.957 497.224 571.358 495.567 571.819L529.891 695.131ZM603.032 585.475C595.622 563.245 580.553 547.146 568.291 536.46C555.19 525.044 539.341 514.725 522.337 505.247L460.019 617.053C472.724 624.134 480.252 629.522 484.198 632.961C486.083 634.603 486.365 635.126 485.829 634.425C485.316 633.755 483.261 630.932 481.601 625.952L603.032 585.475ZM522.337 505.247C512.88 499.976 509.551 496.157 508.827 495.185C508.547 494.808 508.788 495.043 509.076 495.853C509.374 496.69 509.477 497.451 509.489 497.864L381.547 501.702C383.205 556.973 419.299 594.356 460.019 617.053L522.337 505.247ZM509.458 497.003C509.503 498.047 509.495 498.833 509.482 499.305C509.468 499.786 509.446 500.07 509.441 500.126C509.435 500.202 509.472 499.741 509.648 498.624C510.011 496.326 510.742 492.637 512.059 487.268L387.744 456.776C384.566 469.732 380.898 486.917 381.578 502.563L509.458 497.003ZM512.059 487.268C511.579 489.223 511.309 488.746 513.284 485.627C515.214 482.58 518.631 478.046 524.288 472.03L431.037 384.347C412.702 403.847 394.764 428.154 387.744 456.776L512.059 487.268ZM478.673 364.197C432.274 363.464 402.845 362.135 388.108 360.542L374.35 487.8C395.654 490.103 430.514 491.452 476.652 492.181L478.673 364.197ZM387.86 360.515C394.427 361.199 400.085 363.804 403.966 366.775C407.344 369.361 408.008 371.149 407.029 369.457L296.254 433.59C310.504 458.203 335.653 483.77 374.598 487.826L387.86 360.515ZM407.679 370.607C403.506 363.043 399.988 353.585 397.693 341.618L271.984 365.726C276.508 389.313 284.192 411.756 295.605 432.441L407.679 370.607ZM397.848 342.451C395.701 330.398 395.403 319.381 396.587 309.174L269.438 294.432C266.726 317.83 267.645 341.393 271.83 364.893L397.848 342.451ZM396.599 309.07C397.095 304.728 397.736 303.33 397.518 303.867C397.238 304.558 395.747 307.856 391.808 311.556L304.17 218.263C280.396 240.596 272.185 270.397 269.426 294.536L396.599 309.07ZM391.399 311.937C387.163 315.847 383.378 318.089 381.379 319.164C379.261 320.302 377.791 320.851 377.399 320.993C376.748 321.229 377.756 320.818 381.316 320.114C388.39 318.716 400.023 317.214 417.293 315.956L407.993 188.294C388.492 189.715 370.964 191.683 356.486 194.546C349.27 195.973 341.405 197.891 333.783 200.653C327.236 203.026 315.376 207.916 304.579 217.882L391.399 311.937ZM417.68 315.926C452.366 313.188 490.358 312.127 531.735 312.828L533.904 184.847C489.075 184.087 446.95 185.217 407.606 188.323L417.68 315.926ZM532.096 312.833C573.506 313.301 611.548 315.403 646.296 319.061L659.696 191.764C620.414 187.629 578.338 185.348 533.543 184.842L532.096 312.833ZM646.751 319.107C664.038 320.802 675.574 322.699 682.52 324.378C685.983 325.215 686.958 325.682 686.316 325.409C685.925 325.243 684.595 324.657 682.698 323.496C680.858 322.369 677.713 320.231 674.222 316.74L764.731 226.23C754.757 216.255 743.653 210.697 736.382 207.607C728.435 204.229 720.216 201.804 712.599 199.962C697.386 196.284 679.212 193.676 659.24 191.718L646.751 319.107ZM673.182 315.675C664.489 306.569 666.493 298.928 666.281 306.004C666.074 312.908 663.797 326.214 656.208 347.698L776.9 390.33C786.601 362.867 793.456 335.444 794.223 309.838C794.985 284.405 789.805 252.473 765.771 227.294L673.182 315.675ZM656.208 347.698C639.464 395.1 624.714 428.399 612.325 449.637L722.889 514.132C741.184 482.77 759.064 440.822 776.9 390.33L656.208 347.698Z" fill="white" mask="url(#path-1-outside-1_223_565)"/>
<path d="M647.607 446.885C713.6 490.718 736.613 551.598 716.644 629.524C709.826 656.554 697.528 680.297 679.751 700.753C662.218 721.208 641.397 737.524 617.289 749.7C593.181 762.119 565.176 770.156 533.275 773.808C501.374 777.461 471.665 776 444.147 769.425C372.309 751.161 321.536 706.962 291.826 636.829C286.712 624.41 291.218 612.964 305.342 602.493C319.709 592.022 336.877 583.377 356.846 576.558C376.814 569.496 396.296 564.869 415.29 562.678C434.285 560.486 445.852 561.338 449.992 565.235C453.644 569.131 455.714 573.88 456.201 579.481C457.175 598.475 469.351 604.806 492.729 598.475C516.35 591.9 526.213 582.646 522.317 570.714C517.933 557.564 500.887 542.709 471.178 526.15C441.469 509.591 426.249 489.135 425.518 464.783C425.275 459.182 426.736 449.929 429.901 437.022C433.067 424.116 442.321 409.505 457.663 393.189C411.394 392.458 379.25 391.119 361.229 389.171C349.54 387.953 339.678 380.404 331.642 366.524C323.849 352.4 318.248 336.449 314.839 318.672C311.673 300.895 311.064 283.606 313.013 266.803C314.961 249.756 319.953 237.459 327.989 229.91C334.32 224.065 355.872 219.804 392.643 217.125C429.658 214.203 469.717 213.107 512.819 213.837C555.922 214.325 595.981 216.516 632.996 220.412C670.254 224.065 692.414 229.423 699.476 236.485C714.818 252.557 713.844 285.067 696.554 334.014C679.264 382.961 662.949 420.585 647.607 446.885Z" fill="#FFD513"/>
<ellipse cx="341.495" cy="303.846" rx="16.8203" ry="67.5" transform="rotate(174.252 341.495 303.846)" fill="#CDB136"/>
<ellipse cx="370.553" cy="601.718" rx="16.8203" ry="67.5" transform="rotate(-108.036 370.553 601.718)" fill="#CDB136"/>
</svg>
