<svg width="1080" height="1080" viewBox="0 0 1080 1080" fill="none" xmlns="http://www.w3.org/2000/svg">
<mask id="path-1-outside-1_220_564" maskUnits="userSpaceOnUse" x="258" y="165" width="556" height="687" fill="black">
<rect fill="white" x="258" y="165" width="556" height="687"/>
<path d="M334.689 778.503C326.409 773.876 322.513 753.177 323 716.406C323.731 679.634 325.07 657.231 327.018 649.194C340.655 591.968 365.981 549.108 402.996 520.617C440.011 491.881 483.722 467.53 534.131 447.561C554.586 439.525 563.962 431.124 562.257 422.357C560.796 413.59 554.951 407.137 544.724 402.997C534.496 398.614 523.294 397.762 511.118 400.44C499.186 403.119 492.976 411.642 492.489 426.01C492.002 431.367 490.054 435.994 486.644 439.89C479.826 447.196 467.285 450.727 449.021 450.483C431 450.24 413.224 448.292 395.69 444.639C383.758 442.204 372.556 439.038 362.085 435.142C351.857 431.245 342.725 424.549 334.689 415.051C325.192 404.093 327.262 384.49 340.899 356.242C354.536 327.993 366.833 308.147 377.792 296.701C412.858 260.417 455.474 238.744 505.639 231.682C555.804 224.62 602.438 232.534 645.54 255.425C686.451 277.342 716.769 313.017 736.494 362.451C756.219 411.886 754.028 458.032 729.919 500.892C709.22 537.663 679.268 562.137 640.061 574.312C600.855 586.245 571.389 602.074 551.664 621.799C582.591 621.068 613.518 620.094 644.444 618.876C675.371 617.659 695.827 617.659 705.811 618.876C715.308 619.363 723.223 626.912 729.554 641.524C736.129 655.891 740.634 672.207 743.069 690.471C745.748 708.735 746.235 726.512 744.531 743.801C743.069 760.848 739.051 772.293 732.476 778.137C728.824 781.547 707.394 783.982 668.188 785.443C628.981 786.904 585.878 787.635 538.879 787.635C491.88 787.635 447.925 786.904 407.014 785.443C366.103 783.982 341.994 781.669 334.689 778.503Z"/>
</mask>
<path d="M334.689 778.503C326.409 773.876 322.513 753.177 323 716.406C323.731 679.634 325.07 657.231 327.018 649.194C340.655 591.968 365.981 549.108 402.996 520.617C440.011 491.881 483.722 467.53 534.131 447.561C554.586 439.525 563.962 431.124 562.257 422.357C560.796 413.59 554.951 407.137 544.724 402.997C534.496 398.614 523.294 397.762 511.118 400.44C499.186 403.119 492.976 411.642 492.489 426.01C492.002 431.367 490.054 435.994 486.644 439.89C479.826 447.196 467.285 450.727 449.021 450.483C431 450.24 413.224 448.292 395.69 444.639C383.758 442.204 372.556 439.038 362.085 435.142C351.857 431.245 342.725 424.549 334.689 415.051C325.192 404.093 327.262 384.49 340.899 356.242C354.536 327.993 366.833 308.147 377.792 296.701C412.858 260.417 455.474 238.744 505.639 231.682C555.804 224.62 602.438 232.534 645.54 255.425C686.451 277.342 716.769 313.017 736.494 362.451C756.219 411.886 754.028 458.032 729.919 500.892C709.22 537.663 679.268 562.137 640.061 574.312C600.855 586.245 571.389 602.074 551.664 621.799C582.591 621.068 613.518 620.094 644.444 618.876C675.371 617.659 695.827 617.659 705.811 618.876C715.308 619.363 723.223 626.912 729.554 641.524C736.129 655.891 740.634 672.207 743.069 690.471C745.748 708.735 746.235 726.512 744.531 743.801C743.069 760.848 739.051 772.293 732.476 778.137C728.824 781.547 707.394 783.982 668.188 785.443C628.981 786.904 585.878 787.635 538.879 787.635C491.88 787.635 447.925 786.904 407.014 785.443C366.103 783.982 341.994 781.669 334.689 778.503Z" fill="#C6A50D"/>
<path d="M334.689 778.503L303.468 834.371L306.283 835.944L309.242 837.226L334.689 778.503ZM323 716.406L259.013 715.134L259.008 715.346L259.006 715.558L323 716.406ZM327.018 649.194L389.216 664.273L389.246 664.152L389.275 664.03L327.018 649.194ZM402.996 520.617L442.033 571.332L442.138 571.252L442.242 571.171L402.996 520.617ZM534.131 447.561L510.729 387.993L510.644 388.026L510.56 388.06L534.131 447.561ZM562.257 422.357L499.128 432.878L499.269 433.728L499.434 434.573L562.257 422.357ZM544.724 402.997L519.513 461.822L520.11 462.078L520.711 462.322L544.724 402.997ZM511.118 400.44L497.367 337.935L497.233 337.964L497.1 337.994L511.118 400.44ZM492.489 426.01L556.226 431.804L556.391 429.994L556.452 428.178L492.489 426.01ZM486.644 439.89L533.432 483.559L534.133 482.808L534.809 482.035L486.644 439.89ZM449.021 450.483L448.156 514.477L448.168 514.478L449.021 450.483ZM395.69 444.639L408.743 381.984L408.616 381.958L408.488 381.931L395.69 444.639ZM362.085 435.142L339.301 494.949L339.533 495.037L339.766 495.124L362.085 435.142ZM334.689 415.051L383.546 373.711L383.301 373.422L383.053 373.136L334.689 415.051ZM377.792 296.701L331.771 252.225L331.667 252.333L331.564 252.441L377.792 296.701ZM645.54 255.425L675.762 199.01L675.661 198.956L675.558 198.901L645.54 255.425ZM729.919 500.892L785.69 532.286L785.695 532.277L785.7 532.268L729.919 500.892ZM640.061 574.312L658.695 635.54L658.869 635.487L659.043 635.433L640.061 574.312ZM551.664 621.799L506.409 576.544L393.398 689.555L553.175 685.781L551.664 621.799ZM705.811 618.876L698.064 682.406L700.292 682.677L702.533 682.792L705.811 618.876ZM729.554 641.524L670.831 666.97L671.089 667.566L671.358 668.156L729.554 641.524ZM743.069 690.471L679.631 698.929L679.686 699.344L679.747 699.758L743.069 690.471ZM744.531 743.801L680.839 737.522L680.799 737.929L680.764 738.336L744.531 743.801ZM732.476 778.137L689.957 730.303L689.376 730.82L688.808 731.35L732.476 778.137ZM365.909 722.634C379.671 730.325 385.399 740.996 386.981 744.288C388.769 748.006 388.851 749.789 388.452 747.669C388.122 745.916 387.664 742.568 387.344 737.181C387.031 731.895 386.888 725.3 386.994 717.253L259.006 715.558C258.741 735.554 259.554 754.839 262.662 771.347C264.211 779.577 266.789 789.701 271.621 799.75C276.247 809.373 285.567 824.367 303.468 834.371L365.909 722.634ZM386.987 717.677C387.345 699.68 387.841 685.836 388.438 675.844C388.737 670.84 389.037 667.229 389.301 664.787C389.619 661.844 389.718 662.204 389.216 664.273L264.82 634.116C262.31 644.467 261.304 657.541 260.666 668.205C259.924 680.617 259.386 696.36 259.013 715.134L386.987 717.677ZM389.275 664.03C400.414 617.286 419.389 588.762 442.033 571.332L363.958 469.901C312.573 509.454 280.896 566.649 264.761 634.359L389.275 664.03ZM442.242 571.171C473.8 546.672 512.053 525.145 557.701 507.063L510.56 388.06C455.391 409.914 406.221 437.091 363.75 470.062L442.242 571.171ZM557.532 507.129C570.377 502.083 586.125 494.626 599.215 482.896C613.066 470.484 631.877 445.095 625.08 410.141L499.434 434.573C497.21 423.138 498.914 411.956 503.025 402.755C506.754 394.411 511.591 389.543 513.793 387.57C517.508 384.241 518.34 385.003 510.729 387.993L557.532 507.129ZM625.386 411.835C619.348 375.606 593.851 353.838 568.736 343.673L520.711 462.322C519.203 461.711 514.386 459.475 509.341 453.904C503.854 447.845 500.368 440.322 499.128 432.878L625.386 411.835ZM569.934 344.172C545.963 333.898 520.955 332.746 497.367 337.935L524.869 462.946C525.514 462.804 525.07 462.983 523.796 462.886C522.452 462.784 520.927 462.428 519.513 461.822L569.934 344.172ZM497.1 337.994C478.543 342.16 459.477 352.362 445.784 371.155C432.852 388.905 429.049 408.389 428.526 423.841L556.452 428.178C556.415 429.263 555.961 437.302 549.239 446.529C541.756 456.799 531.76 461.399 525.137 462.886L497.1 337.994ZM428.752 420.215C429.061 416.809 429.922 412.833 431.678 408.662C433.444 404.468 435.817 400.788 438.48 397.746L534.809 482.035C547.481 467.553 554.567 450.057 556.226 431.804L428.752 420.215ZM439.857 396.222C446.518 389.085 453.131 386.877 454.78 386.413C456.272 385.993 455.121 386.559 449.874 386.489L448.168 514.478C470.733 514.778 507.32 511.536 533.432 483.559L439.857 396.222ZM449.886 386.489C435.936 386.301 422.241 384.796 408.743 381.984L382.637 507.294C404.206 511.787 426.065 514.179 448.156 514.477L449.886 386.489ZM408.488 381.931C399.508 380.099 391.514 377.805 384.404 375.159L339.766 495.124C353.598 500.271 368.007 504.308 382.893 507.346L408.488 381.931ZM384.868 375.334C385.305 375.501 385.509 375.658 385.412 375.587C385.284 375.493 384.627 374.989 383.546 373.711L285.832 456.392C299.89 473.005 317.646 486.699 339.301 494.949L384.868 375.334ZM383.053 373.136C387.91 378.74 390.653 384.865 391.925 390.098C393.108 394.968 392.831 398.219 392.765 398.851C392.697 399.489 392.728 398.569 393.648 395.767C394.545 393.032 396.07 389.169 398.534 384.066L283.263 328.418C274.906 345.73 267.601 365.252 265.472 385.41C263.27 406.27 266.251 433.805 286.325 456.967L383.053 373.136ZM398.534 384.066C411.526 357.154 420.296 344.851 424.019 340.962L331.564 252.441C313.37 271.443 297.546 298.833 283.263 328.418L398.534 384.066ZM423.812 341.177C448.922 315.196 478.462 300.139 514.561 295.057L496.717 168.307C432.486 177.349 376.795 205.639 331.771 252.225L423.812 341.177ZM514.561 295.057C551.891 289.802 584.826 295.647 615.522 311.949L675.558 198.901C620.049 169.422 559.716 159.438 496.717 168.307L514.561 295.057ZM615.318 311.84C641.015 325.606 662.045 348.561 677.052 386.17L795.937 338.733C771.494 277.474 731.887 229.077 675.762 199.01L615.318 311.84ZM677.052 386.17C690.281 419.324 687.9 445.05 674.139 469.515L785.7 532.268C820.156 471.014 822.158 404.447 795.937 338.733L677.052 386.17ZM674.148 469.497C661.219 492.466 644.201 506.011 621.08 513.192L659.043 635.433C714.334 618.262 757.222 582.86 785.69 532.286L674.148 469.497ZM621.427 513.085C576.542 526.746 536.233 546.72 506.409 576.544L596.919 667.053C606.545 657.427 625.167 645.744 658.695 635.54L621.427 513.085ZM553.175 685.781C584.438 685.042 615.7 684.058 646.962 682.827L641.927 554.926C611.335 556.13 580.744 557.094 550.153 557.816L553.175 685.781ZM646.962 682.827C661.964 682.236 673.901 681.963 682.981 681.963C687.51 681.963 691.08 682.031 693.802 682.14C695.149 682.194 696.186 682.254 696.951 682.309C697.733 682.366 698.076 682.407 698.064 682.406L713.559 555.347C697.573 553.398 671.882 553.747 641.927 554.926L646.962 682.827ZM702.533 682.792C689.711 682.135 680.06 676.33 674.696 671.214C670.306 667.027 669.647 664.239 670.831 666.97L788.278 616.077C779.222 595.179 756.438 557.389 709.089 554.96L702.533 682.792ZM671.358 668.156C674.9 675.894 677.898 685.932 679.631 698.929L806.508 682.012C803.371 658.482 797.359 635.888 787.75 614.892L671.358 668.156ZM679.747 699.758C681.717 713.188 682.002 725.73 680.839 737.522L808.222 750.081C810.468 727.294 809.78 704.281 806.392 681.184L679.747 699.758ZM680.764 738.336C680.322 743.499 679.697 744.931 680.034 743.97C680.326 743.141 682.627 736.819 689.957 730.303L774.996 825.972C801.133 802.738 806.591 769.168 808.297 749.267L680.764 738.336ZM688.808 731.35C693.38 727.082 697.652 724.414 700.33 722.915C703.135 721.345 705.484 720.345 706.969 719.764C709.819 718.65 711.736 718.215 711.88 718.182C712.214 718.104 710.739 718.441 706.438 718.93C698.133 719.874 684.867 720.777 665.804 721.487L670.571 849.399C690.714 848.648 707.767 847.603 720.891 846.112C727.305 845.383 734.322 844.381 740.927 842.842C744.207 842.078 748.703 840.882 753.578 838.976C757.387 837.487 766.935 833.52 776.145 824.925L688.808 731.35ZM665.804 721.487C627.528 722.914 585.233 723.635 538.879 723.635V851.635C586.523 851.635 630.434 850.894 670.571 849.399L665.804 721.487ZM538.879 723.635C492.533 723.635 449.347 722.914 409.298 721.484L404.73 849.402C446.503 850.894 491.227 851.635 538.879 851.635V723.635ZM409.298 721.484C389.38 720.772 374.573 719.885 364.363 718.905C359.227 718.412 356.024 717.967 354.315 717.669C351.448 717.169 354.732 717.438 360.136 719.779L309.242 837.226C318.298 841.151 327.336 842.896 332.322 843.765C338.466 844.837 345.217 845.656 352.136 846.32C366.034 847.653 383.736 848.653 404.73 849.402L409.298 721.484Z" fill="white" mask="url(#path-1-outside-1_220_564)"/>
<path d="M302.689 754.503C294.409 749.876 290.513 729.177 291 692.406C291.731 655.634 293.07 633.231 295.018 625.194C308.655 567.968 333.981 525.108 370.996 496.617C408.011 467.881 451.722 443.53 502.131 423.561C522.586 415.525 531.962 407.124 530.257 398.357C528.796 389.59 522.951 383.137 512.724 378.997C502.496 374.614 491.294 373.762 479.118 376.44C467.186 379.119 460.976 387.642 460.489 402.01C460.002 407.367 458.054 411.994 454.644 415.89C447.826 423.196 435.285 426.727 417.021 426.483C399 426.24 381.224 424.292 363.69 420.639C351.758 418.204 340.556 415.038 330.085 411.142C319.857 407.245 310.725 400.549 302.689 391.051C293.192 380.093 295.262 360.49 308.899 332.242C322.536 303.993 334.833 284.147 345.792 272.701C380.858 236.417 423.474 214.744 473.639 207.682C523.804 200.62 570.438 208.534 613.54 231.425C654.451 253.342 684.769 289.017 704.494 338.451C724.219 387.886 722.028 434.032 697.919 476.892C677.22 513.663 647.268 538.137 608.061 550.312C568.855 562.245 539.389 578.074 519.664 597.799C550.591 597.068 581.518 596.094 612.444 594.876C643.371 593.659 663.827 593.659 673.811 594.876C683.308 595.363 691.223 602.912 697.554 617.524C704.129 631.891 708.634 648.207 711.069 666.471C713.748 684.735 714.235 702.512 712.531 719.801C711.069 736.848 707.051 748.293 700.476 754.137C696.824 757.547 675.394 759.982 636.188 761.443C596.981 762.904 553.878 763.635 506.879 763.635C459.88 763.635 415.925 762.904 375.014 761.443C334.103 759.982 309.994 757.669 302.689 754.503Z" fill="#FFD513"/>
<ellipse cx="376.466" cy="395.331" rx="16.8203" ry="67.5" transform="rotate(-79.0547 376.466 395.331)" fill="#CDB136"/>
<ellipse cx="685.345" cy="677.659" rx="16.8203" ry="67.5" transform="rotate(-4.74363 685.345 677.659)" fill="#CDB136"/>
</svg>
