<svg width="561" height="796" viewBox="0 0 561 796" fill="none" xmlns="http://www.w3.org/2000/svg">
<mask id="path-1-outside-1_108_8015" maskUnits="userSpaceOnUse" x="-0.524658" y="35.9795" width="561" height="760" fill="black">
<rect fill="white" x="-0.524658" y="35.9795" width="561" height="760"/>
<path fill-rule="evenodd" clip-rule="evenodd" d="M358.558 332.078C379.932 312.005 391.976 291.594 396.83 271.839C397.7 271.667 398.525 271.478 399.308 271.271C412.884 267.906 417.683 261.545 421.27 246.287C421.393 246.068 421.518 245.848 421.644 245.626C473.215 277.322 501.082 210.29 442.857 164.442C417.611 74.1335 384.703 57.9987 308.197 61.9647C254.339 44.4719 235.074 66.6771 273.196 110.934C272.958 111.12 272.725 111.304 272.496 111.486C264.486 115.267 259.992 119.989 259.33 129.77C254.644 129.622 250.011 129.743 245.464 130.149C241.742 126.718 238.085 123.144 234.568 119.705C227.794 113.082 221.536 106.963 216.308 103.349C192.467 86.8638 184.141 100.467 214.182 129.389C199.599 127.895 188.783 132.68 190.566 141.266C191.934 145.487 194.872 148.864 198.804 151.436C187.884 160.993 179.191 172.471 172.589 185.128C162.868 187.533 155.04 193.316 154.407 202.479C155.925 205.678 158.878 208.01 162.778 209.542C156.18 231.821 154.791 255.984 158.034 278.932C157.359 278.923 156.695 278.937 156.042 278.975C97.973 289.764 76.3391 301.373 79.1356 323.721C93.6961 346.488 142.608 343.777 178.074 336.403C183.646 345.407 190.229 353.414 197.753 360.044L197.747 360.057C196.458 362.987 194.991 366.319 190.762 368.421C189.153 369.315 188.026 370.089 187.598 370.844C184.456 368.838 165.593 372.745 165.593 374.04L165.58 374.089C97.5591 382.95 46.0254 430.464 27.5675 486.005C8.98107 521.384 21.5511 625.461 74.2371 645.229C113.867 652.94 146.357 656.1 176.863 654.172C176.132 682.665 172.623 710.205 167.226 746.641C253.992 782.001 302.393 785.138 388.158 756.429C386.489 712.193 386.823 673.188 388.019 635.755C397.162 638.378 406.026 640.797 414.492 642.959C426.619 646.209 437.842 648.748 447.829 650.476C468.906 654.43 484.963 655.478 492.851 652.277C543.196 625.709 558.518 532.023 515.17 459.311L515.092 459.314C486.448 408.679 437.934 372.501 396.585 379.608L396.324 379.368L396.317 378.601L396.314 378.218C390.389 368.408 383.452 364.649 374.15 368.336C371.842 365.19 370.017 362.575 368.304 359.945C366.753 356.857 365.059 354.233 363.492 351.805L363.491 351.803C362.908 350.9 362.343 350.025 361.809 349.162L361.628 348.845L361.615 348.846C358.522 343.794 356.568 339.139 358.558 332.078Z"/>
</mask>
<path fill-rule="evenodd" clip-rule="evenodd" d="M358.558 332.078C379.932 312.005 391.976 291.594 396.83 271.839C397.7 271.667 398.525 271.478 399.308 271.271C412.884 267.906 417.683 261.545 421.27 246.287C421.393 246.068 421.518 245.848 421.644 245.626C473.215 277.322 501.082 210.29 442.857 164.442C417.611 74.1335 384.703 57.9987 308.197 61.9647C254.339 44.4719 235.074 66.6771 273.196 110.934C272.958 111.12 272.725 111.304 272.496 111.486C264.486 115.267 259.992 119.989 259.33 129.77C254.644 129.622 250.011 129.743 245.464 130.149C241.742 126.718 238.085 123.144 234.568 119.705C227.794 113.082 221.536 106.963 216.308 103.349C192.467 86.8638 184.141 100.467 214.182 129.389C199.599 127.895 188.783 132.68 190.566 141.266C191.934 145.487 194.872 148.864 198.804 151.436C187.884 160.993 179.191 172.471 172.589 185.128C162.868 187.533 155.04 193.316 154.407 202.479C155.925 205.678 158.878 208.01 162.778 209.542C156.18 231.821 154.791 255.984 158.034 278.932C157.359 278.923 156.695 278.937 156.042 278.975C97.973 289.764 76.3391 301.373 79.1356 323.721C93.6961 346.488 142.608 343.777 178.074 336.403C183.646 345.407 190.229 353.414 197.753 360.044L197.747 360.057C196.458 362.987 194.991 366.319 190.762 368.421C189.153 369.315 188.026 370.089 187.598 370.844C184.456 368.838 165.593 372.745 165.593 374.04L165.58 374.089C97.5591 382.95 46.0254 430.464 27.5675 486.005C8.98107 521.384 21.5511 625.461 74.2371 645.229C113.867 652.94 146.357 656.1 176.863 654.172C176.132 682.665 172.623 710.205 167.226 746.641C253.992 782.001 302.393 785.138 388.158 756.429C386.489 712.193 386.823 673.188 388.019 635.755C397.162 638.378 406.026 640.797 414.492 642.959C426.619 646.209 437.842 648.748 447.829 650.476C468.906 654.43 484.963 655.478 492.851 652.277C543.196 625.709 558.518 532.023 515.17 459.311L515.092 459.314C486.448 408.679 437.934 372.501 396.585 379.608L396.324 379.368L396.317 378.601L396.314 378.218C390.389 368.408 383.452 364.649 374.15 368.336C371.842 365.19 370.017 362.575 368.304 359.945C366.753 356.857 365.059 354.233 363.492 351.805L363.491 351.803C362.908 350.9 362.343 350.025 361.809 349.162L361.628 348.845L361.615 348.846C358.522 343.794 356.568 339.139 358.558 332.078Z" fill="#D8B16E"/>
<path d="M396.83 271.839L393.068 252.734L380.884 255.133L377.921 267.193L396.83 271.839ZM358.558 332.078L345.229 317.884L341.285 321.588L339.817 326.795L358.558 332.078ZM399.308 271.271L394.624 252.371L394.475 252.408L394.326 252.447L399.308 271.271ZM421.27 246.287L404.294 236.751L402.946 239.151L402.316 241.83L421.27 246.287ZM421.644 245.626L431.84 229.037L414.682 218.492L404.721 235.995L421.644 245.626ZM442.857 164.442L424.105 169.684L425.816 175.806L430.811 179.739L442.857 164.442ZM308.197 61.9647L302.182 80.4838L305.608 81.5965L309.205 81.41L308.197 61.9647ZM273.196 110.934L285.173 126.287L301.289 113.714L287.949 98.2266L273.196 110.934ZM272.496 111.486L280.807 129.095L282.861 128.125L284.637 126.709L272.496 111.486ZM259.33 129.77L258.715 149.232L277.488 149.825L278.757 131.085L259.33 129.77ZM245.464 130.149L232.27 144.468L238.609 150.309L247.194 149.543L245.464 130.149ZM234.568 119.705L248.18 105.782L248.18 105.782L234.568 119.705ZM216.308 103.349L227.382 87.3329L227.382 87.3328L216.308 103.349ZM214.182 129.389L212.197 148.759L268.351 154.513L227.686 115.362L214.182 129.389ZM190.566 141.266L171.501 145.226L171.717 146.261L172.043 147.268L190.566 141.266ZM198.804 151.436L211.628 166.088L230.939 149.188L209.463 135.141L198.804 151.436ZM172.589 185.128L177.265 204.03L185.791 201.921L189.852 194.134L172.589 185.128ZM154.407 202.479L134.982 201.137L134.631 206.22L136.814 210.823L154.407 202.479ZM162.778 209.542L181.447 215.071L186.518 197.95L169.898 191.419L162.778 209.542ZM158.034 278.932L157.77 298.401L180.494 298.71L177.314 276.207L158.034 278.932ZM156.042 278.975L154.899 259.537L153.683 259.609L152.486 259.831L156.042 278.975ZM79.1356 323.721L59.815 326.139L60.3613 330.505L62.7321 334.212L79.1356 323.721ZM178.074 336.403L194.632 326.158L187.459 314.564L174.111 317.34L178.074 336.403ZM197.753 360.044L215.576 367.886L221.312 354.85L210.626 345.434L197.753 360.044ZM197.747 360.057L215.569 367.901L215.57 367.899L197.747 360.057ZM190.762 368.421L182.095 350.985L181.694 351.184L181.303 351.402L190.762 368.421ZM187.598 370.844L177.121 387.256L194.414 398.296L204.535 380.45L187.598 370.844ZM165.593 374.04L184.356 379.247L185.065 376.692V374.04H165.593ZM165.58 374.089L168.096 393.397L180.892 391.73L184.342 379.295L165.58 374.089ZM27.5675 486.005L44.8049 495.061L45.5441 493.654L46.0453 492.146L27.5675 486.005ZM74.2371 645.229L67.3969 663.459L68.9206 664.031L70.5179 664.342L74.2371 645.229ZM176.863 654.172L196.328 654.671L196.874 633.397L175.635 634.739L176.863 654.172ZM167.226 746.641L147.964 743.788L145.725 758.906L159.877 764.673L167.226 746.641ZM388.158 756.429L394.338 774.894L408.165 770.266L407.615 755.695L388.158 756.429ZM388.019 635.755L393.39 617.039L369.356 610.143L368.558 635.133L388.019 635.755ZM414.492 642.959L419.534 624.151L419.422 624.121L419.31 624.093L414.492 642.959ZM447.829 650.476L451.419 631.339L451.285 631.314L451.15 631.29L447.829 650.476ZM492.851 652.277L500.172 670.32L501.076 669.953L501.939 669.498L492.851 652.277ZM515.17 459.311L531.895 449.34L525.939 439.35L514.319 439.858L515.17 459.311ZM515.092 459.314L498.144 468.901L504.02 479.289L515.943 478.767L515.092 459.314ZM396.585 379.608L383.435 393.968L390.475 400.415L399.884 398.798L396.585 379.608ZM396.324 379.368L376.853 379.53L376.923 388.004L383.173 393.728L396.324 379.368ZM396.317 378.601L415.788 378.439L415.788 378.434L396.317 378.601ZM396.314 378.218L415.784 378.051L415.739 372.717L412.981 368.152L396.314 378.218ZM374.15 368.336L358.45 379.853L367.345 391.979L381.325 386.437L374.15 368.336ZM368.304 359.945L350.904 368.685L351.393 369.659L351.988 370.572L368.304 359.945ZM363.492 351.805L379.852 341.246L379.835 341.219L379.818 341.193L363.492 351.805ZM363.491 351.803L347.131 362.362L347.148 362.389L347.165 362.415L363.491 351.803ZM361.809 349.162L344.899 358.816L345.071 359.117L345.254 359.412L361.809 349.162ZM361.628 348.845L378.538 339.191L372.316 328.293L359.821 329.458L361.628 348.845ZM361.615 348.846L345.007 359.012L351.341 369.359L363.421 368.234L361.615 348.846ZM377.921 267.193C374.143 282.569 364.458 299.826 345.229 317.884L371.888 346.271C395.406 324.185 409.81 300.618 415.739 276.484L377.921 267.193ZM394.326 252.447C393.977 252.54 393.561 252.637 393.068 252.734L400.592 290.943C401.84 290.697 403.073 290.416 404.289 290.094L394.326 252.447ZM402.316 241.83C400.716 248.634 399.478 250.301 399.226 250.596C399.206 250.62 399.136 250.73 398.69 250.972C398.128 251.276 396.939 251.798 394.624 252.371L403.991 290.171C413.077 287.919 421.937 283.971 428.843 275.882C435.282 268.34 438.237 259.198 440.225 250.743L402.316 241.83ZM404.721 235.995C404.576 236.25 404.434 236.502 404.294 236.751L438.247 255.823C438.353 255.634 438.459 255.445 438.567 255.256L404.721 235.995ZM430.811 179.739C455.578 199.242 457.749 219.508 454.94 227.992C453.608 232.014 451.487 233.489 449.583 234.03C447.377 234.656 441.615 235.045 431.84 229.037L411.448 262.215C427.459 272.055 444.519 275.951 460.223 271.491C476.228 266.945 487.105 254.739 491.908 240.234C501.369 211.664 488.361 175.49 454.903 149.144L430.811 179.739ZM309.205 81.41C346.849 79.4586 368.307 82.989 383.5 93.7432C398.738 104.529 411.762 125.532 424.105 169.684L461.609 159.199C448.706 113.043 432.654 80.8246 405.999 61.9575C379.3 43.0588 346.051 40.5049 307.189 42.5195L309.205 81.41ZM287.949 98.2266C279.256 88.1347 275.05 80.6401 273.456 75.9203C271.841 71.1392 273.761 72.3805 271.688 75.099C269.991 77.3254 269.217 75.6902 275.34 75.4718C281.042 75.2684 289.95 76.5107 302.182 80.4838L314.212 43.4457C299.516 38.6724 285.818 36.1305 273.952 36.5538C262.507 36.962 249.201 40.3643 240.72 51.4876C231.864 63.1029 232.75 77.1004 236.561 88.3835C240.393 99.7279 248.075 111.605 258.443 123.642L287.949 98.2266ZM284.637 126.709C284.809 126.572 284.987 126.432 285.173 126.287L261.219 95.582C260.929 95.8086 260.641 96.0358 260.355 96.2639L284.637 126.709ZM278.757 131.085C278.83 130.006 278.974 129.589 278.971 129.598C278.95 129.661 278.836 129.931 278.603 130.235C278.166 130.804 278.206 130.323 280.807 129.095L264.185 93.878C258.776 96.4308 252.564 100.201 247.712 106.521C242.656 113.108 240.43 120.67 239.903 128.455L278.757 131.085ZM247.194 149.543C250.919 149.211 254.767 149.107 258.715 149.232L259.945 110.309C254.521 110.137 249.104 110.276 243.735 110.754L247.194 149.543ZM220.956 133.627C224.439 137.033 228.3 140.81 232.27 144.468L258.659 115.829C255.183 112.627 251.731 109.254 248.18 105.782L220.956 133.627ZM205.234 119.364C208.783 121.818 213.69 126.524 220.956 133.627L248.18 105.782C241.898 99.6404 234.289 92.1084 227.382 87.3329L205.234 119.364ZM227.686 115.362C220.927 108.855 217.065 103.897 215.155 100.734C214.197 99.1489 214.01 98.4738 214.059 98.6411C214.092 98.7552 214.24 99.2884 214.299 100.171C214.357 101.049 214.342 102.505 213.867 104.306C212.735 108.597 209.589 112.532 205.159 114.505C201.572 116.102 198.86 115.662 198.593 115.619C198.104 115.54 200.281 115.94 205.234 119.364L227.382 87.3328C220.414 82.5151 212.611 78.4336 204.794 77.1729C200.863 76.5389 195.15 76.3323 189.315 78.9308C182.637 81.9051 177.996 87.6078 176.211 94.3774C174.651 100.293 175.565 105.744 176.674 109.546C177.843 113.552 179.707 117.368 181.821 120.868C186.053 127.875 192.416 135.463 200.677 143.417L227.686 115.362ZM209.63 137.306C210.129 139.706 209.808 142.865 208.097 145.682C206.614 148.125 204.9 148.986 204.718 149.075C204.495 149.183 204.984 148.915 206.46 148.734C207.869 148.561 209.806 148.514 212.197 148.759L216.166 110.019C206.813 109.061 196.461 109.808 187.755 114.02C183.269 116.191 178.274 119.765 174.808 125.474C171.116 131.556 170.111 138.533 171.501 145.226L209.63 137.306ZM209.463 135.141C208.891 134.767 208.716 134.545 208.743 134.578C208.758 134.597 208.816 134.671 208.889 134.801C208.962 134.933 209.033 135.092 209.089 135.264L172.043 147.268C175.081 156.644 181.4 163.319 188.146 167.731L209.463 135.141ZM189.852 194.134C195.443 183.417 202.688 173.912 211.628 166.088L185.981 136.784C173.08 148.074 162.94 161.525 155.325 176.123L189.852 194.134ZM173.832 203.821C173.805 204.214 173.674 204.744 173.411 205.248C173.167 205.715 172.955 205.886 173.03 205.819C173.124 205.735 173.481 205.45 174.232 205.086C174.978 204.724 175.989 204.346 177.265 204.03L167.912 166.227C154.947 169.435 136.486 179.365 134.982 201.137L173.832 203.821ZM169.898 191.419C169.483 191.256 169.66 191.259 170.132 191.65C170.652 192.082 171.413 192.896 172 194.135L136.814 210.823C141.102 219.862 148.785 224.964 155.657 227.664L169.898 191.419ZM177.314 276.207C174.43 255.8 175.703 234.466 181.447 215.071L144.108 204.013C136.656 229.175 135.152 256.169 138.754 281.657L177.314 276.207ZM157.186 298.413C157.346 298.404 157.54 298.398 157.77 298.401L158.298 259.462C157.179 259.447 156.044 259.47 154.899 259.537L157.186 298.413ZM98.4563 321.303C98.1962 319.225 98.5776 318.713 98.6657 318.56C98.9407 318.084 100.147 316.366 104.431 313.916C113.606 308.669 130.588 303.509 159.599 298.119L152.486 259.831C123.427 265.23 100.558 271.269 85.0979 280.111C77.0641 284.705 69.7568 290.754 64.9474 299.077C59.951 307.723 58.6768 317.043 59.815 326.139L98.4563 321.303ZM174.111 317.34C157.37 320.82 138.168 323.023 122.075 321.938C104.432 320.748 97.4001 316.14 95.5392 313.23L62.7321 334.212C75.4317 354.069 100.136 359.489 119.455 360.792C140.325 362.2 163.312 359.36 182.038 355.467L174.111 317.34ZM210.626 345.434C204.703 340.216 199.319 333.732 194.632 326.158L161.517 346.649C167.973 357.082 175.755 366.612 184.881 374.653L210.626 345.434ZM215.57 367.899L215.576 367.886L179.931 352.202L179.925 352.215L215.57 367.899ZM199.429 385.857C210.465 380.372 214.241 370.919 215.569 367.901L179.926 352.214C179.573 353.015 179.45 353.283 179.349 353.481C179.278 353.621 179.352 353.454 179.575 353.145C179.815 352.813 180.182 352.379 180.685 351.942C181.193 351.501 181.69 351.186 182.095 350.985L199.429 385.857ZM204.535 380.45C203.569 382.154 202.531 383.319 201.875 383.981C201.202 384.66 200.643 385.096 200.37 385.299C199.882 385.663 199.694 385.734 200.221 385.44L181.303 351.402C180.222 352.003 178.665 352.908 177.105 354.07C175.801 355.041 172.86 357.362 170.661 361.238L204.535 380.45ZM185.065 374.04C185.065 380.012 182.383 384.137 180.928 385.98C179.402 387.912 177.861 389.087 177.126 389.612C175.626 390.683 174.384 391.214 174.172 391.306C173.524 391.588 173.314 391.612 173.918 391.441C174.921 391.155 176.686 390.747 178.752 390.388C180.841 390.025 182.633 389.818 183.754 389.765C184.344 389.737 184.291 389.775 183.791 389.725C183.527 389.698 182.845 389.618 181.908 389.373C181.079 389.156 179.233 388.604 177.121 387.256L198.075 354.432C193.638 351.599 189.124 351.123 187.711 350.98C185.578 350.764 183.535 350.789 181.915 350.865C178.615 351.021 175.102 351.496 172.083 352.021C169.041 352.549 165.893 353.236 163.262 353.984C162.048 354.33 160.34 354.856 158.648 355.592C157.914 355.91 156.264 356.656 154.486 357.926C153.612 358.551 151.965 359.821 150.367 361.843C148.841 363.776 146.122 367.987 146.122 374.04H185.065ZM184.342 379.295L184.356 379.247L146.831 368.834L146.818 368.882L184.342 379.295ZM46.0453 492.146C62.241 443.411 107.769 401.256 168.096 393.397L163.065 354.78C87.3495 364.644 29.8098 417.516 9.08979 479.865L46.0453 492.146ZM81.0772 626.998C73.0485 623.986 65.3602 617.305 58.5503 606.561C51.7526 595.837 46.5248 582.101 43.1716 567.197C39.8324 552.355 38.5239 537.114 39.0648 523.821C39.6233 510.095 42.0783 500.251 44.8049 495.061L10.3302 476.95C3.76351 489.449 0.819839 505.881 0.154245 522.238C-0.528967 539.027 1.11286 557.674 5.17862 575.745C9.23035 593.754 15.8621 611.954 25.6584 627.41C35.4425 642.846 49.0827 656.587 67.3969 663.459L81.0772 626.998ZM175.635 634.739C147.37 636.526 116.656 633.646 77.9562 626.116L70.5179 664.342C111.078 672.234 145.343 675.674 178.091 673.605L175.635 634.739ZM186.487 749.494C191.897 712.974 195.565 684.433 196.328 654.671L157.398 653.673C156.7 680.897 153.349 707.437 147.964 743.788L186.487 749.494ZM381.977 737.965C340.326 751.907 309.347 757.568 279.001 756.112C248.526 754.649 217.094 745.938 174.574 728.61L159.877 764.673C204.124 782.704 240.276 793.241 277.134 795.01C314.12 796.785 350.224 789.66 394.338 774.894L381.977 737.965ZM368.558 635.133C367.351 672.905 367.011 712.375 368.7 757.164L407.615 755.695C405.967 712.011 406.296 673.471 407.481 636.377L368.558 635.133ZM419.31 624.093C411.056 621.985 402.378 619.618 393.39 617.039L382.649 654.471C391.946 657.139 400.997 659.609 409.675 661.825L419.31 624.093ZM451.15 631.29C441.87 629.684 431.234 627.287 419.534 624.151L409.451 661.766C422.003 665.131 433.814 667.811 444.508 669.663L451.15 631.29ZM485.53 634.234C485.663 634.181 483.211 634.937 476.193 634.609C469.802 634.311 461.49 633.228 451.419 631.339L444.24 669.614C455.245 671.678 465.5 673.096 474.379 673.51C482.63 673.895 492.151 673.574 500.172 670.32L485.53 634.234ZM498.445 469.282C517.784 501.721 523.999 538.887 519.84 570.563C515.599 602.854 501.297 625.804 483.764 635.056L501.939 669.498C534.75 652.183 553.281 615.005 558.451 575.633C563.702 535.646 555.904 489.613 531.895 449.34L498.445 469.282ZM515.943 478.767L516.022 478.764L514.319 439.858L514.24 439.862L515.943 478.767ZM399.884 398.798C413.799 396.406 431.119 401.05 449.503 413.805C467.674 426.413 485.073 445.796 498.144 468.901L532.039 449.727C516.466 422.197 495.286 398.173 471.703 381.81C448.332 365.594 420.721 355.703 393.287 360.418L399.884 398.798ZM383.173 393.728L383.435 393.968L409.736 365.248L409.474 365.008L383.173 393.728ZM376.846 378.763L376.853 379.53L415.794 379.206L415.788 378.439L376.846 378.763ZM376.843 378.386L376.846 378.769L415.788 378.434L415.784 378.051L376.843 378.386ZM381.325 386.437C381.833 386.236 381.612 386.411 380.826 386.416C380.437 386.418 379.983 386.378 379.497 386.271C379.012 386.164 378.584 386.01 378.234 385.846C377.533 385.518 377.378 385.261 377.702 385.594C378.048 385.95 378.723 386.755 379.647 388.285L412.981 368.152C409.058 361.655 403.337 354.604 394.763 350.585C385.363 346.179 375.611 346.812 366.975 350.235L381.325 386.437ZM351.988 370.572C353.946 373.578 355.988 376.497 358.45 379.853L389.85 356.819C387.696 353.883 386.087 351.572 384.62 349.319L351.988 370.572ZM347.133 362.364C348.741 364.856 349.887 366.659 350.904 368.685L385.704 351.206C383.619 347.055 381.378 343.611 379.852 341.246L347.133 362.364ZM347.165 362.415L347.166 362.417L379.818 341.193L379.816 341.192L347.165 362.415ZM345.254 359.412C345.901 360.457 346.568 361.489 347.131 362.362L379.85 341.244C379.249 340.311 378.785 339.592 378.364 338.913L345.254 359.412ZM344.718 358.499L344.899 358.816L378.719 339.509L378.538 339.191L344.718 358.499ZM363.421 368.234L363.435 368.233L359.821 329.458L359.808 329.459L363.421 368.234ZM339.817 326.795C338 333.242 337.787 339.521 339.22 345.649C340.562 351.384 343.121 355.93 345.007 359.012L378.222 338.681C377.645 337.74 377.353 337.189 377.195 336.85C377.054 336.547 377.087 336.553 377.14 336.782C377.201 337.041 377.231 337.339 377.223 337.591C377.215 337.821 377.183 337.773 377.299 337.36L339.817 326.795Z" fill="white" mask="url(#path-1-outside-1_108_8015)"/>
<path d="M181.365 367.756L190.881 359.366L356.153 343.984C360.723 351.995 363.48 356.399 368.737 363.561C380.737 365.401 384.521 368.711 391.11 374.747C480.602 359.366 603.653 546.739 486.195 644.62C468.017 657.205 385.307 636.052 301.619 599.874C218.895 640.216 115.644 657.205 75.0933 636.23C-49.3552 548.137 34.5438 369.154 181.365 367.756Z" fill="#4BBCAD"/>
<path d="M182.49 366.365C181.092 363.543 160.117 367.814 160.117 369.179C139.143 444.688 137.979 530.636 167.343 573.984C175.065 639.407 171.468 676.172 161.749 741.78C248.516 777.14 296.916 780.277 382.682 751.569C377.407 611.751 392.147 524.197 390.838 373.357C384.868 363.474 377.872 359.732 368.465 363.559C370.082 421.141 369.639 460.195 360.309 519.446C286.737 543.12 244.32 542.336 167.343 525.043C160.619 460.883 165.644 431.42 182.49 366.365Z" fill="white"/>
<path d="M149.863 514.52C109.009 484.942 51.0497 454.437 25.8805 475.424C2.10905 503.378 12.8295 619.382 68.7617 640.368C170.14 660.095 224.789 650.036 319.058 601.215C251.139 553.492 224.182 526.995 140.542 538.348L149.863 514.52Z" fill="#F8E1B9"/>
<path d="M430.045 482.414C461.796 461.779 476.015 455.92 509.695 454.448C553.042 527.16 537.72 620.847 487.376 647.414C442.576 665.592 134.364 546.736 139.144 536.948C139.144 467.033 332.164 504.787 430.045 514.575C425.484 502.595 426.178 495.441 430.045 482.414Z" fill="#FFEDCE"/>
<path d="M358.677 506.193C387.985 491.34 422.999 492.204 434.185 515.981C431.388 527.163 391.842 523.898 358.677 506.193Z" fill="#F8E1B9"/>
<path d="M221.642 128.657C313.931 102.081 467.745 219.535 353.083 327.217C349.793 338.889 357.278 343.984 362.872 355.17C328.068 376.761 298.305 383.989 249.608 394.335C222.716 395.243 208.063 390.216 182.49 367.755C181.092 366.357 182.429 365.149 185.287 363.56C189.516 361.458 190.983 358.126 192.272 355.196L192.278 355.183C133.55 303.437 132.151 167.801 221.642 128.657Z" fill="#FFEDCE"/>
<path d="M185.091 136.403C192.524 159.346 246.341 157.327 254.157 136.951C238.375 125.966 222.177 106.33 210.833 98.4861C186.991 82.0013 178.665 95.6049 208.706 124.527C194.124 123.033 183.307 127.817 185.091 136.403Z" fill="#FFEDCE"/>
<path d="M210.694 318.86C213.491 303.504 174.338 272.716 150.567 274.114C92.4976 284.903 70.8637 296.512 73.6603 318.86C96.0331 353.843 199.508 328.673 210.694 318.86Z" fill="#F7B731"/>
<ellipse cx="171.926" cy="234.915" rx="6.21469" ry="22.3729" fill="#292929"/>
<ellipse cx="251.007" cy="240.507" rx="6.99153" ry="25.1695" fill="#292929"/>
<path d="M248.927 210.353C223.757 208.933 225.155 183.764 244.732 179.59C267.104 176.774 293.672 183.763 295.071 200.565C289.477 210.353 269.901 213.127 248.927 210.353Z" fill="#FFD387"/>
<path d="M182.002 206.07C200.04 204.844 199.038 183.111 185.008 179.507C168.974 177.076 149.934 183.11 148.932 197.618C152.94 206.07 166.97 208.466 182.002 206.07Z" fill="#FFD387"/>
<path d="M390.838 267.076C356.258 200.33 320.731 169.216 254.978 124.516C257.313 116.236 260.026 112.076 267.721 106.074C229.599 61.8163 248.864 39.6111 302.722 57.1039C379.227 53.1379 412.136 69.2727 437.382 159.581C495.606 205.429 467.74 272.461 416.169 240.765C407.735 255.586 406.644 264.151 390.838 267.076Z" fill="white"/>
<path d="M253.803 125.848C254.25 115.109 259.038 110.232 267.786 106.272C336.784 146.512 368.782 176.341 416.007 240.509C412.145 257.528 407.022 263.837 390.837 267.077C351.029 201.402 320.916 170.864 253.803 125.848Z" fill="#FFFBF2"/>
</svg>
