<svg width="954" height="969" viewBox="0 0 954 969" fill="none" xmlns="http://www.w3.org/2000/svg">
<mask id="path-1-outside-1_179_449" maskUnits="userSpaceOnUse" x="-0.375" y="14.4785" width="954" height="954" fill="black">
<rect fill="white" x="-0.375" y="14.4785" width="954" height="954"/>
<path fill-rule="evenodd" clip-rule="evenodd" d="M926.145 491.739C926.145 739.858 725.004 940.999 476.885 940.999C228.766 940.999 27.625 739.858 27.625 491.739C27.625 243.619 228.766 42.4785 476.885 42.4785C725.004 42.4785 926.145 243.619 926.145 491.739Z"/>
</mask>
<path fill-rule="evenodd" clip-rule="evenodd" d="M926.145 491.739C926.145 739.858 725.004 940.999 476.885 940.999C228.766 940.999 27.625 739.858 27.625 491.739C27.625 243.619 228.766 42.4785 476.885 42.4785C725.004 42.4785 926.145 243.619 926.145 491.739Z" fill="#CD9434"/>
<path d="M476.885 968.186C740.02 968.186 953.333 754.873 953.333 491.739H898.957C898.957 724.843 709.989 913.811 476.885 913.811V968.186ZM0.437374 491.739C0.437374 754.873 213.75 968.186 476.885 968.186V913.811C243.781 913.811 54.8126 724.843 54.8126 491.739H0.437374ZM476.885 15.2909C213.75 15.2909 0.437374 228.604 0.437374 491.739H54.8126C54.8126 258.634 243.781 69.6661 476.885 69.6661V15.2909ZM953.333 491.739C953.333 228.604 740.02 15.2909 476.885 15.2909V69.6661C709.989 69.6661 898.957 258.634 898.957 491.739H953.333Z" fill="white" mask="url(#path-1-outside-1_179_449)"/>
<circle cx="466.26" cy="482.338" r="449.26" fill="#FFFEFF"/>
<circle cx="466.259" cy="482.341" r="411.822" fill="#F6F6F6"/>
<path d="M220.287 307.868C244.801 266.714 291.64 272.618 316.329 231.568C328.634 211.108 320.315 190.289 338.205 174.477C374.308 142.567 400.708 220.419 447.585 231.568C514.593 247.505 566.05 170.363 622.594 209.692C662.68 237.575 645.085 286.224 679.151 321.207C726.963 370.306 819.317 319.841 842.955 384.167C870.111 458.066 737.381 464.143 714.367 539.434C696.885 596.624 737.651 637.484 714.367 692.567C687.966 755.019 650.678 811.855 583.11 806.216C541.48 802.742 529.864 767.407 491.337 751.259C408.398 716.495 337.211 780.675 261.905 731.517C198.558 690.165 137.334 643.359 155.192 569.847C165.05 529.268 203.605 523.294 220.287 485.011C247.922 421.592 184.885 367.302 220.287 307.868Z" fill="#D24E49"/>
<path d="M607.625 167.668C608.05 164.057 609.712 161.858 614 163.342C627.748 168.101 633.505 185.458 634.717 198.402C638.874 242.798 612.339 281.811 570.516 293.68C537.545 303.036 503.324 301.997 470.571 311.779C451.082 317.6 428.558 324.99 413.2 339.099C395.196 355.639 386.091 387.98 380.53 410.699C373.8 438.198 379.769 460.994 396.125 483.893C409.426 502.514 441.927 509.342 463.286 510.985C494.06 513.352 533.537 499.906 561.637 515.424C585.012 528.333 601.063 555 609.219 579.967C619.404 611.146 618.045 655.321 605.576 685.603C595.052 711.161 580.644 742.626 560.043 761.643C550.474 770.476 538.342 777.142 526.463 782.246C492.625 796.786 452.827 813.397 415.477 814.233C375.688 815.124 348.598 783.766 327.485 754.016C308.927 727.866 320.865 685.559 346.039 667.048C360.489 656.423 384.407 653.615 401.476 649.518C419.698 645.145 438.041 644.134 456.456 641.208C478.519 637.703 500.421 634.544 522.706 632.785C549.184 630.695 567.492 625.778 591.461 613.32C632.077 592.208 673.789 564.929 691.633 520.319C699.781 499.949 703.147 475.677 691.405 456.345C683.574 443.452 671.67 429.045 656.573 424.473C635.746 418.165 605.487 431.4 587.021 440.068C560.445 452.542 545.443 481.277 519.064 495.504C474.203 519.698 420.735 537.563 370.855 546.956C327.795 555.064 293.078 546.004 252.014 533.751C212.569 521.981 178.129 504.972 162.087 464.086C150.262 433.948 146.287 397.918 159.583 367.67C173.236 336.61 206.484 312.672 236.533 299.257C267.765 285.315 313.179 275.241 334.656 309.502C352.25 337.568 339.301 363.162 325.094 389.412C317.434 403.568 308.749 417.108 300.962 431.189C284.768 460.47 273.384 491.718 263.17 523.506C251.449 559.982 242.185 592.995 239.834 631.077C238.276 656.327 248.462 680.433 260.21 702.564C295.269 768.606 381.26 763.361 443.479 754.13C466.97 750.645 481.739 745.493 496.07 726.81C502.972 717.811 513.615 703.557 513.031 691.295C512.401 678.08 507.488 665.116 502.786 652.933C494.552 631.601 488.929 609.998 481.727 588.39C478.417 578.46 473.216 569.539 470.116 559.477C465.188 543.481 462.545 526.424 456.684 510.757C452.533 499.661 443.727 491.166 438.016 480.933C426.717 460.689 420.911 437.272 415.022 415.024C404.606 375.676 397.299 335.891 411.834 296.525C421.832 269.449 451.734 230.786 483.207 229.251C500.457 228.409 523.523 232.949 539.44 236.536C553.692 239.748 577.144 244.617 589.981 254.863C601.771 264.273 593.531 286.605 592.485 298.916C589.828 330.214 592.869 363.403 605.804 392.372C613.194 408.922 622.942 425.863 634.717 439.726C637.897 443.469 647.489 453.426 652.93 454.524C676.149 459.212 702.177 430.093 713.944 415.821C729.092 397.449 758.7 354.128 738.076 328.968C730.308 319.491 708.504 319.159 698.235 323.617C661.184 339.706 645.417 380.531 645.417 418.553C645.417 453.312 656.486 480.156 668.184 511.554C672.462 523.039 675.842 534.895 678.998 546.728C685.875 572.518 676.803 602.524 670.688 627.549C661.906 663.49 645.692 696.888 621.626 725.103C603.424 746.444 581.541 757.229 554.579 763.805C536.692 768.168 519.397 769.002 500.965 768.7C474.834 768.272 446.293 768.948 420.713 762.553C387.784 754.321 348.071 741.905 321.11 720.663C284.427 691.761 240.095 664.786 227.882 616.621C223.71 600.168 219.761 579.499 227.882 563.575C235.927 547.8 250.443 532.58 266.585 525.1C281.818 518.041 298.122 517.353 314.394 515.083C344.732 510.85 374.196 498.269 401.703 485.259C451.518 461.698 496.916 425.633 542.286 394.876C570.324 375.868 608.458 354.946 627.887 326.008C641.543 305.669 621.421 289.43 607.284 276.15C583.01 253.348 551.394 245.641 520.43 235.056C509.643 231.369 495.561 227.345 484.004 230.048C463.433 234.859 454.835 265.006 450.992 282.297C441.349 325.693 464.941 368.049 467.839 411.04C469.793 440.016 467.939 467.674 454.863 493.91C433.531 536.711 411.604 573.915 373.928 603.302C348.734 622.954 326.904 638.864 296.636 650.998C269.675 661.806 232.146 660.256 208.758 641.322C169.961 609.915 133.515 558.796 146.606 506.432C158.073 460.565 181.581 413.545 209.896 375.639C228.701 350.465 249.917 327.082 271.593 304.38C312.053 262.007 364.361 234.335 412.973 202.5" stroke="#FFE676" stroke-width="17.074" stroke-linecap="round"/>
<path d="M809.662 321.499C812.447 319.162 815.165 318.702 817.267 322.722C824.01 335.614 816.298 352.195 808.303 362.447C780.885 397.611 734.818 407.808 696.239 387.766C665.825 371.966 641.631 347.743 611.084 332.402C592.908 323.273 571.446 313.206 550.593 312.943C526.146 312.635 497.342 329.93 477.715 342.653C453.959 358.052 442.671 378.736 438.872 406.62C435.783 429.294 454.756 456.551 469.175 472.394C489.95 495.221 527.903 512.506 537.713 543.07C545.874 568.495 539.269 598.911 528.084 622.676C514.116 652.354 482.834 683.574 452.992 697.063C427.806 708.448 395.742 721.469 367.707 721.182C354.685 721.049 341.284 717.581 329.138 713.15C294.538 700.528 254.181 685.326 226.423 660.322C196.853 633.685 198.64 592.284 203.674 556.153C208.1 524.394 245.802 501.788 276.818 505.579C294.621 507.755 313.955 522.113 329.187 530.836C345.449 540.149 359.493 551.992 374.902 562.491C393.364 575.07 411.471 587.79 428.898 601.792C449.603 618.428 466.299 627.404 492.288 634.773C536.327 647.261 585.392 656.01 628.972 635.778C648.871 626.54 667.965 611.182 672.676 589.06C675.819 574.306 677.034 555.657 669.181 541.976C658.349 523.103 627.249 511.985 607.866 505.631C579.968 496.485 549.344 507.111 520.388 499.376C471.146 486.222 419.979 462.558 377.233 435.189C340.333 411.562 321.278 381.16 299.793 344.083C279.155 308.466 265.753 272.469 282.115 231.71C294.175 201.666 315.99 172.716 346.41 159.819C377.647 146.574 418.261 151.952 449.331 162.795C481.624 174.065 521.586 197.876 513.723 237.54C507.281 270.032 480.306 279.78 451.964 289.144C436.681 294.193 421.075 298.093 405.752 303.001C373.885 313.208 344.171 328.144 314.938 344.276C281.394 362.787 252.012 380.462 224.186 406.567C205.736 423.876 196.619 448.406 189.994 472.57C170.222 544.679 236.405 599.831 288.021 635.78C307.507 649.352 321.79 655.731 345.032 651.96C356.227 650.144 373.748 647.067 381.732 637.742C390.336 627.692 395.65 614.887 400.582 602.796C409.218 581.623 419.94 562.044 429.515 541.378C433.916 531.88 436.248 521.821 440.892 512.372C448.275 497.35 458.048 483.123 464.526 467.701C469.114 456.779 468.53 444.556 471.391 433.192C477.049 410.71 488.882 389.685 499.852 369.453C519.255 333.672 541.22 299.704 578.794 281.021C604.638 268.169 652.916 260.535 676.875 281C690.007 292.217 703.682 311.339 712.807 324.865C720.978 336.976 734.708 356.603 737.025 372.863C739.153 387.797 717.841 398.4 708.638 406.643C685.241 427.601 664.695 453.842 654.243 483.797C648.272 500.91 643.75 519.925 642.814 538.09C642.561 542.995 642.715 556.82 645.922 561.35C659.607 580.684 698.52 577.34 716.871 575.022C740.495 572.037 791.752 560.811 793.995 528.356C794.841 516.131 779.198 500.937 768.667 497.141C730.667 483.442 691.195 502.343 665.121 530.017C641.285 555.316 630.933 582.444 617.915 613.318C613.154 624.611 607.483 635.558 601.665 646.335C588.985 669.822 561.805 685.439 540.194 699.46C509.155 719.597 474.451 732.786 437.587 736.818C409.704 739.868 386.381 732.713 362.247 719.01C346.236 709.918 333.077 698.666 319.868 685.805C301.144 667.574 279.907 648.494 265.674 626.298C247.353 597.726 226.963 561.455 221.907 527.506C215.027 481.314 201.26 431.28 225.4 387.849C233.646 373.013 244.946 355.261 261.777 349.241C278.45 343.276 299.452 342.153 316.33 347.778C332.258 353.086 344.596 363.767 357.997 373.273C382.981 390.996 413.053 402.045 441.995 411.439C494.409 428.451 552.182 433.335 606.296 442.061C639.738 447.454 681.84 458.376 715.826 450.639C739.712 445.2 736.203 419.582 735.021 400.221C732.991 366.98 715.264 339.689 699.986 310.752C694.664 300.671 687.174 288.085 676.909 282.127C658.638 271.522 631.706 287.568 617.052 297.517C580.274 322.489 568.399 369.496 541.027 402.774C522.578 425.203 502.262 444.061 474.753 454.19C429.876 470.714 388.404 482.755 340.83 478.308C309.017 475.334 282.218 471.944 251.867 460.019C224.832 449.396 198.581 422.532 194.542 392.713C187.842 343.249 196.371 281.049 241.808 251.914C281.608 226.394 330.962 208.293 377.565 200.121C408.514 194.694 439.991 192.224 471.336 190.566C529.841 187.471 586.889 203.201 644.101 213.367" stroke="#FFE676" stroke-width="17.074" stroke-linecap="round"/>
<path d="M147.473 649.62C143.866 650.083 141.686 651.768 143.215 656.04C148.121 669.737 165.539 675.308 178.495 676.381C222.933 680.064 261.66 653.112 273.081 611.165C282.084 578.096 280.679 543.888 290.11 511.033C295.722 491.482 302.871 468.88 316.814 453.372C333.162 435.192 365.403 425.742 388.061 419.939C415.486 412.915 438.345 418.639 461.418 434.75C480.18 447.851 487.355 480.277 489.226 501.617C491.923 532.364 478.9 571.982 494.717 599.915C507.875 623.151 534.712 638.915 559.765 646.804C591.052 656.655 635.21 654.824 665.356 642.032C690.8 631.235 722.11 616.491 740.905 595.688C749.635 586.025 756.171 573.822 761.148 561.889C775.325 527.897 791.509 487.924 791.946 450.568C792.411 410.772 760.765 384.018 730.791 363.224C704.445 344.948 662.267 357.338 644.027 382.708C633.557 397.271 631.004 421.218 627.091 438.329C622.913 456.597 622.098 474.95 619.37 493.395C616.1 515.494 613.176 537.428 611.655 559.732C609.848 586.23 605.128 604.589 592.926 628.69C572.251 669.53 545.419 711.531 501.002 729.851C480.721 738.216 456.486 741.842 437.03 730.308C424.053 722.615 409.52 710.866 404.786 695.818C398.256 675.06 411.167 644.661 419.636 626.104C431.826 599.395 460.399 584.087 474.343 557.557C498.056 512.441 515.348 458.784 524.207 408.806C531.854 365.662 522.423 331.044 509.732 290.114C497.541 250.797 480.164 216.541 439.109 200.937C408.847 189.435 372.776 185.846 342.672 199.464C311.759 213.448 288.179 246.95 275.086 277.142C261.478 308.521 251.891 354.04 286.38 375.149C314.632 392.442 340.086 379.22 366.183 364.733C380.256 356.922 393.702 348.093 407.699 340.156C436.806 323.65 467.93 311.932 499.607 301.378C535.955 289.269 568.868 279.652 606.922 276.894C632.154 275.065 656.368 284.993 678.623 296.504C745.036 330.855 740.711 416.897 732.146 479.211C728.912 502.737 723.919 517.561 705.39 532.091C696.465 539.089 682.325 549.883 670.058 549.431C656.838 548.943 643.822 544.168 631.589 539.597C610.17 531.592 588.508 526.2 566.825 519.229C556.859 516.025 547.884 510.92 537.789 507.928C521.741 503.171 504.657 500.711 488.928 495.018C477.789 490.986 469.2 482.271 458.906 476.669C438.543 465.588 415.065 460.032 392.755 454.382C353.298 444.387 313.436 437.507 274.229 452.462C247.261 462.748 208.92 493.062 207.722 524.55C207.065 541.808 211.851 564.824 215.608 580.702C218.972 594.918 224.092 618.318 234.474 631.044C244.01 642.733 266.252 634.254 278.551 633.077C309.819 630.085 343.039 632.771 372.145 645.395C388.773 652.608 405.817 662.174 419.805 673.8C423.582 676.94 433.641 686.425 434.797 691.854C439.733 715.021 410.894 741.36 396.749 753.278C378.54 768.622 335.538 798.691 310.158 778.338C300.599 770.672 300.034 748.872 304.383 738.557C320.074 701.335 360.728 685.133 398.748 684.726C433.505 684.355 460.466 695.136 491.987 706.497C503.517 710.652 515.408 713.905 527.275 716.934C553.137 723.535 583.044 714.142 608.002 707.761C643.847 698.595 677.07 682.024 705.025 657.658C726.171 639.229 736.722 617.232 743.009 590.201C747.18 572.268 747.829 554.966 747.33 536.537C746.622 510.413 746.993 481.866 740.325 456.356C731.741 423.517 718.901 383.939 697.372 357.207C668.08 320.835 640.632 276.794 592.339 265.097C575.843 261.101 555.132 257.373 539.296 265.664C523.608 273.877 508.544 288.555 501.237 304.776C494.341 320.084 493.828 336.394 491.732 352.69C487.823 383.072 475.558 412.669 462.843 440.313C439.816 490.377 404.24 536.158 373.969 581.854C355.262 610.094 334.749 648.449 306.02 668.187C285.829 682.06 269.375 662.112 255.945 648.118C232.884 624.09 224.84 592.558 213.925 561.709C210.122 550.962 205.948 536.924 208.527 525.338C213.117 504.717 243.172 495.797 260.42 491.77C303.711 481.663 346.317 504.801 389.336 507.239C418.331 508.883 445.968 506.733 472.063 493.377C514.633 471.589 551.601 449.265 580.583 411.277C599.964 385.874 615.64 363.876 627.449 333.48C637.969 306.404 636.017 268.894 616.834 245.71C585.014 207.251 533.508 171.353 481.287 185.004C435.545 196.96 388.78 220.97 351.178 249.69C326.207 268.762 303.052 290.227 280.583 312.145C238.646 353.055 211.534 405.656 180.222 454.606" stroke="#FFE676" stroke-width="17.074" stroke-linecap="round"/>
<path d="M617.669 531.87C609.543 536.274 604.081 537.887 597.702 544.576C592.749 549.769 591.121 553.685 587.719 560.004C582.664 569.392 579.811 574.958 577.736 585.416C575.459 596.888 575.852 603.822 577.736 615.366C580.121 629.982 582.986 638.539 591.349 650.761C597.154 659.243 601.34 663.571 609.5 669.82C618.688 676.855 624.826 679.821 635.82 683.433C648.392 687.564 656.167 688.071 669.4 687.971C681.93 687.876 689.187 687.116 701.165 683.433C712.831 679.846 720.388 678.161 729.299 669.82C739.713 660.071 740.612 650.499 745.635 637.147C749.784 626.12 753.622 619.885 753.803 608.105C753.995 595.641 749.667 589.043 745.635 577.248C742.038 566.722 741.473 559.787 734.745 550.929C727.069 540.823 719.451 538.153 708.425 531.87C698.639 526.293 693.053 522.725 682.106 520.071C667.983 516.648 659.052 516.789 644.896 520.071C633.607 522.688 627.856 526.347 617.669 531.87Z" fill="#D99C71"/>
<path fill-rule="evenodd" clip-rule="evenodd" d="M577.736 585.416C578.19 583.127 578.681 581.073 579.225 579.162C580.585 586.911 583.482 593.559 591.488 596.743C597.746 599.231 601.697 599.956 608.431 599.953C634.446 599.94 617.812 569.618 601.769 540.852C605.102 538.222 608.395 536.579 612.217 534.673L612.217 534.673L612.217 534.673C613.913 533.827 615.714 532.929 617.669 531.87C618.922 531.19 620.107 530.539 621.245 529.915C629.355 525.463 634.995 522.367 644.896 520.071C659.052 516.789 667.983 516.648 682.106 520.071C686.536 521.145 690.088 522.369 693.395 523.814C690.977 529.856 689.282 536.598 687.844 543.687C686.836 548.654 687.447 552.748 688.049 556.78C688.709 561.207 689.359 565.56 687.844 570.914C684.561 582.511 673.245 585.664 662.076 588.776C650.643 591.961 639.365 595.103 637.02 607.217C635.74 613.828 635.763 617.845 637.02 624.46C641.928 650.298 669.156 627.546 694.675 606.222C703.168 599.125 711.472 592.187 718.701 587.25C725.483 582.619 733.149 578.872 740.578 575.241L740.579 575.241C741.857 574.616 743.127 573.995 744.385 573.374C744.765 574.614 745.175 575.902 745.635 577.248C746.664 580.256 747.711 582.926 748.698 585.442L748.698 585.442L748.698 585.443C751.581 592.791 753.946 598.82 753.803 608.105C753.677 616.324 751.77 621.844 749.22 628.175C744.688 622.045 738.427 618.07 728.958 617.726C702.925 616.78 679.461 639.277 682.092 665.193C682.973 673.868 686.254 680.594 691.178 686.064C684.234 687.52 678.083 687.905 669.4 687.971C656.167 688.071 648.392 687.564 635.82 683.433C624.826 679.821 618.688 676.855 609.5 669.82C601.34 663.571 597.154 659.243 591.349 650.761C582.986 638.539 580.121 629.982 577.736 615.366C575.852 603.822 575.459 596.888 577.736 585.416Z" fill="#E6B48E"/>
<circle cx="627.905" cy="552.952" r="4.53783" fill="#C08A56"/>
<circle cx="676.914" cy="547.506" r="2.7227" fill="#C08A56"/>
<circle cx="669.652" cy="650.971" r="2.7227" fill="#C08A56"/>
<circle cx="600.676" cy="614.668" r="2.7227" fill="#C08A56"/>
<circle cx="724.109" cy="641.897" r="2.7227" fill="#C08A56"/>
<circle cx="638.796" cy="658.233" r="4.53783" fill="#C08A56"/>
<circle cx="698.698" cy="603.776" r="4.53783" fill="#C08A56"/>
<path d="M538.263 249.555C531.686 253.12 527.264 254.427 522.101 259.841C518.091 264.044 516.773 267.215 514.019 272.33C509.927 279.929 507.618 284.435 505.938 292.901C504.095 302.188 504.413 307.801 505.938 317.145C507.869 328.977 510.188 335.903 516.958 345.797C521.657 352.664 525.045 356.167 531.651 361.225C539.089 366.92 544.057 369.322 552.957 372.245C563.134 375.589 569.428 376 580.14 375.919C590.283 375.842 596.158 375.227 605.853 372.245C615.297 369.341 621.415 367.978 628.628 361.225C637.058 353.334 637.786 345.585 641.852 334.777C645.21 325.851 648.317 320.804 648.464 311.268C648.62 301.178 645.116 295.837 641.852 286.289C638.94 277.768 638.482 272.154 633.036 264.983C626.823 256.803 620.656 254.641 611.731 249.555C603.808 245.041 599.287 242.152 590.425 240.004C578.993 237.233 571.763 237.348 560.304 240.004C551.165 242.123 546.51 245.085 538.263 249.555Z" fill="#D99C71"/>
<path fill-rule="evenodd" clip-rule="evenodd" d="M505.938 292.901C506.305 291.049 506.703 289.387 507.143 287.84C508.244 294.113 510.589 299.495 517.07 302.072C522.135 304.086 525.333 304.673 530.785 304.671C551.844 304.661 538.379 280.114 525.391 256.828C528.09 254.697 530.756 253.368 533.85 251.825C535.223 251.14 536.681 250.413 538.263 249.555C539.278 249.005 540.238 248.478 541.158 247.973C547.723 244.369 552.289 241.862 560.304 240.004C571.763 237.348 578.993 237.233 590.425 240.004C594.011 240.874 596.887 241.864 599.565 243.035C597.607 247.925 596.235 253.382 595.071 259.12C594.255 263.141 594.75 266.455 595.237 269.719C595.772 273.302 596.298 276.826 595.071 281.16C592.414 290.548 583.253 293.1 574.212 295.619C564.957 298.198 555.828 300.741 553.929 310.547C552.893 315.899 552.912 319.15 553.929 324.506C557.902 345.421 579.944 327.003 600.601 309.742L600.601 309.742C607.476 303.997 614.198 298.38 620.05 294.384C625.54 290.635 631.746 287.602 637.759 284.663L637.761 284.662C638.794 284.157 639.822 283.655 640.839 283.152C641.147 284.156 641.48 285.199 641.852 286.289C642.685 288.724 643.533 290.885 644.331 292.922L644.332 292.922C646.665 298.87 648.58 303.751 648.464 311.268C648.362 317.921 646.818 322.389 644.754 327.515C641.085 322.552 636.016 319.335 628.35 319.056C607.277 318.29 588.284 336.501 590.413 357.48C591.126 364.502 593.782 369.947 597.768 374.375C592.147 375.554 587.168 375.866 580.14 375.919C569.428 376 563.134 375.589 552.957 372.245C544.057 369.322 539.089 366.92 531.651 361.225C525.045 356.167 521.657 352.664 516.958 345.797C510.188 335.903 507.869 328.977 505.938 317.145C504.413 307.801 504.095 302.188 505.938 292.901Z" fill="#E6B48E"/>
<circle cx="546.548" cy="266.623" r="3.67336" fill="#C08A56"/>
<circle cx="586.22" cy="262.214" r="2.20402" fill="#C08A56"/>
<circle cx="580.345" cy="345.968" r="2.20402" fill="#C08A56"/>
<circle cx="524.509" cy="316.579" r="2.20402" fill="#C08A56"/>
<circle cx="624.423" cy="338.62" r="2.20402" fill="#C08A56"/>
<circle cx="555.365" cy="351.845" r="3.67336" fill="#C08A56"/>
<circle cx="603.857" cy="307.763" r="3.67336" fill="#C08A56"/>
<path d="M378.317 344.974C377.158 335.805 377.634 330.129 373.713 321.76C370.669 315.261 367.609 312.324 362.953 306.862C356.036 298.748 351.883 294.072 342.889 288.346C333.022 282.066 326.417 279.918 314.976 277.49C300.489 274.414 291.476 273.982 277.053 277.346C267.044 279.681 261.493 282.014 252.711 287.354C242.824 293.366 237.834 298.012 230.483 306.948C222.076 317.168 218.784 324.23 214.081 336.599C209.627 348.312 207.704 355.351 206.795 367.848C205.909 380.022 204.74 387.676 209.284 399.004C214.594 412.244 223.189 416.552 233.812 426.073C242.585 433.937 247.004 439.774 257.918 444.214C269.464 448.911 277.182 447.269 289.637 447.787C300.751 448.249 307.419 450.237 318.114 447.178C330.315 443.688 335.565 437.556 345.417 429.557C354.162 422.458 359.513 418.546 365.954 409.305C374.264 397.384 377.37 389.009 379.443 374.626C381.096 363.156 379.771 356.471 378.317 344.974Z" fill="#D99C71"/>
<path fill-rule="evenodd" clip-rule="evenodd" d="M342.889 288.346C344.857 289.599 346.594 290.802 348.178 292.002C340.463 290.461 333.216 290.75 327.347 297.058C322.759 301.988 320.652 305.407 318.213 311.684C308.794 335.934 343.084 331.424 375.709 326.9C376.952 330.96 377.289 334.624 377.68 338.877L377.68 338.877L377.68 338.877C377.854 340.765 378.038 342.768 378.317 344.974C378.496 346.388 378.673 347.729 378.842 349.015C380.052 358.187 380.893 364.567 379.443 374.626C377.37 389.009 374.264 397.384 365.954 409.305C363.347 413.045 360.919 415.912 358.372 418.471C353.618 414.027 347.951 410.005 341.866 406.095C337.602 403.355 333.565 402.44 329.589 401.54C325.224 400.551 320.931 399.578 316.491 396.225C306.872 388.962 308.036 377.272 309.185 365.735C310.361 353.925 311.52 342.275 301.081 335.698C295.383 332.109 291.632 330.675 285.01 329.448C259.151 324.656 270.485 358.28 281.108 389.792C284.643 400.281 288.1 410.535 290.08 419.062C291.938 427.061 292.651 435.564 293.341 443.804C293.46 445.22 293.578 446.629 293.701 448.026C292.407 447.93 291.059 447.846 289.637 447.787C286.461 447.655 283.593 447.663 280.89 447.671L280.89 447.671L280.889 447.671C272.996 447.694 266.519 447.713 257.918 444.214C250.304 441.116 245.851 437.339 240.875 432.667C248.23 430.665 254.202 426.27 257.955 417.571C268.274 393.652 255.813 363.629 230.706 356.686C222.303 354.363 214.845 354.982 207.963 357.588C209.123 350.588 210.994 344.716 214.081 336.599C218.784 324.23 222.076 317.168 230.483 306.948C237.834 298.012 242.824 293.366 252.711 287.354C261.493 282.014 267.044 279.681 277.053 277.346C291.476 273.982 300.489 274.414 314.976 277.49C326.417 279.918 333.022 282.066 342.889 288.346Z" fill="#E6B48E"/>
<circle cx="354.958" cy="346.871" r="4.53783" transform="rotate(111.254 354.958 346.871)" fill="#C08A56"/>
<circle cx="342.268" cy="394.519" r="2.7227" transform="rotate(111.254 342.268 394.519)" fill="#C08A56"/>
<circle cx="248.472" cy="350.246" r="2.7227" transform="rotate(111.254 248.472 350.246)" fill="#C08A56"/>
<circle cx="307.311" cy="299.125" r="2.7227" transform="rotate(111.254 307.311 299.125)" fill="#C08A56"/>
<circle cx="237.19" cy="404.287" r="2.7227" transform="rotate(111.254 237.19 404.287)" fill="#C08A56"/>
<circle cx="252.891" cy="318.856" r="4.53783" transform="rotate(111.254 252.891 318.856)" fill="#C08A56"/>
<circle cx="281.931" cy="394.422" r="4.53783" transform="rotate(111.254 281.931 394.422)" fill="#C08A56"/>
<path d="M446.443 617.508C444.98 605.936 445.581 598.773 440.633 588.211C436.79 580.009 432.929 576.303 427.053 569.41C418.323 559.17 413.082 553.268 401.731 546.042C389.279 538.116 380.944 535.406 366.505 532.341C348.222 528.46 336.847 527.914 318.646 532.16C306.013 535.107 299.008 538.05 287.925 544.79C275.447 552.378 269.15 558.24 259.872 569.519C249.262 582.416 245.108 591.329 239.172 606.939C233.551 621.72 231.125 630.603 229.978 646.376C228.86 661.739 227.384 671.399 233.118 685.695C239.821 702.405 250.667 707.84 264.073 719.857C275.145 729.781 280.723 737.148 294.496 742.751C309.068 748.679 318.808 746.606 334.526 747.26C348.552 747.844 356.968 750.352 370.465 746.492C385.863 742.087 392.489 734.348 404.923 724.254C415.959 715.295 422.712 710.357 430.841 698.695C441.328 683.651 445.248 673.081 447.864 654.929C449.95 640.454 448.277 632.017 446.443 617.508Z" fill="#D99C71"/>
<path fill-rule="evenodd" clip-rule="evenodd" d="M401.731 546.042C404.215 547.623 406.406 549.141 408.405 550.654C398.668 548.709 389.523 549.075 382.116 557.035C376.326 563.257 373.666 567.572 370.589 575.494C358.702 606.099 401.977 600.407 443.151 594.697C444.72 599.821 445.146 604.445 445.639 609.813C445.858 612.195 446.091 614.724 446.443 617.508C446.668 619.292 446.892 620.985 447.106 622.608C448.632 634.184 449.693 642.235 447.864 654.929C445.248 673.081 441.328 683.651 430.841 698.695C427.55 703.415 424.486 707.034 421.271 710.263C415.272 704.655 408.119 699.578 400.439 694.643C395.058 691.186 389.963 690.031 384.945 688.894C379.436 687.646 374.019 686.419 368.415 682.187C356.276 673.021 357.745 658.268 359.195 643.708C360.679 628.804 362.143 614.101 348.968 605.801C341.777 601.271 337.042 599.461 328.686 597.913C296.051 591.865 310.355 634.299 323.761 674.069L323.761 674.069C328.223 687.306 332.585 700.247 335.084 711.008C337.429 721.103 338.328 731.835 339.2 742.233C339.35 744.02 339.499 745.798 339.655 747.561C338.022 747.441 336.32 747.335 334.526 747.26C330.517 747.093 326.897 747.104 323.487 747.114L323.487 747.114C313.525 747.143 305.351 747.167 294.496 742.751C284.886 738.842 279.266 734.074 272.986 728.178C282.27 725.651 289.809 720.105 294.546 709.125C307.569 678.939 291.843 641.049 260.157 632.287C249.551 629.354 240.138 630.136 231.452 633.426C232.916 624.592 235.277 617.182 239.172 606.939C245.108 591.329 249.262 582.416 259.872 569.519C269.15 558.24 275.447 552.378 287.925 544.79C299.008 538.05 306.013 535.107 318.646 532.16C336.847 527.914 348.222 528.46 366.505 532.341C380.944 535.406 389.279 538.116 401.731 546.042Z" fill="#E6B48E"/>
<circle cx="416.966" cy="619.902" r="5.72685" transform="rotate(111.254 416.966 619.902)" fill="#C08A56"/>
<circle cx="400.947" cy="680.037" r="3.43611" transform="rotate(111.254 400.947 680.037)" fill="#C08A56"/>
<circle cx="282.579" cy="624.164" r="3.43611" transform="rotate(111.254 282.579 624.164)" fill="#C08A56"/>
<circle cx="356.833" cy="559.642" r="3.43611" transform="rotate(111.254 356.833 559.642)" fill="#C08A56"/>
<circle cx="268.341" cy="692.361" r="3.43611" transform="rotate(111.254 268.341 692.361)" fill="#C08A56"/>
<circle cx="288.157" cy="584.548" r="5.72685" transform="rotate(111.254 288.157 584.548)" fill="#C08A56"/>
<circle cx="324.802" cy="679.914" r="5.72685" transform="rotate(111.254 324.802 679.914)" fill="#C08A56"/>
<path d="M313.924 365.874C316.145 342.178 302.076 325.147 304.297 324.406C310.221 324.406 322.053 337.573 324.291 357.729C325.113 365.134 313.924 368.836 313.924 365.874Z" fill="#778935"/>
<path d="M434.51 362.673C436.731 338.977 422.662 321.946 424.883 321.205C430.807 321.205 442.639 334.372 444.877 354.528C445.699 361.933 434.51 365.635 434.51 362.673Z" fill="#778935"/>
<path d="M567.712 291.754C554.62 296.794 549.317 308.687 548.344 307.708C546.791 304.581 550.64 294.882 560.694 288.417C564.388 286.041 569.276 290.978 567.712 291.754Z" fill="#778935"/>
<path d="M637.079 467.828C623.987 472.868 618.684 484.761 617.711 483.782C616.158 480.655 620.007 470.957 630.061 464.491C633.755 462.115 638.643 467.052 637.079 467.828Z" fill="#778935"/>
<path d="M661.622 602.285C648.53 607.325 643.227 619.218 642.254 618.239C640.701 615.112 644.55 605.414 654.604 598.948C658.298 596.572 663.186 601.509 661.622 602.285Z" fill="#778935"/>
<path d="M501.552 506.244C488.46 511.284 483.157 523.177 482.184 522.198C480.63 519.071 484.48 509.373 494.534 502.907C498.227 500.531 503.116 505.468 501.552 506.244Z" fill="#778935"/>
<path d="M342.406 586.903C319.763 579.574 300.076 589.597 299.837 587.267C301.127 581.485 316.555 572.805 336.714 575.011C344.121 575.821 345.297 587.548 342.406 586.903Z" fill="#778935"/>
<path d="M508.883 581.565C486.24 574.236 466.553 584.259 466.314 581.929C467.604 576.147 483.032 567.467 503.191 569.673C510.597 570.483 511.774 582.21 508.883 581.565Z" fill="#778935"/>
<path d="M561.366 503.644C548.807 497.392 536.455 501.513 536.519 500.134C537.777 496.877 547.529 493.166 559.087 496.214C563.334 497.334 562.995 504.272 561.366 503.644Z" fill="#778935"/>
<path d="M441.506 429.642C428.948 423.39 416.596 427.511 416.66 426.132C417.918 422.875 427.669 419.164 439.228 422.212C443.474 423.332 443.135 430.27 441.506 429.642Z" fill="#778935"/>
<path d="M390.905 485.912C381.017 464.263 360.33 456.513 361.887 454.764C367.022 451.811 383.842 457.326 395.831 473.683C400.235 479.692 392.381 488.48 390.905 485.912Z" fill="#778935"/>
<path d="M460.898 618.83C460.616 616.594 460.416 614.387 460.216 612.174C459.508 604.327 458.793 596.414 454.328 586.884C450.555 578.829 446.497 574.179 441.998 569.024C441.17 568.075 440.327 567.109 439.469 566.102C430.578 555.672 424.649 548.95 412.151 540.995C398.547 532.334 389.141 529.313 373.997 526.098C354.699 522.002 341.99 521.354 322.268 525.954C308.672 529.126 300.804 532.437 288.949 539.646C275.486 547.833 268.462 554.394 258.647 566.326C247.193 580.249 242.625 590.131 236.494 606.255C230.64 621.65 227.961 631.388 226.736 648.232C226.629 649.695 226.516 651.129 226.404 652.54C225.378 665.522 224.504 676.584 230.48 691.484C236.527 706.557 246.236 714.462 255.888 722.319C258.542 724.48 261.193 726.638 263.761 728.94C265.83 730.795 267.779 732.649 269.703 734.48C277.203 741.618 284.33 748.399 296.766 753.458C309.36 758.582 319.713 758.539 330.123 758.497C333.317 758.484 336.517 758.471 339.788 758.607C342.719 758.729 345.588 758.98 348.466 759.232C357.633 760.035 366.892 760.846 378.547 757.512C392.938 753.395 401.231 746.299 410.058 738.746C412.038 737.052 414.045 735.334 416.154 733.623C417.166 732.801 418.151 732.006 419.113 731.231C428.5 723.661 435.647 717.898 443.777 706.235C455.112 689.973 459.503 678.092 462.303 658.659C464.315 644.701 463.096 635.501 461.554 623.861C461.339 622.238 461.118 620.568 460.898 618.83Z" fill="#B27E59" stroke="white" stroke-width="17.2022"/>
<path d="M446.994 615.609C445.527 604.005 446.13 596.823 441.168 586.232C437.316 578.008 433.443 574.292 427.552 567.381C418.799 557.113 413.544 551.195 402.162 543.95C389.676 536.002 381.318 533.284 366.84 530.211C348.507 526.319 337.102 525.772 318.851 530.03C306.184 532.984 299.16 535.936 288.047 542.694C275.535 550.302 269.221 556.18 259.918 567.489C249.28 580.421 245.114 589.359 239.163 605.011C233.526 619.832 231.094 628.74 229.943 644.555C228.822 659.96 227.342 669.645 233.092 683.981C239.813 700.735 250.689 706.186 264.131 718.235C275.233 728.186 280.825 735.573 294.636 741.19C309.247 747.134 319.014 745.056 334.775 745.712C348.839 746.298 357.277 748.813 370.811 744.941C386.25 740.525 392.894 732.765 405.362 722.644C416.428 713.66 423.199 708.709 431.35 697.016C441.865 681.93 445.796 671.332 448.419 653.131C450.511 638.617 448.834 630.157 446.994 615.609Z" fill="#D99C71"/>
<path fill-rule="evenodd" clip-rule="evenodd" d="M402.162 543.95C404.651 545.535 406.848 547.056 408.852 548.573C399.091 546.624 389.922 546.992 382.496 554.972C376.691 561.211 374.024 565.538 370.939 573.481C359.02 604.168 402.409 598.461 443.694 592.736C445.267 597.874 445.694 602.511 446.188 607.893L446.188 607.893L446.188 607.893C446.408 610.282 446.641 612.817 446.994 615.609C447.22 617.397 447.444 619.094 447.659 620.721L447.659 620.722L447.659 620.723C449.189 632.329 450.254 640.402 448.419 653.131C445.796 671.332 441.865 681.93 431.35 697.016C428.051 701.749 424.978 705.377 421.755 708.615C415.739 702.991 408.566 697.901 400.865 692.952C395.47 689.485 390.361 688.328 385.33 687.188C379.806 685.936 374.374 684.706 368.755 680.463C356.583 671.272 358.056 656.479 359.509 641.88C360.997 626.935 362.465 612.192 349.255 603.87C342.045 599.327 337.297 597.512 328.918 595.96C296.195 589.896 310.538 632.445 323.98 672.322C328.453 685.595 332.828 698.571 335.333 709.361C337.684 719.484 338.586 730.244 339.461 740.671L339.461 740.671L339.461 740.672C339.611 742.464 339.76 744.247 339.916 746.014C338.279 745.894 336.573 745.787 334.775 745.712C330.755 745.545 327.126 745.556 323.706 745.566L323.706 745.566L323.705 745.566L323.705 745.566C313.717 745.595 305.521 745.618 294.636 741.19C285 737.271 279.365 732.491 273.069 726.579C282.376 724.045 289.934 718.484 294.683 707.476C307.741 677.208 291.972 639.216 260.2 630.43C249.567 627.489 240.13 628.272 231.421 631.57C232.889 622.713 235.257 615.282 239.163 605.011C245.114 589.359 249.28 580.421 259.918 567.489C269.221 556.18 275.535 550.302 288.047 542.694C299.16 535.936 306.184 532.984 318.851 530.03C337.102 525.772 348.507 526.319 366.84 530.211C381.318 533.284 389.676 536.002 402.162 543.95Z" fill="#E6B48E"/>
<circle cx="417.434" cy="618.012" r="5.74236" transform="rotate(111.254 417.434 618.012)" fill="#C08A56"/>
<circle cx="401.376" cy="678.308" r="3.44541" transform="rotate(111.254 401.376 678.308)" fill="#C08A56"/>
<circle cx="282.684" cy="622.284" r="3.44541" transform="rotate(111.254 282.684 622.284)" fill="#C08A56"/>
<circle cx="357.138" cy="557.589" r="3.44541" transform="rotate(111.254 357.138 557.589)" fill="#C08A56"/>
<circle cx="268.411" cy="690.667" r="3.44541" transform="rotate(111.254 268.411 690.667)" fill="#C08A56"/>
<circle cx="288.278" cy="582.559" r="5.74236" transform="rotate(111.254 288.278 582.559)" fill="#C08A56"/>
<circle cx="325.02" cy="678.184" r="5.74236" transform="rotate(111.254 325.02 678.184)" fill="#C08A56"/>
<path d="M365.503 642.059C368.315 612.073 350.51 590.521 353.322 589.584C360.818 589.584 375.79 606.246 378.622 631.752C379.663 641.122 365.503 645.808 365.503 642.059Z" fill="#778935"/>
<path d="M685.833 499.713C684.022 499.189 682.26 498.611 680.495 498.031C674.233 495.975 667.918 493.902 659.118 494.174C651.681 494.403 646.764 495.979 641.314 497.726C640.311 498.048 639.289 498.375 638.231 498.701C627.274 502.074 620.146 504.401 609.894 511.365C598.734 518.945 593.296 525.169 585.809 535.736C576.268 549.201 571.559 558.749 568.558 575.421C566.489 586.916 566.425 594.057 568.034 605.551C569.862 618.605 572.574 626.175 578.487 637.667C585.386 651.079 591.463 657.862 601.816 667.914C611.701 677.512 618.294 682.796 630.826 689.319C631.915 689.886 632.978 690.448 634.025 691.001C643.657 696.09 651.864 700.428 665.289 700.774C678.871 701.125 688.16 696.286 697.393 691.476C699.933 690.153 702.468 688.832 705.088 687.622C707.198 686.647 709.268 685.765 711.312 684.894C719.28 681.498 726.85 678.271 734.857 670.395C742.966 662.419 746.363 654.453 749.78 646.443C750.828 643.985 751.879 641.523 753.067 639.055C754.132 636.844 755.276 634.724 756.423 632.597C760.077 625.821 763.768 618.978 765.069 608.921C766.675 596.503 763.973 587.782 761.096 578.499C760.451 576.416 759.797 574.306 759.181 572.119C758.885 571.069 758.601 570.049 758.324 569.053C755.62 559.334 753.562 551.935 747.297 541.826C738.562 527.731 730.89 520.421 716.892 511.831C706.837 505.661 699.366 503.548 689.915 500.876C688.597 500.503 687.241 500.12 685.833 499.713Z" fill="#B27E59" stroke="white" stroke-width="14.3903"/>
<path d="M678.753 509.326C669.354 506.608 664.037 503.765 654.258 504.067C646.664 504.301 642.527 506.044 635.266 508.279C624.479 511.6 618.192 513.676 608.855 520.018C598.613 526.975 593.756 532.494 586.598 542.597C577.534 555.388 573.335 563.968 570.557 579.397C568.63 590.106 568.569 596.479 570.078 607.255C571.776 619.386 574.199 626.184 579.803 637.077C586.211 649.533 591.696 655.695 601.746 665.453C611.263 674.693 617.299 679.513 629.066 685.638C640.527 691.603 647.476 695.949 660.393 696.283C675.489 696.672 683.279 690.124 696.989 683.791C708.311 678.561 715.838 676.713 724.729 667.967C734.136 658.713 735.776 650.523 741.503 638.634C746.612 628.025 751.341 622.377 752.851 610.699C754.575 597.376 750.816 589.702 747.173 576.771C743.939 565.294 742.38 558.453 736.099 548.317C727.996 535.242 721.158 528.711 708.047 520.665C697.591 514.249 690.537 512.734 678.753 509.326Z" fill="#D99C71"/>
<path fill-rule="evenodd" clip-rule="evenodd" d="M608.855 520.018C610.898 518.63 612.795 517.447 614.625 516.41C609.892 523.262 607.137 530.427 610.806 538.776C613.674 545.302 616.114 548.784 621.193 553.786C640.815 573.11 650.809 537.89 660.091 504.282C664.559 504.776 668.261 505.985 672.559 507.388L672.559 507.388C674.467 508.011 676.492 508.672 678.753 509.326C680.202 509.745 681.58 510.135 682.901 510.51L682.901 510.51C692.324 513.18 698.877 515.038 708.047 520.665C721.158 528.711 727.996 535.242 736.099 548.317C738.641 552.419 740.41 555.982 741.829 559.53C735.516 562.288 729.23 566.11 722.878 570.385C718.426 573.381 715.845 576.921 713.302 580.408C710.51 584.237 707.765 588.001 702.644 590.911C691.551 597.215 680.677 591.182 669.944 585.228C658.958 579.133 648.121 573.121 637.351 580.51C631.472 584.543 628.505 587.588 624.536 593.51C609.035 616.636 646.471 619.718 681.555 622.607C693.232 623.568 704.649 624.508 713.767 626.158C722.321 627.707 730.886 630.58 739.184 633.363L739.186 633.364C740.612 633.842 742.03 634.318 743.439 634.783C742.804 636.001 742.156 637.277 741.503 638.634C740.042 641.666 738.848 644.457 737.722 647.087L737.722 647.088C734.435 654.77 731.737 661.073 724.729 667.967C718.526 674.069 712.986 676.814 706.359 679.692C707.497 671.702 705.73 664.054 698.848 656.757C679.925 636.698 645.518 636.221 628.241 657.714C622.459 664.908 619.934 672.416 619.581 680.199C613.264 676.137 608.341 671.856 601.746 665.453C591.696 655.695 586.211 649.533 579.803 637.077C574.199 626.184 571.776 619.386 570.078 607.255C568.569 596.479 568.63 590.106 570.557 579.397C573.335 563.968 577.534 555.388 586.598 542.597C593.756 532.494 598.613 526.975 608.855 520.018Z" fill="#E6B48E"/>
<circle cx="670.803" cy="532.826" r="4.8037" transform="rotate(44.5889 670.803 532.826)" fill="#C08A56"/>
<circle cx="711.795" cy="565.142" r="2.88222" transform="rotate(44.5889 711.795 565.142)" fill="#C08A56"/>
<circle cx="629.432" cy="637.748" r="2.88222" transform="rotate(44.5889 629.432 637.748)" fill="#C08A56"/>
<circle cx="604.412" cy="559.121" r="2.88222" transform="rotate(44.5889 604.412 559.121)" fill="#C08A56"/>
<circle cx="677.228" cy="671.371" r="2.88222" transform="rotate(44.5889 677.228 671.371)" fill="#C08A56"/>
<circle cx="600.771" cy="620.289" r="4.8037" transform="rotate(44.5889 600.771 620.289)" fill="#C08A56"/>
<circle cx="686.4" cy="623.75" r="4.8037" transform="rotate(44.5889 686.4 623.75)" fill="#C08A56"/>
<path d="M672.065 580.686C649.964 568.59 627.509 575.125 627.721 572.655C630.205 566.897 647.965 560.917 668.494 567.193C676.037 569.499 674.944 581.928 672.065 580.686Z" fill="#778935"/>
<path d="M498.764 303.513L504.37 303.805L498.764 303.513C498.298 312.447 498.093 318.294 500.447 327.674C503.011 337.884 506.114 343.537 511.85 351.857C519.16 362.459 524.895 368.468 536.308 375.137C544.177 379.735 549.393 381.696 558.247 383.598C568.303 385.758 574.578 385.8 584.585 384.548C596.262 383.087 602.862 380.452 613.004 375.56C622.687 370.888 628.327 367.474 636.466 360.039C637.174 359.393 637.871 358.764 638.557 358.145C644.868 352.452 650.247 347.6 654.1 337.855C657.997 327.995 656.942 319.891 655.892 311.836C655.603 309.62 655.315 307.407 655.131 305.163C654.982 303.356 654.89 301.602 654.8 299.871C654.447 293.122 654.112 286.709 650.486 278.73C646.815 270.65 641.888 266.024 636.934 261.373C635.414 259.946 633.891 258.517 632.401 256.984C631.067 255.611 629.819 254.205 628.568 252.794C624.583 248.299 620.557 243.76 613.536 240.111C604.866 235.605 597.751 235.247 590.177 234.867C588.478 234.782 586.756 234.695 584.988 234.56C584.14 234.496 583.316 234.43 582.512 234.366C574.665 233.742 568.691 233.268 559.604 235.148C546.932 237.771 539.52 241.433 529.472 249.389C522.255 255.103 518.704 260.012 514.212 266.221C513.586 267.087 512.941 267.978 512.266 268.901C511.396 270.088 510.5 271.224 509.602 272.362C506.417 276.4 503.205 280.472 501.045 286.993C499.219 292.505 499.056 296.531 498.876 300.993C498.842 301.814 498.808 302.65 498.764 303.513Z" fill="#B27E59" stroke="white" stroke-width="11.2289"/>
<path d="M517.412 276.665C512.901 282.824 509.392 285.959 506.992 293.206C505.128 298.833 505.296 302.333 504.988 308.253C504.53 317.048 504.365 322.212 506.51 330.754C508.862 340.124 511.605 345.163 517.09 353.117C524.034 363.188 529.195 368.565 539.758 374.737C547.088 379.02 551.743 380.773 560.044 382.556C569.389 384.564 575.02 384.61 584.505 383.424C595.351 382.067 601.336 379.699 611.182 374.95C620.504 370.453 625.655 367.322 633.297 360.341C640.741 353.541 645.789 349.614 649.496 340.238C653.828 329.279 651.118 321.815 650.152 310.071C649.355 300.372 650.018 294.36 645.992 285.5C641.733 276.126 636.17 272.728 628.993 265.345C622.588 258.756 619.716 253.777 611.564 249.54C602.262 244.705 595.631 245.402 585.179 244.606C575.901 243.899 570.47 243.208 561.359 245.094C549.604 247.526 542.985 250.787 533.574 258.238C526.07 264.18 523.068 268.943 517.412 276.665Z" fill="#D99C71"/>
<path fill-rule="evenodd" clip-rule="evenodd" d="M506.51 330.754C506.041 328.885 505.682 327.177 505.413 325.558C509.166 330.863 513.677 334.803 520.779 334.352C526.331 334 529.537 333.146 534.564 330.764C553.984 321.566 530.854 304.8 508.714 288.989C510.273 285.847 512.151 283.458 514.332 280.685C515.3 279.454 516.327 278.147 517.412 276.665C518.108 275.716 518.763 274.811 519.392 273.943C523.875 267.754 526.993 263.449 533.574 258.238C542.985 250.787 549.604 247.526 561.359 245.094C565.047 244.33 568.133 243.989 571.115 243.9C571.443 249.266 572.559 254.898 573.99 260.7C574.992 264.765 576.894 267.606 578.768 270.404C580.825 273.476 582.848 276.497 583.607 281.03C585.253 290.849 577.917 297.201 570.677 303.47C563.265 309.887 555.954 316.217 558.482 326.09C559.862 331.479 561.298 334.47 564.573 338.966C577.365 356.524 589.659 329.917 601.181 304.981C605.016 296.682 608.765 288.567 612.419 282.328C615.847 276.474 620.248 270.968 624.512 265.633C625.245 264.716 625.974 263.804 626.693 262.897C627.414 263.688 628.175 264.503 628.993 265.345C630.823 267.228 632.549 268.852 634.175 270.382C638.923 274.85 642.819 278.517 645.992 285.5C648.8 291.681 649.327 296.475 649.659 302.102C644.11 299.127 638.032 298.372 630.842 301.46C611.069 309.949 601.496 335.035 612.616 353.458C616.337 359.623 621.163 363.487 626.772 365.832C622.1 369.373 617.643 371.833 611.182 374.95C601.336 379.699 595.351 382.067 584.505 383.424C575.02 384.61 569.389 384.564 560.044 382.556C551.743 380.773 547.088 379.02 539.758 374.737C529.195 368.565 524.034 363.188 517.09 353.117C511.605 345.163 508.862 340.124 506.51 330.754Z" fill="#E6B48E"/>
<circle cx="532.503" cy="288.791" r="3.74838" transform="rotate(-25.3182 532.503 288.791)" fill="#C08A56"/>
<circle cx="567.174" cy="267.413" r="2.24903" transform="rotate(-25.3182 567.174 267.413)" fill="#C08A56"/>
<circle cx="598.299" cy="347.233" r="2.24903" transform="rotate(-25.3182 598.299 347.233)" fill="#C08A56"/>
<circle cx="533.979" cy="344.493" r="2.24903" transform="rotate(-25.3182 533.979 344.493)" fill="#C08A56"/>
<circle cx="635.757" cy="321.222" r="2.24903" transform="rotate(-25.3182 635.757 321.222)" fill="#C08A56"/>
<circle cx="577.827" cy="363.555" r="3.74838" transform="rotate(-25.3182 577.827 363.555)" fill="#C08A56"/>
<circle cx="603.316" cy="301.735" r="3.74838" transform="rotate(-25.3182 603.316 301.735)" fill="#C08A56"/>
<path d="M567.918 300.693C553.13 313.647 551.899 331.854 550.146 331.036C546.592 327.672 546.971 313.055 557.074 299.693C560.786 294.784 569.6 298.916 567.918 300.693Z" fill="#778935"/>
<path d="M208.951 396.655L214.439 393.98L208.951 396.655C214.256 407.537 218.775 413.378 227.204 421.737C237.04 431.49 244.274 435.689 256.172 441.527C267.533 447.102 274.792 449.845 287.59 451.982C288.703 452.168 289.791 452.357 290.863 452.543C300.721 454.252 309.122 455.709 320.946 452.198C332.908 448.646 339.646 441.781 346.345 434.957C348.187 433.08 350.026 431.206 351.971 429.405C353.537 427.954 355.094 426.595 356.632 425.254C362.626 420.024 368.322 415.055 373.078 405.902C377.894 396.632 378.599 388.709 379.308 380.742C379.525 378.298 379.743 375.849 380.08 373.356C380.382 371.122 380.779 368.945 381.177 366.762C382.444 359.806 383.723 352.78 382.003 343.626C379.878 332.324 375.041 325.475 369.891 318.184C368.736 316.549 367.565 314.891 366.405 313.156C365.849 312.323 365.311 311.513 364.786 310.722C359.664 303.001 355.764 297.123 347.421 290.073C335.787 280.243 327.01 276.039 312.344 272.512C301.809 269.979 294.684 270.256 285.669 270.607C284.413 270.656 283.119 270.706 281.774 270.75C280.043 270.808 278.34 270.803 276.633 270.798C270.58 270.782 264.476 270.765 256.867 273.502C250.436 275.815 246.589 278.588 242.326 281.662C241.541 282.228 240.742 282.804 239.91 283.39C231.298 289.448 225.734 293.505 218.757 302.5C211.163 312.291 208.182 319.271 204.644 330.627C200.136 345.099 198.735 354.775 200.85 370.19C202.308 380.817 204.281 387.073 208.951 396.655Z" fill="#B27E59" stroke="white" stroke-width="13.2168"/>
<path d="M278.316 281.15C269.335 281.446 263.883 280.474 255.428 283.515C248.862 285.877 245.743 288.574 240.037 292.589C231.558 298.554 226.657 302.153 220.303 310.345C213.334 319.33 210.66 325.531 207.277 336.388C202.995 350.135 201.764 358.822 203.721 373.087C205.079 382.988 206.837 388.571 211.216 397.554C216.145 407.668 220.193 412.917 228.181 420.839C237.317 429.899 243.858 433.722 255.408 439.39C266.345 444.757 272.986 447.252 285.003 449.259C296.708 451.214 304.012 453.036 315.389 449.658C328.685 445.71 333.629 437.777 343.804 428.352C352.208 420.567 358.257 416.815 363.538 406.65C369.126 395.895 368.231 388.276 369.856 376.265C371.305 365.548 373.83 359.271 371.832 348.642C369.553 336.516 364.09 330.881 357.235 320.622C351.15 311.517 347.845 305.984 339.48 298.916C328.688 289.797 320.86 286.035 307.123 282.732C296.169 280.098 289.577 280.779 278.316 281.15Z" fill="#D99C71"/>
<path fill-rule="evenodd" clip-rule="evenodd" d="M220.303 310.345C221.694 308.552 223.015 306.979 224.319 305.554C222.132 312.882 221.761 319.923 227.337 326.172C231.696 331.057 234.816 333.406 240.673 336.332C263.3 347.635 262.025 314.036 260.585 282.046C264.627 281.208 268.204 281.212 272.356 281.217C274.199 281.219 276.155 281.221 278.316 281.15C279.701 281.105 281.015 281.054 282.276 281.006C291.264 280.662 297.516 280.422 307.123 282.732C320.86 286.035 328.688 289.797 339.48 298.916C342.865 301.777 345.422 304.386 347.67 307.082C342.938 311.284 338.533 316.409 334.198 321.949C331.161 325.83 329.912 329.655 328.682 333.424C327.331 337.56 326.003 341.628 322.356 345.625C314.458 354.282 303.246 352.102 292.181 349.95C280.854 347.747 269.681 345.574 262.373 355.088C258.385 360.28 256.658 363.783 254.873 370.082C247.904 394.684 281.476 386.742 312.94 379.299C323.412 376.821 333.651 374.399 342.084 373.251C349.995 372.173 358.291 372.249 366.33 372.323L366.333 372.323C367.715 372.336 369.089 372.348 370.452 372.355C370.244 373.598 370.041 374.895 369.856 376.265C369.441 379.329 369.191 382.106 368.955 384.723C368.266 392.366 367.7 398.638 363.538 406.65C359.854 413.741 355.796 417.712 350.826 422.107C349.55 414.806 345.834 408.628 337.751 404.211C315.525 392.066 285.338 401.424 276.353 425.104C273.346 433.03 273.274 440.306 275.177 447.204C268.505 445.45 262.988 443.11 255.408 439.39C243.858 433.722 237.317 429.899 228.181 420.839C220.193 412.917 216.145 407.668 211.216 397.554C206.837 388.571 205.079 382.988 203.721 373.087C201.764 358.822 202.995 350.135 207.277 336.388C210.66 325.531 213.334 319.33 220.303 310.345Z" fill="#E6B48E"/>
<circle cx="278.047" cy="303.939" r="4.41198" transform="rotate(26.5724 278.047 303.939)" fill="#C08A56"/>
<circle cx="323.035" cy="320.517" r="2.64719" transform="rotate(26.5724 323.035 320.517)" fill="#C08A56"/>
<circle cx="271.719" cy="407.327" r="2.64719" transform="rotate(26.5724 271.719 407.327)" fill="#C08A56"/>
<circle cx="227.531" cy="345.765" r="2.64719" transform="rotate(26.5724 227.531 345.765)" fill="#C08A56"/>
<circle cx="323.015" cy="423.118" r="2.64719" transform="rotate(26.5724 323.015 423.118)" fill="#C08A56"/>
<circle cx="241.73" cy="400.222" r="4.41198" transform="rotate(26.5724 241.73 400.222)" fill="#C08A56"/>
<circle cx="317.5" cy="378.922" r="4.41198" transform="rotate(26.5724 317.5 378.922)" fill="#C08A56"/>
<path d="M292.744 345.382C270.005 341.096 252.249 353.182 251.732 350.964C252.266 345.229 266.079 334.962 285.793 334.612C293.036 334.483 295.612 345.649 292.744 345.382Z" fill="#778935"/>
</svg>
