<svg width="2090" height="1538" viewBox="0 0 2090 1538" fill="none" xmlns="http://www.w3.org/2000/svg">
<mask id="path-1-outside-1_108_10147" maskUnits="userSpaceOnUse" x="0" y="0.000488281" width="2090" height="1538" fill="black">
<rect fill="white" y="0.000488281" width="2090" height="1538"/>
<path fill-rule="evenodd" clip-rule="evenodd" d="M211.278 61.0005C128.282 61.0005 61 128.282 61 211.279V1327.09C61 1410.09 128.282 1477.37 211.278 1477.37H1879.36C1962.36 1477.37 2029.64 1410.09 2029.64 1327.09V211.279C2029.64 128.282 1962.36 61.0005 1879.36 61.0005H211.278ZM149.311 145.779C165.467 130.489 187.278 121.112 211.278 121.112H1879.36C1929.16 121.112 1969.53 161.481 1969.53 211.279V1025.92C1897.09 1029.14 1820.97 1033.04 1739.51 1037.63C1731.23 1038.09 1724.89 1045.19 1725.35 1053.48C1725.82 1061.76 1732.92 1068.1 1741.2 1067.64C1822.05 1063.09 1897.62 1059.21 1969.53 1056V1144.95C1843.88 1148.73 1710.36 1154.92 1558.24 1163.49C1549.95 1163.95 1543.61 1171.05 1544.08 1179.34C1544.55 1187.62 1551.64 1193.96 1559.93 1193.49C1711.44 1184.97 1844.41 1178.79 1969.53 1175.02V1308.82C1777.44 1307.44 1581.79 1299.83 1338.27 1286.12C1329.98 1285.65 1322.89 1291.99 1322.42 1300.28C1321.95 1308.56 1328.29 1315.66 1336.58 1316.13C1580.36 1329.85 1776.36 1337.48 1968.77 1338.87C1965.68 1362.56 1953.4 1383.36 1935.62 1397.57C1252.61 1375.38 805.893 1374.89 152.169 1395.18C133.142 1378.65 121.111 1354.28 121.111 1327.09V977.191L149.311 145.779ZM445.131 1417.26H1565.95C1168.89 1408.18 836.391 1408.26 445.131 1417.26Z"/>
</mask>
<path fill-rule="evenodd" clip-rule="evenodd" d="M211.278 61.0005C128.282 61.0005 61 128.282 61 211.279V1327.09C61 1410.09 128.282 1477.37 211.278 1477.37H1879.36C1962.36 1477.37 2029.64 1410.09 2029.64 1327.09V211.279C2029.64 128.282 1962.36 61.0005 1879.36 61.0005H211.278ZM149.311 145.779C165.467 130.489 187.278 121.112 211.278 121.112H1879.36C1929.16 121.112 1969.53 161.481 1969.53 211.279V1025.92C1897.09 1029.14 1820.97 1033.04 1739.51 1037.63C1731.23 1038.09 1724.89 1045.19 1725.35 1053.48C1725.82 1061.76 1732.92 1068.1 1741.2 1067.64C1822.05 1063.09 1897.62 1059.21 1969.53 1056V1144.95C1843.88 1148.73 1710.36 1154.92 1558.24 1163.49C1549.95 1163.95 1543.61 1171.05 1544.08 1179.34C1544.55 1187.62 1551.64 1193.96 1559.93 1193.49C1711.44 1184.97 1844.41 1178.79 1969.53 1175.02V1308.82C1777.44 1307.44 1581.79 1299.83 1338.27 1286.12C1329.98 1285.65 1322.89 1291.99 1322.42 1300.28C1321.95 1308.56 1328.29 1315.66 1336.58 1316.13C1580.36 1329.85 1776.36 1337.48 1968.77 1338.87C1965.68 1362.56 1953.4 1383.36 1935.62 1397.57C1252.61 1375.38 805.893 1374.89 152.169 1395.18C133.142 1378.65 121.111 1354.28 121.111 1327.09V977.191L149.311 145.779ZM445.131 1417.26H1565.95C1168.89 1408.18 836.391 1408.26 445.131 1417.26Z" fill="#9D682F"/>
<path d="M151.15 978.21L179.349 146.798L119.272 144.761L91.0729 976.172L151.15 978.21ZM149.311 145.779L107.992 102.12L90.0705 119.081L89.2341 143.742L149.311 145.779ZM1969.53 1025.92L1972.2 1085.97L2029.64 1083.42V1025.92H1969.53ZM1739.51 1037.63L1742.89 1097.64L1739.51 1037.63ZM1725.35 1053.48L1785.37 1050.1V1050.1L1725.35 1053.48ZM1741.2 1067.64L1744.58 1127.65L1741.2 1067.64ZM1969.53 1056H2029.64V993.155L1966.86 995.951L1969.53 1056ZM1969.53 1144.95L1971.34 1205.03L2029.64 1203.28V1144.95H1969.53ZM1558.24 1163.49L1561.62 1223.5H1561.62L1558.24 1163.49ZM1544.08 1179.34L1604.1 1175.96V1175.96L1544.08 1179.34ZM1559.93 1193.49L1556.55 1133.48H1556.55L1559.93 1193.49ZM1969.53 1175.02H2029.64V1113.07L1967.72 1114.93L1969.53 1175.02ZM1969.53 1308.82L1969.1 1368.93L2029.64 1369.36V1308.82H1969.53ZM1338.27 1286.12L1334.89 1346.13H1334.89L1338.27 1286.12ZM1322.42 1300.28L1382.44 1303.66V1303.65L1322.42 1300.28ZM1336.58 1316.13L1339.96 1256.11H1339.96L1336.58 1316.13ZM1968.77 1338.87L2028.38 1346.64L2037.17 1279.25L1969.2 1278.76L1968.77 1338.87ZM1935.62 1397.57L1933.66 1457.65L1955.83 1458.37L1973.15 1444.52L1935.62 1397.57ZM152.169 1395.18L112.744 1440.56L130.51 1456L154.034 1455.27L152.169 1395.18ZM121.111 977.191L61.0345 975.154L61 976.172V977.191H121.111ZM445.131 1417.26L443.75 1357.16L445.131 1477.37V1417.26ZM1565.95 1417.26V1477.37L1567.32 1357.16L1565.95 1417.26ZM121.111 211.279C121.111 161.481 161.48 121.112 211.278 121.112V0.889259C95.0832 0.889259 0.888771 95.0839 0.888771 211.279H121.111ZM121.111 1327.09V211.279H0.888771V1327.09H121.111ZM211.278 1417.26C161.48 1417.26 121.111 1376.89 121.111 1327.09H0.888771C0.888771 1443.29 95.0831 1537.48 211.278 1537.48V1417.26ZM1879.36 1417.26H211.278V1537.48H1879.36V1417.26ZM1969.53 1327.09C1969.53 1376.89 1929.16 1417.26 1879.36 1417.26V1537.48C1995.56 1537.48 2089.75 1443.29 2089.75 1327.09H1969.53ZM1969.53 211.279V1327.09H2089.75V211.279H1969.53ZM1879.36 121.112C1929.16 121.112 1969.53 161.481 1969.53 211.279H2089.75C2089.75 95.0838 1995.56 0.889259 1879.36 0.889259V121.112ZM211.278 121.112H1879.36V0.889259H211.278V121.112ZM211.278 61.0005C171.305 61.0005 134.866 76.687 107.992 102.12L190.63 189.438C196.069 184.291 203.25 181.223 211.278 181.223V61.0005ZM1879.36 61.0005H211.278V181.223H1879.36V61.0005ZM2029.64 211.279C2029.64 128.282 1962.36 61.0005 1879.36 61.0005V181.223C1895.96 181.223 1909.42 194.679 1909.42 211.279H2029.64ZM2029.64 1025.92V211.279H1909.42V1025.92H2029.64ZM1966.86 965.866C1894.14 969.098 1817.77 973.016 1736.13 977.612L1742.89 1097.64C1824.17 1093.07 1900.05 1089.18 1972.2 1085.97L1966.86 965.866ZM1736.13 977.612C1694.7 979.945 1663 1015.42 1665.34 1056.86L1785.37 1050.1C1786.77 1074.96 1767.75 1096.24 1742.89 1097.64L1736.13 977.612ZM1665.34 1056.86C1667.67 1098.29 1703.15 1129.98 1744.58 1127.65L1737.82 1007.62C1762.68 1006.22 1783.97 1025.24 1785.37 1050.1L1665.34 1056.86ZM1744.58 1127.65C1825.25 1123.11 1900.57 1119.24 1972.21 1116.05L1966.86 995.951C1894.66 999.166 1818.85 1003.06 1737.82 1007.62L1744.58 1127.65ZM2029.64 1144.95V1056H1909.42V1144.95H2029.64ZM1967.72 1084.87C1841.39 1088.67 1707.32 1094.89 1554.86 1103.47L1561.62 1223.5C1713.41 1214.96 1846.37 1208.8 1971.34 1205.03L1967.72 1084.87ZM1554.86 1103.47C1513.43 1105.8 1481.73 1141.28 1484.06 1182.71L1604.1 1175.96C1605.5 1200.82 1586.48 1222.1 1561.62 1223.5L1554.86 1103.47ZM1484.06 1182.71C1486.4 1224.15 1521.88 1255.84 1563.31 1253.51L1556.55 1133.48C1581.41 1132.08 1602.7 1151.1 1604.1 1175.96L1484.06 1182.71ZM1563.31 1253.51C1714.48 1245 1846.91 1238.86 1971.35 1235.1L1967.72 1114.93C1841.92 1118.73 1708.39 1124.93 1556.55 1133.48L1563.31 1253.51ZM2029.64 1308.82V1175.02H1909.42V1308.82H2029.64ZM1969.96 1248.71C1779.21 1247.34 1584.63 1239.78 1341.65 1226.1L1334.89 1346.13C1578.96 1359.87 1775.67 1367.54 1969.1 1368.93L1969.96 1248.71ZM1341.65 1226.1C1300.22 1223.77 1264.74 1255.46 1262.4 1296.9L1382.44 1303.65C1381.04 1328.52 1359.75 1347.53 1334.89 1346.13L1341.65 1226.1ZM1262.4 1296.9C1260.07 1338.33 1291.77 1373.81 1333.2 1376.14L1339.96 1256.11C1364.82 1257.51 1383.84 1278.8 1382.44 1303.66L1262.4 1296.9ZM1333.2 1376.14C1577.53 1389.9 1774.59 1397.58 1968.34 1398.98L1969.2 1278.76C1778.13 1277.38 1583.19 1269.8 1339.96 1256.11L1333.2 1376.14ZM1973.15 1444.52C2002.66 1420.93 2023.21 1386.28 2028.38 1346.64L1909.16 1331.09C1908.15 1338.83 1904.13 1345.78 1898.09 1350.61L1973.15 1444.52ZM154.034 1455.27C806.441 1435.01 1251.88 1435.5 1933.66 1457.65L1937.57 1337.49C1253.33 1315.26 805.345 1314.77 150.303 1335.1L154.034 1455.27ZM61 1327.09C61 1372.41 81.1355 1413.1 112.744 1440.56L191.594 1349.81C185.148 1344.21 181.222 1336.14 181.222 1327.09H61ZM61 977.191V1327.09H181.222V977.191H61ZM181.188 979.229L209.387 147.817L89.2341 143.742L61.0345 975.154L181.188 979.229ZM445.131 1477.37H1565.95V1357.15H445.131V1477.37ZM1567.32 1357.16C1169.34 1348.06 835.929 1348.15 443.75 1357.16L446.513 1477.36C836.854 1468.38 1168.43 1468.3 1564.57 1477.36L1567.32 1357.16Z" fill="white" mask="url(#path-1-outside-1_108_10147)"/>
<rect x="67.6426" y="61" width="1908.53" height="1356.26" rx="60.1112" fill="#EBA252"/>
<path fill-rule="evenodd" clip-rule="evenodd" d="M67.6426 121.112C67.6426 87.9132 94.5553 61.0005 127.754 61.0005H1916.06C1927.32 61.0005 1937.85 64.0922 1946.85 69.4726C1739.53 69.9066 1532.1 77.6191 1269.02 92.4292C1260.74 92.8957 1254.4 99.9914 1254.86 108.278C1255.33 116.564 1262.43 122.904 1270.71 122.437C1543.94 107.056 1756.89 99.3458 1972.18 99.5114C1974.76 106.215 1976.17 113.498 1976.17 121.112V207.769C1492.28 182.966 1192.73 185.347 689.981 213.65C681.695 214.117 675.355 221.213 675.822 229.499C676.288 237.786 683.384 244.125 691.671 243.658C1193.89 215.386 1492.48 213.033 1976.17 237.864V341.367C1248.63 365.111 790.145 364.338 67.6426 340.141V279.925C232.571 277.181 406.577 269.974 616.06 258.217C624.347 257.752 630.687 250.657 630.222 242.371C629.757 234.084 622.662 227.743 614.376 228.209C405.491 239.932 232.025 247.122 67.6426 249.865V154.651C449.473 170.294 735.249 165.962 1183.36 140.813C1191.65 140.348 1197.99 133.254 1197.52 124.967C1197.06 116.681 1189.96 110.34 1181.68 110.805C734.07 135.926 449.097 140.233 67.6426 124.571V121.112ZM67.6426 370.213V480.72C502.399 501.491 796.746 498.768 1283.11 471.472C1291.4 471.007 1298.49 477.348 1298.96 485.634C1299.42 493.921 1293.08 501.016 1284.8 501.481C797.915 528.806 502.673 531.555 67.6426 510.81V648.387C151.341 640.233 253.857 631.499 394.125 623.627C402.412 623.162 409.506 629.502 409.971 637.789C410.437 646.076 404.096 653.17 395.809 653.635C254.846 661.547 151.95 670.388 67.6426 678.638V886.655C352.498 890.041 607.518 865.537 852.359 842.011H852.36L852.372 842.01C930.193 834.533 1006.99 827.154 1083.38 820.801C1376.48 796.428 1662.94 787.284 1976.17 846.682V742.069C1911.93 739.101 1844.71 735.608 1773.39 731.593C1765.11 731.127 1758.77 724.031 1759.23 715.745C1759.7 707.458 1766.8 701.119 1775.08 701.585C1845.79 705.566 1912.46 709.032 1976.17 711.982V623.418C1858.46 619.587 1733.3 613.683 1592.12 605.735C1583.83 605.268 1577.5 598.173 1577.96 589.886C1578.43 581.6 1585.52 575.26 1593.81 575.727C1734.38 583.64 1858.99 589.523 1976.17 593.347V460.64C1792.74 462.513 1604.18 470.042 1372.15 483.105C1363.86 483.571 1356.77 477.232 1356.3 468.945C1355.83 460.659 1362.17 453.563 1370.46 453.096C1603.07 440.001 1792.18 432.455 1976.17 430.583V371.438C1248.86 395.16 789.908 394.389 67.6426 370.213ZM1976.17 877.279C1664.69 817.448 1379.65 826.324 1085.87 850.754C1010.16 857.049 933.821 864.387 856.28 871.839L856.265 871.841L856.264 871.841C611.281 895.387 354.332 920.083 67.6426 916.71V966.583C70.1318 964.224 73.4373 962.7 77.1294 962.492C425.557 942.877 538.044 954.558 721.107 973.567C821.723 984.014 943.659 996.676 1137.81 1007.57C1146.09 1008.04 1152.43 1015.13 1151.97 1023.42C1151.5 1031.7 1144.41 1038.05 1136.12 1037.58C939.15 1026.53 816.623 1013.77 716.108 1003.31L716.106 1003.31C534.714 984.43 425.006 973.011 78.8188 992.501C74.5197 992.743 70.5412 991.153 67.6426 988.41V1065.93C140.776 1072.54 227.932 1079.32 338.516 1085.53C346.802 1085.99 353.143 1093.09 352.678 1101.38C352.213 1109.66 345.118 1116 336.831 1115.54C226.978 1109.37 140.28 1102.68 67.6426 1096.15V1225.72C472.045 1207.9 762.295 1211.58 1227.5 1237.68C1235.79 1238.15 1242.13 1245.24 1241.67 1253.53C1241.2 1261.82 1234.11 1268.16 1225.82 1267.69C761.119 1241.61 471.711 1237.97 67.6426 1255.81V1357.15C67.6426 1360.52 67.9197 1363.82 68.4524 1367.04C775.677 1344.17 1234.8 1344.66 1974.89 1369.58C1975.73 1365.57 1976.17 1361.41 1976.17 1357.15V1308.98C1773.76 1308.22 1569.97 1300.53 1313.17 1286.07C1304.88 1285.6 1298.54 1278.51 1299.01 1270.22C1299.47 1261.93 1306.57 1255.59 1314.86 1256.06C1571.09 1270.49 1774.32 1278.16 1976.17 1278.93V1144.1C1842.28 1147.76 1700.22 1154.22 1536.52 1163.44C1528.23 1163.91 1521.13 1157.57 1520.67 1149.28C1520.2 1140.99 1526.54 1133.9 1534.83 1133.43C1699.14 1124.18 1841.74 1117.7 1976.17 1114.03V1024.64C1895.3 1028.07 1809.98 1032.39 1717.79 1037.58C1709.5 1038.05 1702.41 1031.71 1701.94 1023.42C1701.47 1015.13 1707.81 1008.04 1716.1 1007.57C1808.9 1002.35 1894.78 998.006 1976.17 994.556V877.279ZM127.754 1417.26C109.681 1417.26 93.4705 1409.28 82.4511 1396.66C776.936 1374.39 1232.86 1374.86 1959.09 1399.13C1948.17 1410.31 1932.93 1417.26 1916.06 1417.26H127.754ZM1115.59 644.91C1216.2 634.462 1338.14 621.8 1532.29 610.904C1540.57 610.439 1546.91 603.345 1546.45 595.058C1545.98 586.771 1538.89 580.431 1530.6 580.896C1333.63 591.951 1211.1 604.703 1110.59 615.166L1110.59 615.166C929.193 634.046 819.486 645.465 473.298 625.976C465.012 625.509 457.916 631.848 457.45 640.135C456.983 648.421 463.322 655.517 471.609 655.984C820.037 675.599 932.524 663.918 1115.59 644.91ZM1720.15 702.199C1721.02 693.944 1715.03 686.551 1706.77 685.686L1700.83 685.062C1586.09 673.019 1476.51 661.517 1268.13 685.703C1259.89 686.66 1253.98 694.119 1254.94 702.364C1255.9 710.608 1263.36 716.515 1271.6 715.559C1476.69 691.754 1583.79 702.997 1697.46 714.929C1699.51 715.145 1701.57 715.361 1703.64 715.578C1711.89 716.443 1719.28 710.453 1720.15 702.199ZM778.4 765.598C879.016 755.151 1000.95 742.489 1195.1 731.593C1203.39 731.128 1209.73 724.033 1209.26 715.747C1208.8 707.46 1201.7 701.12 1193.42 701.585C996.443 712.639 873.916 725.392 773.401 735.854L773.399 735.855C592.007 754.735 482.299 766.154 136.112 746.664C127.825 746.198 120.729 752.537 120.263 760.824C119.796 769.11 126.136 776.206 134.422 776.672C482.85 796.288 595.337 784.607 778.4 765.598ZM1058.29 1094.26C1158.91 1104.7 1280.85 1117.36 1474.99 1128.26C1483.28 1128.73 1489.62 1135.82 1489.16 1144.11C1488.69 1152.39 1481.6 1158.73 1473.31 1158.27C1276.34 1147.21 1153.81 1134.46 1053.29 1124C871.901 1105.12 762.193 1093.7 416.005 1113.19C407.719 1113.66 400.623 1107.32 400.157 1099.03C399.69 1090.74 406.029 1083.65 414.316 1083.18C762.744 1063.57 875.231 1075.25 1058.29 1094.26ZM1649.48 1053.48C1657.73 1052.61 1663.72 1045.22 1662.86 1036.97C1661.99 1028.71 1654.6 1022.72 1646.34 1023.59L1641.26 1024.12L1640.16 1024.24C1526.5 1036.17 1419.4 1047.41 1214.31 1023.61C1206.06 1022.65 1198.6 1028.56 1197.65 1036.8C1196.69 1045.05 1202.6 1052.5 1210.84 1053.46C1419.22 1077.65 1528.79 1066.15 1643.53 1054.1L1649.48 1053.48Z" fill="#FFB96C"/>
<rect x="67.6426" y="61" width="1908.53" height="1356.26" rx="120.222" stroke="#BE803D" stroke-width="60.1112"/>
</svg>
