<svg width="506" height="861" viewBox="0 0 506 861" fill="none" xmlns="http://www.w3.org/2000/svg">
<mask id="path-1-outside-1_218_561" maskUnits="userSpaceOnUse" x="-39" y="75" width="563" height="691" fill="black">
<rect fill="white" x="-39" y="75" width="563" height="691"/>
<path d="M383.607 372.885C449.6 416.718 472.613 477.598 452.644 555.524C445.826 582.554 433.528 606.297 415.751 626.753C398.218 647.208 377.397 663.524 353.289 675.7C329.181 688.119 301.176 696.156 269.275 699.808C237.374 703.461 207.665 702 180.147 695.425C108.309 677.161 57.5356 632.962 27.8264 562.829C22.7125 550.41 27.2176 538.964 41.3417 528.493C55.7093 518.022 72.8773 509.377 92.8458 502.558C112.814 495.496 132.296 490.869 151.29 488.678C170.285 486.486 181.852 487.338 185.992 491.235C189.644 495.131 191.714 499.88 192.201 505.481C193.175 524.475 205.351 530.806 228.729 524.475C252.35 517.9 262.213 508.646 258.317 496.714C253.933 483.564 236.887 468.709 207.178 452.15C177.469 435.591 162.249 415.135 161.518 390.783C161.275 385.182 162.736 375.929 165.901 363.022C169.067 350.116 178.321 335.505 193.663 319.189C147.394 318.458 115.25 317.119 97.2292 315.171C85.5403 313.953 75.6778 306.404 67.6417 292.524C59.8491 278.4 54.2481 262.449 50.8389 244.672C47.6731 226.895 47.0644 209.606 49.0125 192.803C50.9606 175.756 55.9528 163.459 63.9889 155.91C70.3204 150.065 91.8718 145.804 128.643 143.125C165.658 140.203 205.717 139.107 248.819 139.837C291.922 140.325 331.981 142.516 368.996 146.412C406.254 150.065 428.414 155.423 435.476 162.485C450.818 178.557 449.844 211.067 432.554 260.014C415.264 308.961 398.949 346.585 383.607 372.885Z"/>
</mask>
<path d="M383.607 372.885C449.6 416.718 472.613 477.598 452.644 555.524C445.826 582.554 433.528 606.297 415.751 626.753C398.218 647.208 377.397 663.524 353.289 675.7C329.181 688.119 301.176 696.156 269.275 699.808C237.374 703.461 207.665 702 180.147 695.425C108.309 677.161 57.5356 632.962 27.8264 562.829C22.7125 550.41 27.2176 538.964 41.3417 528.493C55.7093 518.022 72.8773 509.377 92.8458 502.558C112.814 495.496 132.296 490.869 151.29 488.678C170.285 486.486 181.852 487.338 185.992 491.235C189.644 495.131 191.714 499.88 192.201 505.481C193.175 524.475 205.351 530.806 228.729 524.475C252.35 517.9 262.213 508.646 258.317 496.714C253.933 483.564 236.887 468.709 207.178 452.15C177.469 435.591 162.249 415.135 161.518 390.783C161.275 385.182 162.736 375.929 165.901 363.022C169.067 350.116 178.321 335.505 193.663 319.189C147.394 318.458 115.25 317.119 97.2292 315.171C85.5403 313.953 75.6778 306.404 67.6417 292.524C59.8491 278.4 54.2481 262.449 50.8389 244.672C47.6731 226.895 47.0644 209.606 49.0125 192.803C50.9606 175.756 55.9528 163.459 63.9889 155.91C70.3204 150.065 91.8718 145.804 128.643 143.125C165.658 140.203 205.717 139.107 248.819 139.837C291.922 140.325 331.981 142.516 368.996 146.412C406.254 150.065 428.414 155.423 435.476 162.485C450.818 178.557 449.844 211.067 432.554 260.014C415.264 308.961 398.949 346.585 383.607 372.885Z" fill="#C6A50D"/>
<path d="M383.607 372.885L328.325 340.637L297.902 392.79L348.197 426.196L383.607 372.885ZM452.644 555.524L390.648 539.637L390.618 539.753L390.588 539.87L452.644 555.524ZM415.751 626.753L367.444 584.772L367.301 584.936L367.159 585.102L415.751 626.753ZM353.289 675.7L324.437 618.573L324.208 618.688L323.98 618.806L353.289 675.7ZM180.147 695.425L164.378 757.452L164.825 757.566L165.274 757.673L180.147 695.425ZM27.8264 562.829L-31.353 587.197L-31.2301 587.496L-31.1042 587.793L27.8264 562.829ZM41.3417 528.493L3.64657 476.772L3.43561 476.926L3.22591 477.081L41.3417 528.493ZM92.8458 502.558L113.527 563.125L113.857 563.012L114.185 562.896L92.8458 502.558ZM185.992 491.235L232.682 447.462L231.313 446.002L229.855 444.63L185.992 491.235ZM192.201 505.481L256.117 502.203L256.059 501.068L255.961 499.936L192.201 505.481ZM228.729 524.475L245.46 586.249L245.676 586.191L245.891 586.131L228.729 524.475ZM258.317 496.714L319.155 476.848L319.094 476.662L319.032 476.475L258.317 496.714ZM161.518 390.783L225.489 388.864L225.476 388.434L225.458 388.003L161.518 390.783ZM193.663 319.189L240.288 363.03L339.533 257.484L194.673 255.197L193.663 319.189ZM97.2292 315.171L104.108 251.542L103.984 251.528L103.86 251.515L97.2292 315.171ZM67.6417 292.524L11.6047 323.441L11.9236 324.019L12.2544 324.59L67.6417 292.524ZM50.8389 244.672L-12.1698 255.893L-12.0955 256.31L-12.0157 256.726L50.8389 244.672ZM49.0125 192.803L112.587 200.174L112.593 200.122L112.599 200.07L49.0125 192.803ZM63.9889 155.91L20.579 108.882L20.3735 109.072L20.1697 109.263L63.9889 155.91ZM128.643 143.125L133.293 206.956L133.487 206.942L133.68 206.926L128.643 143.125ZM248.819 139.837L247.735 203.828L247.916 203.831L248.096 203.833L248.819 139.837ZM368.996 146.412L362.296 210.061L362.524 210.085L362.751 210.107L368.996 146.412ZM435.476 162.485L481.771 118.294L481.257 117.756L480.731 117.23L435.476 162.485ZM348.197 426.196C372.501 442.339 384.679 458.66 390.496 474.049C396.348 489.531 398.144 510.383 390.648 539.637L514.641 571.41C527.114 522.738 527.388 474.188 510.227 428.79C493.032 383.299 460.706 347.263 419.017 319.573L348.197 426.196ZM390.588 539.87C386.152 557.457 378.444 572.114 367.444 584.772L464.059 668.734C488.612 640.481 505.5 607.652 514.701 571.177L390.588 539.87ZM367.159 585.102C355.134 599.131 341.028 610.193 324.437 618.573L382.141 732.827C413.767 716.855 441.302 695.286 464.344 668.403L367.159 585.102ZM323.98 618.806C307.887 627.096 287.592 633.293 261.994 636.224L276.556 763.393C314.76 759.018 350.474 749.143 382.598 732.594L323.98 618.806ZM261.994 636.224C236.512 639.142 214.38 637.803 195.021 633.177L165.274 757.673C200.95 766.197 238.237 767.781 276.556 763.393L261.994 636.224ZM195.917 633.398C144.086 620.221 108.915 590.173 86.757 537.866L-31.1042 587.793C6.15616 675.752 72.5322 734.101 164.378 757.452L195.917 633.398ZM87.0058 538.461C88.3312 541.68 89.6273 546.324 89.7737 552.065C89.9229 557.915 88.8381 563.505 86.9225 568.371C83.2892 577.602 78.0943 580.916 79.4574 579.905L3.22591 477.081C-9.535 486.542 -24.0445 500.814 -32.1829 521.49C-41.0748 544.08 -39.5723 567.236 -31.353 587.197L87.0058 538.461ZM79.0368 580.214C87.3451 574.159 98.5393 568.242 113.527 563.125L72.1646 441.992C47.2153 450.511 24.0734 461.884 3.64657 476.772L79.0368 580.214ZM114.185 562.896C130.102 557.267 144.887 553.841 158.626 552.256L143.954 425.1C119.705 427.898 95.527 433.726 71.5069 442.221L114.185 562.896ZM158.626 552.256C162.222 551.841 164.959 551.63 166.946 551.543C169.001 551.453 169.755 551.518 169.508 551.5C169.474 551.498 166.93 551.341 162.973 550.145C159.367 549.054 150.766 545.97 142.128 537.84L229.855 444.63C210.506 426.419 186.611 424.413 178.915 423.846C167.384 422.997 155.237 423.798 143.954 425.1L158.626 552.256ZM139.301 535.007C136.282 531.786 133.594 527.832 131.615 523.292C129.653 518.79 128.748 514.544 128.442 511.025L255.961 499.936C254.301 480.849 246.691 462.405 232.682 447.462L139.301 535.007ZM128.285 508.758C129.433 531.141 138.913 563.772 172.537 581.257C200.39 595.74 229.067 590.689 245.46 586.249L211.999 462.701C209.783 463.301 210.468 462.849 213.296 462.849C216.192 462.849 223.222 463.342 231.59 467.693C240.712 472.436 247.664 479.833 251.832 487.86C255.566 495.052 256.04 500.699 256.117 502.203L128.285 508.758ZM245.891 586.131C260.793 581.983 281.28 574.62 297.633 559.276C306.655 550.811 315.709 538.681 320.263 522.509C324.913 505.997 323.495 490.138 319.155 476.848L197.478 516.58C195.086 509.256 193.897 499.028 197.055 487.813C200.118 476.937 205.96 469.769 210.051 465.931C212.055 464.051 213.754 462.845 214.797 462.173C215.847 461.495 216.483 461.195 216.513 461.181C216.555 461.161 216.191 461.334 215.319 461.647C214.456 461.957 213.224 462.358 211.567 462.819L245.891 586.131ZM319.032 476.475C311.622 454.245 296.553 438.146 284.291 427.46C271.19 416.044 255.341 405.725 238.337 396.247L176.019 508.053C188.724 515.134 196.252 520.522 200.198 523.961C202.083 525.603 202.365 526.126 201.829 525.425C201.316 524.755 199.261 521.932 197.601 516.952L319.032 476.475ZM238.337 396.247C228.88 390.976 225.551 387.157 224.827 386.185C224.547 385.808 224.788 386.043 225.076 386.853C225.374 387.69 225.477 388.451 225.489 388.864L97.5468 392.702C99.205 447.973 135.299 485.356 176.019 508.053L238.337 396.247ZM225.458 388.003C225.503 389.047 225.495 389.833 225.482 390.305C225.468 390.786 225.446 391.07 225.441 391.126C225.435 391.202 225.472 390.741 225.648 389.624C226.011 387.326 226.742 383.637 228.059 378.268L103.744 347.776C100.566 360.732 96.8982 377.917 97.5785 393.563L225.458 388.003ZM228.059 378.268C227.579 380.223 227.309 379.746 229.284 376.627C231.214 373.58 234.631 369.046 240.288 363.03L147.037 275.347C128.702 294.847 110.764 319.154 103.744 347.776L228.059 378.268ZM194.673 255.197C148.274 254.464 118.845 253.135 104.108 251.542L90.3503 378.8C111.654 381.103 146.514 382.452 192.652 383.181L194.673 255.197ZM103.86 251.515C110.427 252.199 116.085 254.804 119.966 257.775C123.344 260.361 124.008 262.149 123.029 260.457L12.2544 324.59C26.5043 349.203 51.6529 374.77 90.5984 378.826L103.86 251.515ZM123.679 261.607C119.506 254.043 115.988 244.585 113.693 232.618L-12.0157 256.726C-7.49217 280.313 0.192313 302.756 11.6047 323.441L123.679 261.607ZM113.848 233.451C111.701 221.398 111.403 210.381 112.587 200.174L-14.5616 185.432C-17.2745 208.83 -16.3547 232.393 -12.1698 255.893L113.848 233.451ZM112.599 200.07C113.095 195.728 113.736 194.33 113.518 194.867C113.238 195.558 111.747 198.856 107.808 202.556L20.1697 109.263C-3.60393 131.596 -11.8149 161.397 -14.5736 185.536L112.599 200.07ZM107.399 202.937C103.163 206.847 99.3779 209.089 97.3786 210.164C95.2615 211.302 93.7907 211.851 93.3995 211.993C92.7479 212.229 93.7561 211.818 97.316 211.114C104.39 209.716 116.023 208.214 133.293 206.956L123.993 79.2941C104.492 80.7147 86.9638 82.683 72.4861 85.5459C65.2703 86.9727 57.4052 88.8907 49.783 91.6534C43.236 94.0263 31.3757 98.9161 20.579 108.882L107.399 202.937ZM133.68 206.926C168.366 204.188 206.358 203.127 247.735 203.828L249.904 75.8467C205.075 75.0868 162.95 76.2174 123.606 79.3235L133.68 206.926ZM248.096 203.833C289.506 204.301 327.548 206.403 362.296 210.061L375.696 82.7641C336.414 78.6292 294.338 76.3477 249.543 75.8416L248.096 203.833ZM362.751 210.107C380.038 211.802 391.574 213.699 398.52 215.378C401.983 216.215 402.958 216.682 402.316 216.409C401.925 216.243 400.595 215.657 398.698 214.496C396.858 213.369 393.713 211.231 390.222 207.74L480.731 117.23C470.757 107.255 459.653 101.697 452.382 98.6066C444.435 95.229 436.216 92.8038 428.599 90.9622C413.386 87.2843 395.212 84.6758 375.24 82.7178L362.751 210.107ZM389.182 206.675C380.489 197.569 382.493 189.928 382.281 197.004C382.074 203.908 379.797 217.214 372.208 238.698L492.9 281.33C502.601 253.867 509.456 226.444 510.223 200.838C510.985 175.405 505.805 143.473 481.771 118.294L389.182 206.675ZM372.208 238.698C355.464 286.1 340.714 319.399 328.325 340.637L438.889 405.132C457.184 373.77 475.064 331.822 492.9 281.33L372.208 238.698Z" fill="white" mask="url(#path-1-outside-1_218_561)"/>
<path d="M363.607 337.885C429.6 381.718 452.613 442.598 432.644 520.524C425.826 547.554 413.528 571.297 395.751 591.753C378.218 612.208 357.397 628.524 333.289 640.7C309.181 653.119 281.176 661.156 249.275 664.808C217.374 668.461 187.665 667 160.147 660.425C88.3093 642.161 37.5356 597.962 7.82639 527.829C2.7125 515.41 7.21759 503.964 21.3417 493.493C35.7093 483.022 52.8773 474.377 72.8458 467.558C92.8144 460.496 112.296 455.869 131.29 453.678C150.285 451.486 161.852 452.338 165.992 456.235C169.644 460.131 171.714 464.88 172.201 470.481C173.175 489.475 185.351 495.806 208.729 489.475C232.35 482.9 242.213 473.646 238.317 461.714C233.933 448.564 216.887 433.709 187.178 417.15C157.469 400.591 142.249 380.135 141.518 355.783C141.275 350.182 142.736 340.929 145.901 328.022C149.067 315.116 158.321 300.505 173.663 284.189C127.394 283.458 95.2495 282.119 77.2292 280.171C65.5403 278.953 55.6778 271.404 47.6417 257.524C39.8491 243.4 34.2481 227.449 30.8389 209.672C27.6731 191.895 27.0644 174.606 29.0125 157.803C30.9606 140.756 35.9528 128.459 43.9889 120.91C50.3204 115.065 71.8718 110.804 108.643 108.125C145.658 105.203 185.717 104.107 228.819 104.837C271.922 105.325 311.981 107.516 348.996 111.412C386.254 115.065 408.414 120.423 415.476 127.485C430.818 143.557 429.844 176.067 412.554 225.014C395.264 273.961 378.949 311.585 363.607 337.885Z" fill="#FFD513"/>
<ellipse cx="57.4947" cy="194.846" rx="16.8203" ry="67.5" transform="rotate(174.252 57.4947 194.846)" fill="#CDB136"/>
<ellipse cx="86.5533" cy="492.718" rx="16.8203" ry="67.5" transform="rotate(-108.036 86.5533 492.718)" fill="#CDB136"/>
</svg>
